solid Untitled-5a1a0f9a
facet normal 9.860090714111293e-19 8.92738884939811e-19 -1.0
  outer loop
    vertex 23.117630075087035 -12.201084292667844 -1.8499999999999983
    vertex 23.108571807595006 -18.077823069728787 -1.8499999999999999
    vertex 11.370429015968812 -12.839006677251557 -1.8499999999999983
  endloop
endfacet
facet normal 9.860090714111293e-19 8.92738884939811e-19 -1.0
  outer loop
    vertex 23.108571807595006 -18.077823069728787 -1.8499999999999999
    vertex 23.117630075087035 -12.201084292667844 -1.8499999999999983
    vertex 23.242738866581803 -17.058723079637613 -1.8499999999999999
  endloop
endfacet
facet normal 9.860090714111293e-19 8.92738884939811e-19 -1.0
  outer loop
    vertex 23.242738866581803 -17.058723079637613 -1.8499999999999999
    vertex 23.117630075087035 -12.201084292667844 -1.8499999999999983
    vertex 23.48873119468126 -11.91632838833398 -1.8499999999999983
  endloop
endfacet
facet normal 9.860090714111293e-19 8.92738884939811e-19 -1.0
  outer loop
    vertex 23.242738866581803 -17.058723079637613 -1.8499999999999999
    vertex 23.48873119468126 -11.91632838833398 -1.8499999999999983
    vertex 23.636096780193782 -16.10907306972879 -1.8499999999999999
  endloop
endfacet
facet normal 9.860090714111293e-19 8.92738884939811e-19 -1.0
  outer loop
    vertex 23.636096780193782 -16.10907306972879 -1.8499999999999999
    vertex 23.48873119468126 -11.91632838833398 -1.8499999999999983
    vertex 24.134442837492344 -11.64886586849942 -1.8499999999999983
  endloop
endfacet
facet normal 9.860090714111293e-19 8.92738884939811e-19 -1.0
  outer loop
    vertex 23.636096780193782 -16.10907306972879 -1.8499999999999999
    vertex 24.134442837492344 -11.64886586849942 -1.8499999999999983
    vertex 24.261838856672977 -15.293590118806758 -1.8499999999999983
  endloop
endfacet
facet normal 9.860090714111293e-19 8.92738884939811e-19 -1.0
  outer loop
    vertex 24.261838856672977 -15.293590118806758 -1.8499999999999983
    vertex 24.134442837492344 -11.64886586849942 -1.8499999999999983
    vertex 25.2046568065175 -11.205568727888057 -1.8499999999999983
  endloop
endfacet
facet normal 9.860090714111293e-19 8.92738884939811e-19 -1.0
  outer loop
    vertex 24.261838856672977 -15.293590118806758 -1.8499999999999983
    vertex 25.2046568065175 -11.205568727888057 -1.8499999999999983
    vertex 25.07732180759501 -14.667848042327563 -1.8499999999999983
  endloop
endfacet
facet normal 9.860090714111293e-19 8.92738884939811e-19 -1.0
  outer loop
    vertex 25.07732180759501 -14.667848042327563 -1.8499999999999983
    vertex 25.2046568065175 -11.205568727888057 -1.8499999999999983
    vertex 25.339895649442376 -14.559086395909976 -1.8499999999999983
  endloop
endfacet
facet normal 9.860090714111293e-19 8.92738884939811e-19 -1.0
  outer loop
    vertex 25.339895649442376 -14.559086395909976 -1.8499999999999983
    vertex 25.2046568065175 -11.205568727888057 -1.8499999999999983
    vertex 26.851951583212067 -10.988698256273548 -1.8499999999999983
  endloop
endfacet
facet normal 9.860090714111293e-19 8.92738884939811e-19 -1.0
  outer loop
    vertex 25.339895649442376 -14.559086395909976 -1.8499999999999983
    vertex 26.851951583212067 -10.988698256273548 -1.8499999999999983
    vertex 25.53862568817961 -14.47676971861408 -1.8499999999999983
  endloop
endfacet
facet normal 9.860090714111293e-19 8.92738884939811e-19 -1.0
  outer loop
    vertex 25.53862568817961 -14.47676971861408 -1.8499999999999983
    vertex 26.851951583212067 -10.988698256273548 -1.8499999999999983
    vertex 26.026971817503835 -14.27449012871558 -1.8499999999999983
  endloop
endfacet
facet normal 9.860090714111293e-19 8.92738884939811e-19 -1.0
  outer loop
    vertex 26.026971817503835 -14.27449012871558 -1.8499999999999983
    vertex 26.851951583212067 -10.988698256273548 -1.8499999999999983
    vertex 27.04607180759501 -14.140323069728788 -1.8499999999999983
  endloop
endfacet
facet normal 9.860090714111293e-19 8.92738884939811e-19 -1.0
  outer loop
    vertex 27.04607180759501 -14.140323069728788 -1.8499999999999983
    vertex 26.851951583212067 -10.988698256273548 -1.8499999999999983
    vertex 27.04607180759501 -10.963141843901312 -1.8499999999999983
  endloop
endfacet
facet normal 9.860090714111293e-19 8.92738884939811e-19 -1.0
  outer loop
    vertex 27.04607180759501 -14.140323069728788 -1.8499999999999983
    vertex 27.04607180759501 -10.963141843901312 -1.8499999999999983
    vertex 28.579565322523987 -11.165030095175782 -1.8499999999999983
  endloop
endfacet
facet normal 9.860090714111293e-19 8.92738884939811e-19 -1.0
  outer loop
    vertex 27.04607180759501 -14.140323069728788 -1.8499999999999983
    vertex 28.579565322523987 -11.165030095175782 -1.8499999999999983
    vertex 27.555621802640587 -14.207406599222185 -1.8499999999999983
  endloop
endfacet
facet normal 9.860090714111293e-19 8.92738884939811e-19 -1.0
  outer loop
    vertex 27.555621802640587 -14.207406599222185 -1.8499999999999983
    vertex 28.579565322523987 -11.165030095175782 -1.8499999999999983
    vertex 28.06517179768618 -14.27449012871558 -1.8499999999999983
  endloop
endfacet
facet normal 9.860090714111293e-19 8.92738884939811e-19 -1.0
  outer loop
    vertex 28.06517179768618 -14.27449012871558 -1.8499999999999983
    vertex 28.579565322523987 -11.165030095175782 -1.8499999999999983
    vertex 28.752247965747646 -14.559086395909976 -1.8499999999999983
  endloop
endfacet
facet normal 9.860090714111293e-19 8.92738884939811e-19 -1.0
  outer loop
    vertex 28.752247965747646 -14.559086395909976 -1.8499999999999983
    vertex 28.579565322523987 -11.165030095175782 -1.8499999999999983
    vertex 28.887486808672502 -11.205568727888057 -1.8499999999999983
  endloop
endfacet
facet normal 9.860090714111293e-19 8.92738884939811e-19 -1.0
  outer loop
    vertex 28.752247965747646 -14.559086395909976 -1.8499999999999983
    vertex 28.887486808672502 -11.205568727888057 -1.8499999999999983
    vertex 29.014821807595006 -14.667848042327563 -1.8499999999999983
  endloop
endfacet
facet normal 9.860090714111293e-19 8.92738884939811e-19 -1.0
  outer loop
    vertex 29.014821807595006 -14.667848042327563 -1.8499999999999983
    vertex 28.887486808672502 -11.205568727888057 -1.8499999999999983
    vertex 29.957700777697664 -11.64886586849942 -1.8499999999999983
  endloop
endfacet
facet normal 9.860090714111293e-19 8.92738884939811e-19 -1.0
  outer loop
    vertex 29.014821807595006 -14.667848042327563 -1.8499999999999983
    vertex 29.957700777697664 -11.64886586849942 -1.8499999999999983
    vertex 29.830304758517038 -15.293590118806758 -1.8499999999999983
  endloop
endfacet
facet normal 9.860090714111293e-19 8.92738884939811e-19 -1.0
  outer loop
    vertex 29.830304758517038 -15.293590118806758 -1.8499999999999983
    vertex 29.957700777697664 -11.64886586849942 -1.8499999999999983
    vertex 30.45604683499623 -16.109073069728794 -1.8499999999999983
  endloop
endfacet
facet normal 9.860090714111293e-19 8.92738884939811e-19 -1.0
  outer loop
    vertex 30.45604683499623 -16.109073069728794 -1.8499999999999983
    vertex 29.957700777697664 -11.64886586849942 -1.8499999999999983
    vertex 30.60341242050876 -11.91632838833398 -1.8499999999999983
  endloop
endfacet
facet normal 9.860090714111293e-19 8.92738884939811e-19 -1.0
  outer loop
    vertex 30.45604683499623 -16.109073069728794 -1.8499999999999983
    vertex 30.60341242050876 -11.91632838833398 -1.8499999999999983
    vertex 30.8494047486082 -17.058723079637616 -1.8499999999999983
  endloop
endfacet
facet normal 9.860090714111293e-19 8.92738884939811e-19 -1.0
  outer loop
    vertex 30.8494047486082 -17.058723079637616 -1.8499999999999983
    vertex 30.60341242050876 -11.91632838833398 -1.8499999999999983
    vertex 32.07691114835824 -13.046983728965566 -1.8499999999999983
  endloop
endfacet
facet normal 9.860090714111293e-19 8.92738884939811e-19 -1.0
  outer loop
    vertex 30.8494047486082 -17.058723079637616 -1.8499999999999983
    vertex 32.07691114835824 -13.046983728965566 -1.8499999999999983
    vertex 30.98357180759501 -18.077823069728794 -1.8499999999999983
  endloop
endfacet
facet normal 9.860090714111293e-19 8.92738884939811e-19 -1.0
  outer loop
    vertex 30.98357180759501 -18.077823069728794 -1.8499999999999983
    vertex 32.07691114835824 -13.046983728965566 -1.8499999999999983
    vertex 32.076911148358235 -23.10866241049203 -1.8499999999999983
  endloop
endfacet
facet normal 9.860090714111293e-19 8.92738884939811e-19 -1.0
  outer loop
    vertex 32.076911148358235 -23.10866241049203 -1.8499999999999983
    vertex 32.07691114835824 -13.046983728965566 -1.8499999999999983
    vertex 33.20756648898982 -21.63516368264254 -1.8499999999999983
  endloop
endfacet
facet normal 9.860090714111293e-19 8.92738884939811e-19 -1.0
  outer loop
    vertex 33.20756648898982 -21.63516368264254 -1.8499999999999983
    vertex 32.07691114835824 -13.046983728965566 -1.8499999999999983
    vertex 33.20756648898982 -14.520482456815053 -1.8499999999999983
  endloop
endfacet
facet normal 9.860090714111293e-19 8.92738884939811e-19 -1.0
  outer loop
    vertex 33.20756648898982 -21.63516368264254 -1.8499999999999983
    vertex 33.20756648898982 -14.520482456815053 -1.8499999999999983
    vertex 33.91832614943574 -16.23640806865129 -1.8499999999999983
  endloop
endfacet
facet normal 9.860090714111293e-19 8.92738884939811e-19 -1.0
  outer loop
    vertex 33.20756648898982 -21.63516368264254 -1.8499999999999983
    vertex 33.91832614943574 -16.23640806865129 -1.8499999999999983
    vertex 33.91832614943574 -19.9192380708063 -1.8499999999999983
  endloop
endfacet
facet normal 9.860090714111293e-19 8.92738884939811e-19 -1.0
  outer loop
    vertex 33.91832614943574 -19.9192380708063 -1.8499999999999983
    vertex 33.91832614943574 -16.23640806865129 -1.8499999999999983
    vertex 34.160753033422495 -18.077823069728794 -1.8499999999999983
  endloop
endfacet
facet normal 9.860090714111293e-19 8.92738884939811e-19 -1.0
  outer loop
    vertex 6.564473220638423 -16.711988064027175 -1.8499999999999983
    vertex 6.56447322063842 -19.443658075430434 -1.8499999999999983
    vertex 6.384657630845477 -18.077823069728776 -1.8499999999999983
  endloop
endfacet
facet normal 9.860090714111293e-19 8.92738884939811e-19 -1.0
  outer loop
    vertex 6.56447322063842 -19.443658075430434 -1.8499999999999983
    vertex 6.564473220638423 -16.711988064027175 -1.8499999999999983
    vertex 7.09166585473205 -20.716413682642496 -1.8499999999999983
  endloop
endfacet
facet normal 9.860090714111293e-19 8.92738884939811e-19 -1.0
  outer loop
    vertex 7.09166585473205 -20.716413682642496 -1.8499999999999983
    vertex 6.564473220638423 -16.711988064027175 -1.8499999999999983
    vertex 7.091665854732056 -15.439232456815033 -1.8499999999999983
  endloop
endfacet
facet normal 9.860090714111293e-19 8.92738884939811e-19 -1.0
  outer loop
    vertex 7.09166585473205 -20.716413682642496 -1.8499999999999983
    vertex 7.091665854732056 -15.439232456815033 -1.8499999999999983
    vertex 7.930308226339991 -21.809353700061727 -1.8499999999999983
  endloop
endfacet
facet normal 9.860090714111293e-19 8.92738884939811e-19 -1.0
  outer loop
    vertex 7.930308226339991 -21.809353700061727 -1.8499999999999983
    vertex 7.091665854732056 -15.439232456815033 -1.8499999999999983
    vertex 7.930308226340041 -14.34629243939585 -1.8499999999999983
  endloop
endfacet
facet normal 9.860090714111293e-19 8.92738884939811e-19 -1.0
  outer loop
    vertex 7.930308226339991 -21.809353700061727 -1.8499999999999983
    vertex 7.930308226340041 -14.34629243939585 -1.8499999999999983
    vertex 9.023248243759248 -22.647996071669702 -1.8499999999999983
  endloop
endfacet
facet normal 9.860090714111293e-19 8.92738884939811e-19 -1.0
  outer loop
    vertex 9.023248243759248 -22.647996071669702 -1.8499999999999983
    vertex 7.930308226340041 -14.34629243939585 -1.8499999999999983
    vertex 9.023248243759191 -13.507650067787887 -1.8499999999999983
  endloop
endfacet
facet normal 9.860090714111293e-19 8.92738884939811e-19 -1.0
  outer loop
    vertex 9.023248243759248 -22.647996071669702 -1.8499999999999983
    vertex 9.023248243759191 -13.507650067787887 -1.8499999999999983
    vertex 10.296003850971392 -12.980457433694198 -1.8499999999999983
  endloop
endfacet
facet normal 9.860090714111293e-19 8.92738884939811e-19 -1.0
  outer loop
    vertex 9.023248243759248 -22.647996071669702 -1.8499999999999983
    vertex 10.296003850971392 -12.980457433694198 -1.8499999999999983
    vertex 10.296003850971356 -23.17518870576336 -1.8499999999999983
  endloop
endfacet
facet normal 9.860090714111293e-19 8.92738884939811e-19 -1.0
  outer loop
    vertex 10.296003850971356 -23.17518870576336 -1.8499999999999983
    vertex 10.296003850971392 -12.980457433694198 -1.8499999999999983
    vertex 11.370429015968755 -23.31663946220602 -1.8499999999999983
  endloop
endfacet
facet normal 9.860090714111293e-19 8.92738884939811e-19 -1.0
  outer loop
    vertex 11.370429015968755 -23.31663946220602 -1.8499999999999983
    vertex 10.296003850971392 -12.980457433694198 -1.8499999999999983
    vertex 11.370429015968812 -12.839006677251557 -1.8499999999999983
  endloop
endfacet
facet normal 9.860090714111293e-19 8.92738884939811e-19 -1.0
  outer loop
    vertex 11.370429015968755 -23.31663946220602 -1.8499999999999983
    vertex 11.370429015968812 -12.839006677251557 -1.8499999999999983
    vertex 23.117630075087035 -23.954561846789748 -1.8499999999999983
  endloop
endfacet
facet normal 9.860090714111293e-19 8.92738884939811e-19 -1.0
  outer loop
    vertex 23.117630075087035 -23.954561846789748 -1.8499999999999983
    vertex 11.370429015968812 -12.839006677251557 -1.8499999999999983
    vertex 23.108571807595006 -18.077823069728787 -1.8499999999999999
  endloop
endfacet
facet normal 9.860090714111293e-19 8.92738884939811e-19 -1.0
  outer loop
    vertex 23.117630075087035 -23.954561846789748 -1.8499999999999983
    vertex 23.108571807595006 -18.077823069728787 -1.8499999999999999
    vertex 23.242738866581803 -19.096923059819975 -1.8499999999999999
  endloop
endfacet
facet normal 9.860090714111293e-19 8.92738884939811e-19 -1.0
  outer loop
    vertex 23.117630075087035 -23.954561846789748 -1.8499999999999983
    vertex 23.242738866581803 -19.096923059819975 -1.8499999999999999
    vertex 23.488731194681257 -24.239317751123597 -1.8499999999999983
  endloop
endfacet
facet normal 9.860090714111293e-19 8.92738884939811e-19 -1.0
  outer loop
    vertex 23.488731194681257 -24.239317751123597 -1.8499999999999983
    vertex 23.242738866581803 -19.096923059819975 -1.8499999999999999
    vertex 23.63609678019378 -20.046573069728794 -1.8499999999999999
  endloop
endfacet
facet normal 9.860090714111293e-19 8.92738884939811e-19 -1.0
  outer loop
    vertex 23.488731194681257 -24.239317751123597 -1.8499999999999983
    vertex 23.63609678019378 -20.046573069728794 -1.8499999999999999
    vertex 25.20465680651749 -24.950077411569527 -1.8499999999999983
  endloop
endfacet
facet normal 9.860090714111293e-19 8.92738884939811e-19 -1.0
  outer loop
    vertex 25.20465680651749 -24.950077411569527 -1.8499999999999983
    vertex 23.63609678019378 -20.046573069728794 -1.8499999999999999
    vertex 24.261838856672977 -20.86205602065083 -1.8499999999999983
  endloop
endfacet
facet normal 9.860090714111293e-19 8.92738884939811e-19 -1.0
  outer loop
    vertex 25.20465680651749 -24.950077411569527 -1.8499999999999983
    vertex 24.261838856672977 -20.86205602065083 -1.8499999999999983
    vertex 25.077321807595006 -21.487798097130018 -1.8499999999999983
  endloop
endfacet
facet normal 9.860090714111293e-19 8.92738884939811e-19 -1.0
  outer loop
    vertex 25.20465680651749 -24.950077411569527 -1.8499999999999983
    vertex 25.077321807595006 -21.487798097130018 -1.8499999999999983
    vertex 26.02697181750382 -21.881156010742 -1.8499999999999983
  endloop
endfacet
facet normal 9.860090714111293e-19 8.92738884939811e-19 -1.0
  outer loop
    vertex 25.20465680651749 -24.950077411569527 -1.8499999999999983
    vertex 26.02697181750382 -21.881156010742 -1.8499999999999983
    vertex 25.385854525177407 -24.973932543788244 -1.8499999999999983
  endloop
endfacet
facet normal 9.860090714111293e-19 8.92738884939811e-19 -1.0
  outer loop
    vertex 25.385854525177407 -24.973932543788244 -1.8499999999999983
    vertex 26.02697181750382 -21.881156010742 -1.8499999999999983
    vertex 25.854727799829842 -25.035660881448216 -1.8499999999999983
  endloop
endfacet
facet normal 9.860090714111293e-19 8.92738884939811e-19 -1.0
  outer loop
    vertex 25.854727799829842 -25.035660881448216 -1.8499999999999983
    vertex 26.02697181750382 -21.881156010742 -1.8499999999999983
    vertex 27.04607180759501 -25.192504295556272 -1.8499999999999983
  endloop
endfacet
facet normal 9.860090714111293e-19 8.92738884939811e-19 -1.0
  outer loop
    vertex 27.04607180759501 -25.192504295556272 -1.8499999999999983
    vertex 26.02697181750382 -21.881156010742 -1.8499999999999983
    vertex 26.840336836569087 -21.98823754695216 -1.8499999999999983
  endloop
endfacet
facet normal 9.860090714111293e-19 8.92738884939811e-19 -1.0
  outer loop
    vertex 27.04607180759501 -25.192504295556272 -1.8499999999999983
    vertex 26.840336836569087 -21.98823754695216 -1.8499999999999983
    vertex 27.046071807595002 -22.01532306972879 -1.8499999999999983
  endloop
endfacet
facet normal 9.860090714111293e-19 8.92738884939811e-19 -1.0
  outer loop
    vertex 27.04607180759501 -25.192504295556272 -1.8499999999999983
    vertex 27.046071807595002 -22.01532306972879 -1.8499999999999983
    vertex 28.065171797686173 -21.881156010742 -1.8499999999999983
  endloop
endfacet
facet normal 9.860090714111293e-19 8.92738884939811e-19 -1.0
  outer loop
    vertex 27.04607180759501 -25.192504295556272 -1.8499999999999983
    vertex 28.065171797686173 -21.881156010742 -1.8499999999999983
    vertex 28.887486808672495 -24.950077411569527 -1.8499999999999983
  endloop
endfacet
facet normal 9.860090714111293e-19 8.92738884939811e-19 -1.0
  outer loop
    vertex 28.887486808672495 -24.950077411569527 -1.8499999999999983
    vertex 28.065171797686173 -21.881156010742 -1.8499999999999983
    vertex 29.014821807595006 -21.487798097130025 -1.8499999999999983
  endloop
endfacet
facet normal 9.860090714111293e-19 8.92738884939811e-19 -1.0
  outer loop
    vertex 28.887486808672495 -24.950077411569527 -1.8499999999999983
    vertex 29.014821807595006 -21.487798097130025 -1.8499999999999983
    vertex 30.603412420508743 -24.239317751123608 -1.8499999999999983
  endloop
endfacet
facet normal 9.860090714111293e-19 8.92738884939811e-19 -1.0
  outer loop
    vertex 30.603412420508743 -24.239317751123608 -1.8499999999999983
    vertex 29.014821807595006 -21.487798097130025 -1.8499999999999983
    vertex 29.830304758517038 -20.86205602065083 -1.8499999999999983
  endloop
endfacet
facet normal 9.860090714111293e-19 8.92738884939811e-19 -1.0
  outer loop
    vertex 30.603412420508743 -24.239317751123608 -1.8499999999999983
    vertex 29.830304758517038 -20.86205602065083 -1.8499999999999983
    vertex 30.45604683499623 -20.046573069728797 -1.8499999999999983
  endloop
endfacet
facet normal 9.860090714111293e-19 8.92738884939811e-19 -1.0
  outer loop
    vertex 30.603412420508743 -24.239317751123608 -1.8499999999999983
    vertex 30.45604683499623 -20.046573069728797 -1.8499999999999983
    vertex 30.849404748608208 -19.09692305981998 -1.8499999999999983
  endloop
endfacet
facet normal 9.860090714111293e-19 8.92738884939811e-19 -1.0
  outer loop
    vertex 30.603412420508743 -24.239317751123608 -1.8499999999999983
    vertex 30.849404748608208 -19.09692305981998 -1.8499999999999983
    vertex 32.076911148358235 -23.10866241049203 -1.8499999999999983
  endloop
endfacet
facet normal 9.860090714111293e-19 8.92738884939811e-19 -1.0
  outer loop
    vertex 32.076911148358235 -23.10866241049203 -1.8499999999999983
    vertex 30.849404748608208 -19.09692305981998 -1.8499999999999983
    vertex 30.98357180759501 -18.077823069728794 -1.8499999999999983
  endloop
endfacet
facet normal 0.99144486137381 -0.13052619222005563 -0.0
  outer loop
    vertex 23.242738866581803 -17.058723079637613 -1.8499999999999999
    vertex 23.108571807595006 -18.077823069728787 1.5750000000000017
    vertex 23.108571807595006 -18.077823069728787 -1.8499999999999999
  endloop
endfacet
facet normal 0.99144486137381 -0.13052619222005563 -0.0
  outer loop
    vertex 23.108571807595006 -18.077823069728787 1.5750000000000017
    vertex 23.242738866581803 -17.058723079637613 -1.8499999999999999
    vertex 23.242738866581803 -17.058723079637613 1.5750000000000017
  endloop
endfacet
facet normal 0.9914448613738103 0.13052619222005385 -0.0
  outer loop
    vertex 23.108571807595006 -18.077823069728787 -1.8499999999999999
    vertex 23.242738866581803 -19.096923059819975 1.5750000000000017
    vertex 23.242738866581803 -19.096923059819975 -1.8499999999999999
  endloop
endfacet
facet normal 0.9914448613738103 0.13052619222005385 -0.0
  outer loop
    vertex 23.242738866581803 -19.096923059819975 1.5750000000000017
    vertex 23.108571807595006 -18.077823069728787 -1.8499999999999999
    vertex 23.108571807595006 -18.077823069728787 1.5750000000000017
  endloop
endfacet
facet normal 0.7933533402912372 0.6087614290087183 6.557469366544398e-19
  outer loop
    vertex 23.63609678019378 -20.046573069728794 -1.8499999999999999
    vertex 24.261838856672977 -20.86205602065083 1.5750000000000017
    vertex 24.261838856672977 -20.86205602065083 -1.8499999999999983
  endloop
endfacet
facet normal 0.7933533402912372 0.6087614290087183 6.557469366544398e-19
  outer loop
    vertex 24.261838856672977 -20.86205602065083 1.5750000000000017
    vertex 23.63609678019378 -20.046573069728794 -1.8499999999999999
    vertex 23.63609678019378 -20.046573069728794 1.5750000000000017
  endloop
endfacet
facet normal 0.38268343236508795 -0.9238795325112875 0.0
  outer loop
    vertex 25.339895649442376 -14.559086395909976 3.150000000000002
    vertex 25.07732180759501 -14.667848042327563 -1.8499999999999983
    vertex 25.339895649442376 -14.559086395909976 -1.8499999999999983
  endloop
endfacet
facet normal 0.38268343236508795 -0.9238795325112875 0.0
  outer loop
    vertex 25.07732180759501 -14.667848042327563 -1.8499999999999983
    vertex 25.339895649442376 -14.559086395909976 3.150000000000002
    vertex 25.07732180759501 -14.667848042327563 3.150000000000002
  endloop
endfacet
facet normal 0.9238795325112876 0.38268343236508773 -0.0
  outer loop
    vertex 23.242738866581803 -19.096923059819975 -1.8499999999999999
    vertex 23.63609678019378 -20.046573069728794 1.5750000000000017
    vertex 23.63609678019378 -20.046573069728794 -1.8499999999999999
  endloop
endfacet
facet normal 0.9238795325112876 0.38268343236508773 -0.0
  outer loop
    vertex 23.63609678019378 -20.046573069728794 1.5750000000000017
    vertex 23.242738866581803 -19.096923059819975 -1.8499999999999999
    vertex 23.242738866581803 -19.096923059819975 1.5750000000000017
  endloop
endfacet
facet normal 0.9238795325112862 -0.3826834323650915 -0.0
  outer loop
    vertex 23.636096780193782 -16.10907306972879 -1.8499999999999999
    vertex 23.242738866581803 -17.058723079637613 1.5750000000000017
    vertex 23.242738866581803 -17.058723079637613 -1.8499999999999999
  endloop
endfacet
facet normal 0.9238795325112862 -0.3826834323650915 -0.0
  outer loop
    vertex 23.242738866581803 -17.058723079637613 1.5750000000000017
    vertex 23.636096780193782 -16.10907306972879 -1.8499999999999999
    vertex 23.636096780193782 -16.10907306972879 1.5750000000000017
  endloop
endfacet
facet normal 0.9238795325112974 -0.38268343236506436 0.0
  outer loop
    vertex 9.843185508725648 -17.027823069728782 1.5750000000000017
    vertex 9.633394621465943 -17.534303075013494 3.150000000000002
    vertex 9.633394621465943 -17.534303075013494 1.5750000000000017
  endloop
endfacet
facet normal 0.9238795325112974 -0.38268343236506436 0.0
  outer loop
    vertex 9.633394621465943 -17.534303075013494 3.150000000000002
    vertex 9.843185508725648 -17.027823069728782 1.5750000000000017
    vertex 9.843185508725648 -17.027823069728782 3.150000000000002
  endloop
endfacet
facet normal 0.0 0.0 1.0
  outer loop
    vertex 9.63339462146594 -18.621343064444087 1.5750000000000017
    vertex 9.633394621465943 -17.534303075013494 1.5750000000000017
    vertex 9.56183885667297 -18.077823069728787 1.5750000000000017
  endloop
endfacet
facet normal 0.0 0.0 1.0
  outer loop
    vertex 9.633394621465943 -17.534303075013494 1.5750000000000017
    vertex 9.63339462146594 -18.621343064444087 1.5750000000000017
    vertex 9.84318550872565 -19.12782306972879 1.5750000000000017
  endloop
endfacet
facet normal 0.0 0.0 1.0
  outer loop
    vertex 9.633394621465943 -17.534303075013494 1.5750000000000017
    vertex 9.84318550872565 -19.12782306972879 1.5750000000000017
    vertex 9.843185508725648 -17.027823069728782 1.5750000000000017
  endloop
endfacet
facet normal 0.0 0.0 1.0
  outer loop
    vertex 9.843185508725648 -17.027823069728782 1.5750000000000017
    vertex 9.84318550872565 -19.12782306972879 1.5750000000000017
    vertex 10.176914616181234 -16.592898829237036 1.5750000000000017
  endloop
endfacet
facet normal 0.0 0.0 1.0
  outer loop
    vertex 10.176914616181234 -16.592898829237036 1.5750000000000017
    vertex 9.84318550872565 -19.12782306972879 1.5750000000000017
    vertex 10.176914616181211 -19.56274731022054 1.5750000000000017
  endloop
endfacet
facet normal 0.0 0.0 1.0
  outer loop
    vertex 10.176914616181234 -16.592898829237036 1.5750000000000017
    vertex 10.176914616181211 -19.56274731022054 1.5750000000000017
    vertex 10.611838856672973 -19.89647641767612 1.5750000000000017
  endloop
endfacet
facet normal 0.0 0.0 1.0
  outer loop
    vertex 10.176914616181234 -16.592898829237036 1.5750000000000017
    vertex 10.611838856672973 -19.89647641767612 1.5750000000000017
    vertex 10.611838856672971 -16.259169721781454 1.5750000000000017
  endloop
endfacet
facet normal 0.0 0.0 1.0
  outer loop
    vertex 10.611838856672971 -16.259169721781454 1.5750000000000017
    vertex 10.611838856672973 -19.89647641767612 1.5750000000000017
    vertex 11.118318861957677 -16.049378834521736 1.5750000000000017
  endloop
endfacet
facet normal 0.0 0.0 1.0
  outer loop
    vertex 11.118318861957677 -16.049378834521736 1.5750000000000017
    vertex 10.611838856672973 -19.89647641767612 1.5750000000000017
    vertex 11.118318861957679 -20.106267304935837 1.5750000000000017
  endloop
endfacet
facet normal 0.0 0.0 1.0
  outer loop
    vertex 11.118318861957677 -16.049378834521736 1.5750000000000017
    vertex 11.118318861957679 -20.106267304935837 1.5750000000000017
    vertex 11.661838856672986 -15.977823069728787 1.5750000000000017
  endloop
endfacet
facet normal 0.0 0.0 1.0
  outer loop
    vertex 11.661838856672986 -15.977823069728787 1.5750000000000017
    vertex 11.118318861957679 -20.106267304935837 1.5750000000000017
    vertex 11.661838856672965 -20.17782306972879 1.5750000000000017
  endloop
endfacet
facet normal 0.0 0.0 1.0
  outer loop
    vertex 11.661838856672986 -15.977823069728787 1.5750000000000017
    vertex 11.661838856672965 -20.17782306972879 1.5750000000000017
    vertex 24.261838856672977 -20.86205602065083 1.5750000000000017
  endloop
endfacet
facet normal 0.0 0.0 1.0
  outer loop
    vertex 11.661838856672986 -15.977823069728787 1.5750000000000017
    vertex 24.261838856672977 -20.86205602065083 1.5750000000000017
    vertex 23.63609678019378 -20.046573069728794 1.5750000000000017
  endloop
endfacet
facet normal 0.0 0.0 1.0
  outer loop
    vertex 11.661838856672986 -15.977823069728787 1.5750000000000017
    vertex 23.63609678019378 -20.046573069728794 1.5750000000000017
    vertex 23.242738866581803 -19.096923059819975 1.5750000000000017
  endloop
endfacet
facet normal 0.0 0.0 1.0
  outer loop
    vertex 11.661838856672986 -15.977823069728787 1.5750000000000017
    vertex 23.242738866581803 -19.096923059819975 1.5750000000000017
    vertex 23.108571807595006 -18.077823069728787 1.5750000000000017
  endloop
endfacet
facet normal 0.0 0.0 1.0
  outer loop
    vertex 11.661838856672986 -15.977823069728787 1.5750000000000017
    vertex 23.636096780193782 -16.10907306972879 1.5750000000000017
    vertex 24.261838856672977 -15.293590118806758 1.5750000000000017
  endloop
endfacet
facet normal 0.0 0.0 1.0
  outer loop
    vertex 23.636096780193782 -16.10907306972879 1.5750000000000017
    vertex 11.661838856672986 -15.977823069728787 1.5750000000000017
    vertex 23.242738866581803 -17.058723079637613 1.5750000000000017
  endloop
endfacet
facet normal 0.0 0.0 1.0
  outer loop
    vertex 23.242738866581803 -17.058723079637613 1.5750000000000017
    vertex 11.661838856672986 -15.977823069728787 1.5750000000000017
    vertex 23.108571807595006 -18.077823069728787 1.5750000000000017
  endloop
endfacet
facet normal 0.6087614290087179 -0.7933533402912374 5.996958721167118e-18
  outer loop
    vertex 25.07732180759501 -14.667848042327563 3.150000000000002
    vertex 24.261838856672977 -15.293590118806758 -1.8499999999999983
    vertex 25.07732180759501 -14.667848042327563 -1.8499999999999983
  endloop
endfacet
facet normal 0.6087614290087179 -0.7933533402912374 5.996958721167118e-18
  outer loop
    vertex 24.261838856672977 -15.293590118806758 -1.8499999999999983
    vertex 25.07732180759501 -14.667848042327563 3.150000000000002
    vertex 24.261838856672977 -15.293590118806758 1.5750000000000017
  endloop
endfacet
facet normal 0.6087614290087179 -0.7933533402912374 5.996958721167118e-18
  outer loop
    vertex 24.261838856672977 -15.293590118806758 1.5750000000000017
    vertex 25.07732180759501 -14.667848042327563 3.150000000000002
    vertex 24.261838856672977 -15.293590118806758 3.150000000000002
  endloop
endfacet
facet normal -0.6087614290087193 -0.7933533402912363 -3.154456564976762e-32
  outer loop
    vertex 29.830304758517038 -15.293590118806758 3.150000000000002
    vertex 29.014821807595006 -14.667848042327563 -1.8499999999999983
    vertex 29.830304758517038 -15.293590118806758 -1.8499999999999983
  endloop
endfacet
facet normal -0.6087614290087193 -0.7933533402912363 -3.154456564976762e-32
  outer loop
    vertex 29.014821807595006 -14.667848042327563 -1.8499999999999983
    vertex 29.830304758517038 -15.293590118806758 3.150000000000002
    vertex 29.014821807595006 -14.667848042327563 3.150000000000002
  endloop
endfacet
facet normal 0.38268343236508423 -0.923879532511289 0.0
  outer loop
    vertex 11.118318861957677 -16.049378834521736 3.150000000000002
    vertex 10.611838856672971 -16.259169721781454 1.5750000000000017
    vertex 11.118318861957677 -16.049378834521736 1.5750000000000017
  endloop
endfacet
facet normal 0.38268343236508423 -0.923879532511289 0.0
  outer loop
    vertex 10.611838856672971 -16.259169721781454 1.5750000000000017
    vertex 11.118318861957677 -16.049378834521736 3.150000000000002
    vertex 10.611838856672971 -16.259169721781454 3.150000000000002
  endloop
endfacet
facet normal 0.7933533402912385 -0.6087614290087162 6.557469366542823e-19
  outer loop
    vertex 24.261838856672977 -15.293590118806758 -1.8499999999999983
    vertex 23.636096780193782 -16.10907306972879 1.5750000000000017
    vertex 23.636096780193782 -16.10907306972879 -1.8499999999999999
  endloop
endfacet
facet normal 0.7933533402912385 -0.6087614290087162 6.557469366542823e-19
  outer loop
    vertex 23.636096780193782 -16.10907306972879 1.5750000000000017
    vertex 24.261838856672977 -15.293590118806758 -1.8499999999999983
    vertex 24.261838856672977 -15.293590118806758 1.5750000000000017
  endloop
endfacet
facet normal -0.13052619222005057 -0.9914448613738107 1.4292498036470275e-16
  outer loop
    vertex 28.06517179768618 -14.27449012871558 3.150000000000002
    vertex 27.555621802640587 -14.207406599222185 -1.8499999999999983
    vertex 28.06517179768618 -14.27449012871558 -1.8499999999999983
  endloop
endfacet
facet normal -0.13052619222005057 -0.9914448613738107 1.4292498036470275e-16
  outer loop
    vertex 27.555621802640587 -14.207406599222185 -1.8499999999999983
    vertex 28.06517179768618 -14.27449012871558 3.150000000000002
    vertex 27.04607180759501 -14.140323069728788 -1.8499999999999983
  endloop
endfacet
facet normal -0.13052619222005057 -0.9914448613738107 1.4292498036470275e-16
  outer loop
    vertex 27.04607180759501 -14.140323069728788 -1.8499999999999983
    vertex 28.06517179768618 -14.27449012871558 3.150000000000002
    vertex 27.04607180759501 -14.140323069728788 3.150000000000002
  endloop
endfacet
facet normal 0.13052619222003073 -0.9914448613738133 0.0
  outer loop
    vertex 11.661838856672986 -15.977823069728787 3.150000000000002
    vertex 11.118318861957677 -16.049378834521736 1.5750000000000017
    vertex 11.661838856672986 -15.977823069728787 1.5750000000000017
  endloop
endfacet
facet normal 0.13052619222003073 -0.9914448613738133 0.0
  outer loop
    vertex 11.118318861957677 -16.049378834521736 1.5750000000000017
    vertex 11.661838856672986 -15.977823069728787 3.150000000000002
    vertex 11.118318861957677 -16.049378834521736 3.150000000000002
  endloop
endfacet
facet normal 0.13052619222005063 -0.9914448613738107 -1.3869993841905802e-18
  outer loop
    vertex 27.04607180759501 -14.140323069728788 3.150000000000002
    vertex 26.026971817503835 -14.27449012871558 -1.8499999999999983
    vertex 27.04607180759501 -14.140323069728788 -1.8499999999999983
  endloop
endfacet
facet normal 0.13052619222005063 -0.9914448613738107 -1.3869993841905802e-18
  outer loop
    vertex 26.026971817503835 -14.27449012871558 -1.8499999999999983
    vertex 27.04607180759501 -14.140323069728788 3.150000000000002
    vertex 26.026971817503835 -14.27449012871558 3.150000000000002
  endloop
endfacet
facet normal 0.13052619222005288 0.9914448613738103 0.0
  outer loop
    vertex 11.118318861957679 -20.106267304935837 3.150000000000002
    vertex 11.661838856672965 -20.17782306972879 1.5750000000000017
    vertex 11.118318861957679 -20.106267304935837 1.5750000000000017
  endloop
endfacet
facet normal 0.13052619222005288 0.9914448613738103 0.0
  outer loop
    vertex 11.661838856672965 -20.17782306972879 1.5750000000000017
    vertex 11.118318861957679 -20.106267304935837 3.150000000000002
    vertex 11.661838856672965 -20.17782306972879 3.150000000000002
  endloop
endfacet
facet normal 0.6087614290087459 -0.793353340291216 0.0
  outer loop
    vertex 10.611838856672971 -16.259169721781454 3.150000000000002
    vertex 10.176914616181234 -16.592898829237036 1.5750000000000017
    vertex 10.611838856672971 -16.259169721781454 1.5750000000000017
  endloop
endfacet
facet normal 0.6087614290087459 -0.793353340291216 0.0
  outer loop
    vertex 10.176914616181234 -16.592898829237036 1.5750000000000017
    vertex 10.611838856672971 -16.259169721781454 3.150000000000002
    vertex 10.176914616181234 -16.592898829237036 3.150000000000002
  endloop
endfacet
facet normal 0.054224309020580445 -0.9985287799113457 0.0
  outer loop
    vertex 24.261838856672977 -15.293590118806758 3.150000000000002
    vertex 11.661838856672986 -15.977823069728787 1.5750000000000017
    vertex 24.261838856672977 -15.293590118806758 1.5750000000000017
  endloop
endfacet
facet normal 0.054224309020580445 -0.9985287799113457 0.0
  outer loop
    vertex 11.661838856672986 -15.977823069728787 1.5750000000000017
    vertex 24.261838856672977 -15.293590118806758 3.150000000000002
    vertex 11.661838856672986 -15.977823069728787 3.150000000000002
  endloop
endfacet
facet normal 0.7933533402912181 -0.6087614290087431 0.0
  outer loop
    vertex 10.176914616181234 -16.592898829237036 1.5750000000000017
    vertex 9.843185508725648 -17.027823069728782 3.150000000000002
    vertex 9.843185508725648 -17.027823069728782 1.5750000000000017
  endloop
endfacet
facet normal 0.7933533402912181 -0.6087614290087431 0.0
  outer loop
    vertex 9.843185508725648 -17.027823069728782 3.150000000000002
    vertex 10.176914616181234 -16.592898829237036 1.5750000000000017
    vertex 10.176914616181234 -16.592898829237036 3.150000000000002
  endloop
endfacet
facet normal 0.6087614290087157 0.7933533402912392 0.0
  outer loop
    vertex 10.176914616181211 -19.56274731022054 3.150000000000002
    vertex 10.611838856672973 -19.89647641767612 1.5750000000000017
    vertex 10.176914616181211 -19.56274731022054 1.5750000000000017
  endloop
endfacet
facet normal 0.6087614290087157 0.7933533402912392 0.0
  outer loop
    vertex 10.611838856672973 -19.89647641767612 1.5750000000000017
    vertex 10.176914616181211 -19.56274731022054 3.150000000000002
    vertex 10.611838856672973 -19.89647641767612 3.150000000000002
  endloop
endfacet
facet normal 0.9914448613738078 0.1305261922200716 0.0
  outer loop
    vertex 9.56183885667297 -18.077823069728787 1.5750000000000017
    vertex 9.63339462146594 -18.621343064444087 3.150000000000002
    vertex 9.63339462146594 -18.621343064444087 1.5750000000000017
  endloop
endfacet
facet normal 0.9914448613738078 0.1305261922200716 0.0
  outer loop
    vertex 9.63339462146594 -18.621343064444087 3.150000000000002
    vertex 9.56183885667297 -18.077823069728787 1.5750000000000017
    vertex 9.56183885667297 -18.077823069728787 3.150000000000002
  endloop
endfacet
facet normal 0.38268343236509295 -0.9238795325112856 -1.682335008163157e-16
  outer loop
    vertex 26.026971817503835 -14.27449012871558 3.150000000000002
    vertex 25.53862568817961 -14.47676971861408 -1.8499999999999983
    vertex 26.026971817503835 -14.27449012871558 -1.8499999999999983
  endloop
endfacet
facet normal 0.38268343236509295 -0.9238795325112856 -1.682335008163157e-16
  outer loop
    vertex 25.53862568817961 -14.47676971861408 -1.8499999999999983
    vertex 26.026971817503835 -14.27449012871558 3.150000000000002
    vertex 25.339895649442376 -14.559086395909976 -1.8499999999999983
  endloop
endfacet
facet normal 0.38268343236509295 -0.9238795325112856 -1.682335008163157e-16
  outer loop
    vertex 25.339895649442376 -14.559086395909976 -1.8499999999999983
    vertex 26.026971817503835 -14.27449012871558 3.150000000000002
    vertex 25.339895649442376 -14.559086395909976 3.150000000000002
  endloop
endfacet
facet normal 0.9238795325112901 0.3826834323650821 0.0
  outer loop
    vertex 9.63339462146594 -18.621343064444087 1.5750000000000017
    vertex 9.84318550872565 -19.12782306972879 3.150000000000002
    vertex 9.84318550872565 -19.12782306972879 1.5750000000000017
  endloop
endfacet
facet normal 0.9238795325112901 0.3826834323650821 0.0
  outer loop
    vertex 9.84318550872565 -19.12782306972879 3.150000000000002
    vertex 9.63339462146594 -18.621343064444087 1.5750000000000017
    vertex 9.63339462146594 -18.621343064444087 3.150000000000002
  endloop
endfacet
facet normal 7.495288891357121e-33 2.622822220745216e-32 1.0
  outer loop
    vertex 9.023248243759248 -22.647996071669702 3.150000000000002
    vertex 9.63339462146594 -18.621343064444087 3.150000000000002
    vertex 9.56183885667297 -18.077823069728787 3.150000000000002
  endloop
endfacet
facet normal 7.495288891357121e-33 2.622822220745216e-32 1.0
  outer loop
    vertex 9.63339462146594 -18.621343064444087 3.150000000000002
    vertex 9.023248243759248 -22.647996071669702 3.150000000000002
    vertex 10.296003850971356 -23.17518870576336 3.150000000000002
  endloop
endfacet
facet normal 7.495288891357121e-33 2.622822220745216e-32 1.0
  outer loop
    vertex 9.63339462146594 -18.621343064444087 3.150000000000002
    vertex 10.296003850971356 -23.17518870576336 3.150000000000002
    vertex 9.84318550872565 -19.12782306972879 3.150000000000002
  endloop
endfacet
facet normal 7.495288891357121e-33 2.622822220745216e-32 1.0
  outer loop
    vertex 9.84318550872565 -19.12782306972879 3.150000000000002
    vertex 10.296003850971356 -23.17518870576336 3.150000000000002
    vertex 10.176914616181211 -19.56274731022054 3.150000000000002
  endloop
endfacet
facet normal 7.495288891357121e-33 2.622822220745216e-32 1.0
  outer loop
    vertex 10.176914616181211 -19.56274731022054 3.150000000000002
    vertex 10.296003850971356 -23.17518870576336 3.150000000000002
    vertex 10.611838856672973 -19.89647641767612 3.150000000000002
  endloop
endfacet
facet normal 7.495288891357121e-33 2.622822220745216e-32 1.0
  outer loop
    vertex 10.611838856672973 -19.89647641767612 3.150000000000002
    vertex 10.296003850971356 -23.17518870576336 3.150000000000002
    vertex 11.370429015968755 -23.31663946220602 3.150000000000002
  endloop
endfacet
facet normal 7.495288891357121e-33 2.622822220745216e-32 1.0
  outer loop
    vertex 10.611838856672973 -19.89647641767612 3.150000000000002
    vertex 11.370429015968755 -23.31663946220602 3.150000000000002
    vertex 11.118318861957679 -20.106267304935837 3.150000000000002
  endloop
endfacet
facet normal 7.495288891357121e-33 2.622822220745216e-32 1.0
  outer loop
    vertex 11.118318861957679 -20.106267304935837 3.150000000000002
    vertex 11.370429015968755 -23.31663946220602 3.150000000000002
    vertex 11.661838856672965 -20.17782306972879 3.150000000000002
  endloop
endfacet
facet normal 7.495288891357121e-33 2.622822220745216e-32 1.0
  outer loop
    vertex 11.661838856672965 -20.17782306972879 3.150000000000002
    vertex 11.370429015968755 -23.31663946220602 3.150000000000002
    vertex 23.117630075087035 -23.954561846789748 3.150000000000002
  endloop
endfacet
facet normal 7.495288891357121e-33 2.622822220745216e-32 1.0
  outer loop
    vertex 11.661838856672965 -20.17782306972879 3.150000000000002
    vertex 23.117630075087035 -23.954561846789748 3.150000000000002
    vertex 24.261838856672977 -20.86205602065083 3.150000000000002
  endloop
endfacet
facet normal 7.495288891357121e-33 2.622822220745216e-32 1.0
  outer loop
    vertex 24.261838856672977 -20.86205602065083 3.150000000000002
    vertex 23.117630075087035 -23.954561846789748 3.150000000000002
    vertex 23.488731194681257 -24.239317751123597 3.150000000000002
  endloop
endfacet
facet normal 7.495288891357121e-33 2.622822220745216e-32 1.0
  outer loop
    vertex 24.261838856672977 -20.86205602065083 3.150000000000002
    vertex 23.488731194681257 -24.239317751123597 3.150000000000002
    vertex 25.20465680651749 -24.950077411569527 3.150000000000002
  endloop
endfacet
facet normal 7.495288891357121e-33 2.622822220745216e-32 1.0
  outer loop
    vertex 24.261838856672977 -20.86205602065083 3.150000000000002
    vertex 25.20465680651749 -24.950077411569527 3.150000000000002
    vertex 25.077321807595006 -21.487798097130018 3.150000000000002
  endloop
endfacet
facet normal 7.495288891357121e-33 2.622822220745216e-32 1.0
  outer loop
    vertex 25.077321807595006 -21.487798097130018 3.150000000000002
    vertex 25.20465680651749 -24.950077411569527 3.150000000000002
    vertex 26.02697181750382 -21.881156010742 3.150000000000002
  endloop
endfacet
facet normal 7.495288891357121e-33 2.622822220745216e-32 1.0
  outer loop
    vertex 26.02697181750382 -21.881156010742 3.150000000000002
    vertex 25.20465680651749 -24.950077411569527 3.150000000000002
    vertex 27.04607180759501 -25.192504295556272 3.150000000000002
  endloop
endfacet
facet normal 7.495288891357121e-33 2.622822220745216e-32 1.0
  outer loop
    vertex 26.02697181750382 -21.881156010742 3.150000000000002
    vertex 27.04607180759501 -25.192504295556272 3.150000000000002
    vertex 27.046071807595002 -22.01532306972879 3.150000000000002
  endloop
endfacet
facet normal 7.495288891357121e-33 2.622822220745216e-32 1.0
  outer loop
    vertex 27.046071807595002 -22.01532306972879 3.150000000000002
    vertex 27.04607180759501 -25.192504295556272 3.150000000000002
    vertex 28.065171797686173 -21.881156010742 3.150000000000002
  endloop
endfacet
facet normal 7.495288891357121e-33 2.622822220745216e-32 1.0
  outer loop
    vertex 28.065171797686173 -21.881156010742 3.150000000000002
    vertex 27.04607180759501 -25.192504295556272 3.150000000000002
    vertex 28.887486808672495 -24.950077411569527 3.150000000000002
  endloop
endfacet
facet normal 7.495288891357121e-33 2.622822220745216e-32 1.0
  outer loop
    vertex 28.065171797686173 -21.881156010742 3.150000000000002
    vertex 28.887486808672495 -24.950077411569527 3.150000000000002
    vertex 29.014821807595006 -21.487798097130025 3.150000000000002
  endloop
endfacet
facet normal 7.495288891357121e-33 2.622822220745216e-32 1.0
  outer loop
    vertex 29.014821807595006 -21.487798097130025 3.150000000000002
    vertex 28.887486808672495 -24.950077411569527 3.150000000000002
    vertex 30.603412420508743 -24.239317751123608 3.150000000000002
  endloop
endfacet
facet normal 7.495288891357121e-33 2.622822220745216e-32 1.0
  outer loop
    vertex 29.014821807595006 -21.487798097130025 3.150000000000002
    vertex 30.603412420508743 -24.239317751123608 3.150000000000002
    vertex 29.830304758517038 -20.86205602065083 3.150000000000002
  endloop
endfacet
facet normal 7.495288891357121e-33 2.622822220745216e-32 1.0
  outer loop
    vertex 29.830304758517038 -20.86205602065083 3.150000000000002
    vertex 30.603412420508743 -24.239317751123608 3.150000000000002
    vertex 30.45604683499623 -20.046573069728797 3.150000000000002
  endloop
endfacet
facet normal 7.495288891357121e-33 2.622822220745216e-32 1.0
  outer loop
    vertex 30.45604683499623 -20.046573069728797 3.150000000000002
    vertex 30.603412420508743 -24.239317751123608 3.150000000000002
    vertex 30.849404748608208 -19.09692305981998 3.150000000000002
  endloop
endfacet
facet normal 7.495288891357121e-33 2.622822220745216e-32 1.0
  outer loop
    vertex 30.849404748608208 -19.09692305981998 3.150000000000002
    vertex 30.603412420508743 -24.239317751123608 3.150000000000002
    vertex 32.076911148358235 -23.10866241049203 3.150000000000002
  endloop
endfacet
facet normal 7.495288891357121e-33 2.622822220745216e-32 1.0
  outer loop
    vertex 30.849404748608208 -19.09692305981998 3.150000000000002
    vertex 32.076911148358235 -23.10866241049203 3.150000000000002
    vertex 30.98357180759501 -18.077823069728794 3.150000000000002
  endloop
endfacet
facet normal 7.495288891357121e-33 2.622822220745216e-32 1.0
  outer loop
    vertex 6.56447322063842 -19.443658075430434 3.150000000000002
    vertex 6.564473220638423 -16.711988064027175 3.150000000000002
    vertex 6.384657630845477 -18.077823069728776 3.150000000000002
  endloop
endfacet
facet normal 7.495288891357121e-33 2.622822220745216e-32 1.0
  outer loop
    vertex 6.564473220638423 -16.711988064027175 3.150000000000002
    vertex 6.56447322063842 -19.443658075430434 3.150000000000002
    vertex 7.09166585473205 -20.716413682642496 3.150000000000002
  endloop
endfacet
facet normal 7.495288891357121e-33 2.622822220745216e-32 1.0
  outer loop
    vertex 6.564473220638423 -16.711988064027175 3.150000000000002
    vertex 7.09166585473205 -20.716413682642496 3.150000000000002
    vertex 7.091665854732056 -15.439232456815033 3.150000000000002
  endloop
endfacet
facet normal 7.495288891357121e-33 2.622822220745216e-32 1.0
  outer loop
    vertex 7.091665854732056 -15.439232456815033 3.150000000000002
    vertex 7.09166585473205 -20.716413682642496 3.150000000000002
    vertex 7.930308226339991 -21.809353700061727 3.150000000000002
  endloop
endfacet
facet normal 7.495288891357121e-33 2.622822220745216e-32 1.0
  outer loop
    vertex 7.091665854732056 -15.439232456815033 3.150000000000002
    vertex 7.930308226339991 -21.809353700061727 3.150000000000002
    vertex 7.930308226340041 -14.34629243939585 3.150000000000002
  endloop
endfacet
facet normal 7.495288891357121e-33 2.622822220745216e-32 1.0
  outer loop
    vertex 7.930308226340041 -14.34629243939585 3.150000000000002
    vertex 7.930308226339991 -21.809353700061727 3.150000000000002
    vertex 9.023248243759248 -22.647996071669702 3.150000000000002
  endloop
endfacet
facet normal 7.495288891357121e-33 2.622822220745216e-32 1.0
  outer loop
    vertex 7.930308226340041 -14.34629243939585 3.150000000000002
    vertex 9.023248243759248 -22.647996071669702 3.150000000000002
    vertex 9.023248243759191 -13.507650067787887 3.150000000000002
  endloop
endfacet
facet normal 7.495288891357121e-33 2.622822220745216e-32 1.0
  outer loop
    vertex 9.023248243759191 -13.507650067787887 3.150000000000002
    vertex 9.023248243759248 -22.647996071669702 3.150000000000002
    vertex 9.56183885667297 -18.077823069728787 3.150000000000002
  endloop
endfacet
facet normal 7.495288891357121e-33 2.622822220745216e-32 1.0
  outer loop
    vertex 9.023248243759191 -13.507650067787887 3.150000000000002
    vertex 9.56183885667297 -18.077823069728787 3.150000000000002
    vertex 9.633394621465943 -17.534303075013494 3.150000000000002
  endloop
endfacet
facet normal 7.495288891357121e-33 2.622822220745216e-32 1.0
  outer loop
    vertex 9.023248243759191 -13.507650067787887 3.150000000000002
    vertex 9.633394621465943 -17.534303075013494 3.150000000000002
    vertex 10.296003850971392 -12.980457433694198 3.150000000000002
  endloop
endfacet
facet normal 7.495288891357121e-33 2.622822220745216e-32 1.0
  outer loop
    vertex 10.296003850971392 -12.980457433694198 3.150000000000002
    vertex 9.633394621465943 -17.534303075013494 3.150000000000002
    vertex 9.843185508725648 -17.027823069728782 3.150000000000002
  endloop
endfacet
facet normal 7.495288891357121e-33 2.622822220745216e-32 1.0
  outer loop
    vertex 10.296003850971392 -12.980457433694198 3.150000000000002
    vertex 9.843185508725648 -17.027823069728782 3.150000000000002
    vertex 10.176914616181234 -16.592898829237036 3.150000000000002
  endloop
endfacet
facet normal 7.495288891357121e-33 2.622822220745216e-32 1.0
  outer loop
    vertex 10.296003850971392 -12.980457433694198 3.150000000000002
    vertex 10.176914616181234 -16.592898829237036 3.150000000000002
    vertex 10.611838856672971 -16.259169721781454 3.150000000000002
  endloop
endfacet
facet normal 7.495288891357121e-33 2.622822220745216e-32 1.0
  outer loop
    vertex 10.296003850971392 -12.980457433694198 3.150000000000002
    vertex 10.611838856672971 -16.259169721781454 3.150000000000002
    vertex 11.370429015968812 -12.839006677251557 3.150000000000002
  endloop
endfacet
facet normal 7.495288891357121e-33 2.622822220745216e-32 1.0
  outer loop
    vertex 11.370429015968812 -12.839006677251557 3.150000000000002
    vertex 10.611838856672971 -16.259169721781454 3.150000000000002
    vertex 11.118318861957677 -16.049378834521736 3.150000000000002
  endloop
endfacet
facet normal 7.495288891357121e-33 2.622822220745216e-32 1.0
  outer loop
    vertex 11.370429015968812 -12.839006677251557 3.150000000000002
    vertex 11.118318861957677 -16.049378834521736 3.150000000000002
    vertex 11.661838856672986 -15.977823069728787 3.150000000000002
  endloop
endfacet
facet normal 7.495288891357121e-33 2.622822220745216e-32 1.0
  outer loop
    vertex 11.370429015968812 -12.839006677251557 3.150000000000002
    vertex 11.661838856672986 -15.977823069728787 3.150000000000002
    vertex 23.117630075087035 -12.201084292667844 3.150000000000002
  endloop
endfacet
facet normal 7.495288891357121e-33 2.622822220745216e-32 1.0
  outer loop
    vertex 23.117630075087035 -12.201084292667844 3.150000000000002
    vertex 11.661838856672986 -15.977823069728787 3.150000000000002
    vertex 24.261838856672977 -15.293590118806758 3.150000000000002
  endloop
endfacet
facet normal 7.495288891357121e-33 2.622822220745216e-32 1.0
  outer loop
    vertex 23.117630075087035 -12.201084292667844 3.150000000000002
    vertex 24.261838856672977 -15.293590118806758 3.150000000000002
    vertex 23.48873119468126 -11.91632838833398 3.150000000000002
  endloop
endfacet
facet normal 7.495288891357121e-33 2.622822220745216e-32 1.0
  outer loop
    vertex 23.48873119468126 -11.91632838833398 3.150000000000002
    vertex 24.261838856672977 -15.293590118806758 3.150000000000002
    vertex 24.134442837492344 -11.64886586849942 3.150000000000002
  endloop
endfacet
facet normal 7.495288891357121e-33 2.622822220745216e-32 1.0
  outer loop
    vertex 24.134442837492344 -11.64886586849942 3.150000000000002
    vertex 24.261838856672977 -15.293590118806758 3.150000000000002
    vertex 25.2046568065175 -11.205568727888057 3.150000000000002
  endloop
endfacet
facet normal 7.495288891357121e-33 2.622822220745216e-32 1.0
  outer loop
    vertex 25.2046568065175 -11.205568727888057 3.150000000000002
    vertex 24.261838856672977 -15.293590118806758 3.150000000000002
    vertex 25.07732180759501 -14.667848042327563 3.150000000000002
  endloop
endfacet
facet normal 7.495288891357121e-33 2.622822220745216e-32 1.0
  outer loop
    vertex 25.2046568065175 -11.205568727888057 3.150000000000002
    vertex 25.07732180759501 -14.667848042327563 3.150000000000002
    vertex 25.339895649442376 -14.559086395909976 3.150000000000002
  endloop
endfacet
facet normal 7.495288891357121e-33 2.622822220745216e-32 1.0
  outer loop
    vertex 25.2046568065175 -11.205568727888057 3.150000000000002
    vertex 25.339895649442376 -14.559086395909976 3.150000000000002
    vertex 27.04607180759501 -10.963141843901312 3.150000000000002
  endloop
endfacet
facet normal 7.495288891357121e-33 2.622822220745216e-32 1.0
  outer loop
    vertex 27.04607180759501 -10.963141843901312 3.150000000000002
    vertex 25.339895649442376 -14.559086395909976 3.150000000000002
    vertex 26.026971817503835 -14.27449012871558 3.150000000000002
  endloop
endfacet
facet normal 7.495288891357121e-33 2.622822220745216e-32 1.0
  outer loop
    vertex 27.04607180759501 -10.963141843901312 3.150000000000002
    vertex 26.026971817503835 -14.27449012871558 3.150000000000002
    vertex 27.04607180759501 -14.140323069728788 3.150000000000002
  endloop
endfacet
facet normal 7.495288891357121e-33 2.622822220745216e-32 1.0
  outer loop
    vertex 27.04607180759501 -10.963141843901312 3.150000000000002
    vertex 27.04607180759501 -14.140323069728788 3.150000000000002
    vertex 28.06517179768618 -14.27449012871558 3.150000000000002
  endloop
endfacet
facet normal 7.495288891357121e-33 2.622822220745216e-32 1.0
  outer loop
    vertex 27.04607180759501 -10.963141843901312 3.150000000000002
    vertex 28.06517179768618 -14.27449012871558 3.150000000000002
    vertex 28.887486808672502 -11.205568727888057 3.150000000000002
  endloop
endfacet
facet normal 7.495288891357121e-33 2.622822220745216e-32 1.0
  outer loop
    vertex 28.887486808672502 -11.205568727888057 3.150000000000002
    vertex 28.06517179768618 -14.27449012871558 3.150000000000002
    vertex 28.752247965747646 -14.559086395909976 3.150000000000002
  endloop
endfacet
facet normal 7.495288891357121e-33 2.622822220745216e-32 1.0
  outer loop
    vertex 28.887486808672502 -11.205568727888057 3.150000000000002
    vertex 28.752247965747646 -14.559086395909976 3.150000000000002
    vertex 29.014821807595006 -14.667848042327563 3.150000000000002
  endloop
endfacet
facet normal 7.495288891357121e-33 2.622822220745216e-32 1.0
  outer loop
    vertex 28.887486808672502 -11.205568727888057 3.150000000000002
    vertex 29.014821807595006 -14.667848042327563 3.150000000000002
    vertex 29.957700777697664 -11.64886586849942 3.150000000000002
  endloop
endfacet
facet normal 7.495288891357121e-33 2.622822220745216e-32 1.0
  outer loop
    vertex 29.957700777697664 -11.64886586849942 3.150000000000002
    vertex 29.014821807595006 -14.667848042327563 3.150000000000002
    vertex 29.830304758517038 -15.293590118806758 3.150000000000002
  endloop
endfacet
facet normal 7.495288891357121e-33 2.622822220745216e-32 1.0
  outer loop
    vertex 29.957700777697664 -11.64886586849942 3.150000000000002
    vertex 29.830304758517038 -15.293590118806758 3.150000000000002
    vertex 30.45604683499623 -16.109073069728794 3.150000000000002
  endloop
endfacet
facet normal 7.495288891357121e-33 2.622822220745216e-32 1.0
  outer loop
    vertex 29.957700777697664 -11.64886586849942 3.150000000000002
    vertex 30.45604683499623 -16.109073069728794 3.150000000000002
    vertex 30.60341242050876 -11.91632838833398 3.150000000000002
  endloop
endfacet
facet normal 7.495288891357121e-33 2.622822220745216e-32 1.0
  outer loop
    vertex 30.60341242050876 -11.91632838833398 3.150000000000002
    vertex 30.45604683499623 -16.109073069728794 3.150000000000002
    vertex 30.8494047486082 -17.058723079637616 3.150000000000002
  endloop
endfacet
facet normal 7.495288891357121e-33 2.622822220745216e-32 1.0
  outer loop
    vertex 30.60341242050876 -11.91632838833398 3.150000000000002
    vertex 30.8494047486082 -17.058723079637616 3.150000000000002
    vertex 32.07691114835824 -13.046983728965566 3.150000000000002
  endloop
endfacet
facet normal 7.495288891357121e-33 2.622822220745216e-32 1.0
  outer loop
    vertex 32.07691114835824 -13.046983728965566 3.150000000000002
    vertex 30.8494047486082 -17.058723079637616 3.150000000000002
    vertex 30.98357180759501 -18.077823069728794 3.150000000000002
  endloop
endfacet
facet normal 7.495288891357121e-33 2.622822220745216e-32 1.0
  outer loop
    vertex 32.07691114835824 -13.046983728965566 3.150000000000002
    vertex 30.98357180759501 -18.077823069728794 3.150000000000002
    vertex 32.076911148358235 -23.10866241049203 3.150000000000002
  endloop
endfacet
facet normal 7.495288891357121e-33 2.622822220745216e-32 1.0
  outer loop
    vertex 32.07691114835824 -13.046983728965566 3.150000000000002
    vertex 32.076911148358235 -23.10866241049203 3.150000000000002
    vertex 33.20756648898982 -21.63516368264254 3.150000000000002
  endloop
endfacet
facet normal 7.495288891357121e-33 2.622822220745216e-32 1.0
  outer loop
    vertex 32.07691114835824 -13.046983728965566 3.150000000000002
    vertex 33.20756648898982 -21.63516368264254 3.150000000000002
    vertex 33.20756648898982 -14.520482456815053 3.150000000000002
  endloop
endfacet
facet normal 7.495288891357121e-33 2.622822220745216e-32 1.0
  outer loop
    vertex 33.20756648898982 -14.520482456815053 3.150000000000002
    vertex 33.20756648898982 -21.63516368264254 3.150000000000002
    vertex 33.91832614943574 -19.9192380708063 3.150000000000002
  endloop
endfacet
facet normal 7.495288891357121e-33 2.622822220745216e-32 1.0
  outer loop
    vertex 33.20756648898982 -14.520482456815053 3.150000000000002
    vertex 33.91832614943574 -19.9192380708063 3.150000000000002
    vertex 33.91832614943574 -16.23640806865129 3.150000000000002
  endloop
endfacet
facet normal 7.495288891357121e-33 2.622822220745216e-32 1.0
  outer loop
    vertex 33.91832614943574 -16.23640806865129 3.150000000000002
    vertex 33.91832614943574 -19.9192380708063 3.150000000000002
    vertex 34.160753033422495 -18.077823069728794 3.150000000000002
  endloop
endfacet
facet normal 0.9914448613738069 -0.13052619222007808 0.0
  outer loop
    vertex 9.633394621465943 -17.534303075013494 1.5750000000000017
    vertex 9.56183885667297 -18.077823069728787 3.150000000000002
    vertex 9.56183885667297 -18.077823069728787 1.5750000000000017
  endloop
endfacet
facet normal 0.9914448613738069 -0.13052619222007808 0.0
  outer loop
    vertex 9.56183885667297 -18.077823069728787 3.150000000000002
    vertex 9.633394621465943 -17.534303075013494 1.5750000000000017
    vertex 9.633394621465943 -17.534303075013494 3.150000000000002
  endloop
endfacet
facet normal 0.3826834323650872 0.9238795325112878 0.0
  outer loop
    vertex 10.611838856672973 -19.89647641767612 3.150000000000002
    vertex 11.118318861957679 -20.106267304935837 1.5750000000000017
    vertex 10.611838856672973 -19.89647641767612 1.5750000000000017
  endloop
endfacet
facet normal 0.3826834323650872 0.9238795325112878 0.0
  outer loop
    vertex 11.118318861957679 -20.106267304935837 1.5750000000000017
    vertex 10.611838856672973 -19.89647641767612 3.150000000000002
    vertex 11.118318861957679 -20.106267304935837 3.150000000000002
  endloop
endfacet
facet normal -0.3826834323650907 -0.9238795325112865 0.0
  outer loop
    vertex 28.752247965747646 -14.559086395909976 3.150000000000002
    vertex 28.06517179768618 -14.27449012871558 -1.8499999999999983
    vertex 28.752247965747646 -14.559086395909976 -1.8499999999999983
  endloop
endfacet
facet normal -0.3826834323650907 -0.9238795325112865 0.0
  outer loop
    vertex 28.06517179768618 -14.27449012871558 -1.8499999999999983
    vertex 28.752247965747646 -14.559086395909976 3.150000000000002
    vertex 28.06517179768618 -14.27449012871558 3.150000000000002
  endloop
endfacet
facet normal 0.054224309020580785 0.9985287799113457 0.0
  outer loop
    vertex 11.661838856672965 -20.17782306972879 3.150000000000002
    vertex 24.261838856672977 -20.86205602065083 1.5750000000000017
    vertex 11.661838856672965 -20.17782306972879 1.5750000000000017
  endloop
endfacet
facet normal 0.054224309020580785 0.9985287799113457 0.0
  outer loop
    vertex 24.261838856672977 -20.86205602065083 1.5750000000000017
    vertex 11.661838856672965 -20.17782306972879 3.150000000000002
    vertex 24.261838856672977 -20.86205602065083 3.150000000000002
  endloop
endfacet
facet normal 0.7933533402912458 0.6087614290087069 0.0
  outer loop
    vertex 9.84318550872565 -19.12782306972879 1.5750000000000017
    vertex 10.176914616181211 -19.56274731022054 3.150000000000002
    vertex 10.176914616181211 -19.56274731022054 1.5750000000000017
  endloop
endfacet
facet normal 0.7933533402912458 0.6087614290087069 0.0
  outer loop
    vertex 10.176914616181211 -19.56274731022054 3.150000000000002
    vertex 9.84318550872565 -19.12782306972879 1.5750000000000017
    vertex 9.84318550872565 -19.12782306972879 3.150000000000002
  endloop
endfacet
facet normal -0.13052619222004855 -0.9914448613738109 0.0
  outer loop
    vertex 27.04607180759501 -25.192504295556272 3.150000000000002
    vertex 25.854727799829842 -25.035660881448216 -1.8499999999999983
    vertex 27.04607180759501 -25.192504295556272 -1.8499999999999983
  endloop
endfacet
facet normal -0.13052619222004855 -0.9914448613738109 0.0
  outer loop
    vertex 25.854727799829842 -25.035660881448216 -1.8499999999999983
    vertex 27.04607180759501 -25.192504295556272 3.150000000000002
    vertex 25.385854525177407 -24.973932543788244 -1.8499999999999983
  endloop
endfacet
facet normal -0.13052619222004855 -0.9914448613738109 0.0
  outer loop
    vertex 25.385854525177407 -24.973932543788244 -1.8499999999999983
    vertex 27.04607180759501 -25.192504295556272 3.150000000000002
    vertex 25.20465680651749 -24.950077411569527 -1.8499999999999983
  endloop
endfacet
facet normal -0.13052619222004855 -0.9914448613738109 0.0
  outer loop
    vertex 25.20465680651749 -24.950077411569527 -1.8499999999999983
    vertex 27.04607180759501 -25.192504295556272 3.150000000000002
    vertex 25.20465680651749 -24.950077411569527 3.150000000000002
  endloop
endfacet
facet normal -0.9914448613738082 -0.13052619222006887 0.0
  outer loop
    vertex 6.384657630845477 -18.077823069728776 3.150000000000002
    vertex 6.56447322063842 -19.443658075430434 -1.8499999999999983
    vertex 6.56447322063842 -19.443658075430434 3.150000000000002
  endloop
endfacet
facet normal -0.9914448613738082 -0.13052619222006887 0.0
  outer loop
    vertex 6.56447322063842 -19.443658075430434 -1.8499999999999983
    vertex 6.384657630845477 -18.077823069728776 3.150000000000002
    vertex 6.384657630845477 -18.077823069728776 -1.8499999999999983
  endloop
endfacet
facet normal -0.7933533402912174 0.6087614290087439 0.0
  outer loop
    vertex 7.930308226340041 -14.34629243939585 3.150000000000002
    vertex 7.091665854732056 -15.439232456815033 -1.8499999999999983
    vertex 7.091665854732056 -15.439232456815033 3.150000000000002
  endloop
endfacet
facet normal -0.7933533402912174 0.6087614290087439 0.0
  outer loop
    vertex 7.091665854732056 -15.439232456815033 -1.8499999999999983
    vertex 7.930308226340041 -14.34629243939585 3.150000000000002
    vertex 7.930308226340041 -14.34629243939585 -1.8499999999999983
  endloop
endfacet
facet normal -0.38268343236508856 -0.9238795325112873 0.0
  outer loop
    vertex 10.296003850971356 -23.17518870576336 3.150000000000002
    vertex 9.023248243759248 -22.647996071669702 -1.8499999999999983
    vertex 10.296003850971356 -23.17518870576336 -1.8499999999999983
  endloop
endfacet
facet normal -0.38268343236508856 -0.9238795325112873 0.0
  outer loop
    vertex 9.023248243759248 -22.647996071669702 -1.8499999999999983
    vertex 10.296003850971356 -23.17518870576336 3.150000000000002
    vertex 9.023248243759248 -22.647996071669702 3.150000000000002
  endloop
endfacet
facet normal 0.9914448613738105 -0.13052619222005196 -0.0
  outer loop
    vertex 34.160753033422495 -18.077823069728794 -1.8499999999999983
    vertex 33.91832614943574 -19.9192380708063 3.150000000000002
    vertex 33.91832614943574 -19.9192380708063 -1.8499999999999983
  endloop
endfacet
facet normal 0.9914448613738105 -0.13052619222005196 -0.0
  outer loop
    vertex 33.91832614943574 -19.9192380708063 3.150000000000002
    vertex 34.160753033422495 -18.077823069728794 -1.8499999999999983
    vertex 34.160753033422495 -18.077823069728794 3.150000000000002
  endloop
endfacet
facet normal -0.923879532511297 0.3826834323650655 0.0
  outer loop
    vertex 7.091665854732056 -15.439232456815033 3.150000000000002
    vertex 6.564473220638423 -16.711988064027175 -1.8499999999999983
    vertex 6.564473220638423 -16.711988064027175 3.150000000000002
  endloop
endfacet
facet normal -0.923879532511297 0.3826834323650655 0.0
  outer loop
    vertex 6.564473220638423 -16.711988064027175 -1.8499999999999983
    vertex 7.091665854732056 -15.439232456815033 3.150000000000002
    vertex 7.091665854732056 -15.439232456815033 -1.8499999999999983
  endloop
endfacet
facet normal -0.38268343236509544 -0.9238795325112846 0.0
  outer loop
    vertex 25.20465680651749 -24.950077411569527 3.150000000000002
    vertex 23.488731194681257 -24.239317751123597 -1.8499999999999983
    vertex 25.20465680651749 -24.950077411569527 -1.8499999999999983
  endloop
endfacet
facet normal -0.38268343236509544 -0.9238795325112846 0.0
  outer loop
    vertex 23.488731194681257 -24.239317751123597 -1.8499999999999983
    vertex 25.20465680651749 -24.950077411569527 3.150000000000002
    vertex 23.488731194681257 -24.239317751123597 3.150000000000002
  endloop
endfacet
facet normal -0.38268343236508434 0.9238795325112892 -0.0
  outer loop
    vertex 9.023248243759191 -13.507650067787887 3.150000000000002
    vertex 10.296003850971392 -12.980457433694198 -1.8499999999999983
    vertex 9.023248243759191 -13.507650067787887 -1.8499999999999983
  endloop
endfacet
facet normal -0.38268343236508434 0.9238795325112892 -0.0
  outer loop
    vertex 10.296003850971392 -12.980457433694198 -1.8499999999999983
    vertex 9.023248243759191 -13.507650067787887 3.150000000000002
    vertex 10.296003850971392 -12.980457433694198 3.150000000000002
  endloop
endfacet
facet normal -0.13052619222003398 0.9914448613738127 -0.0
  outer loop
    vertex 10.296003850971392 -12.980457433694198 3.150000000000002
    vertex 11.370429015968812 -12.839006677251557 -1.8499999999999983
    vertex 10.296003850971392 -12.980457433694198 -1.8499999999999983
  endloop
endfacet
facet normal -0.13052619222003398 0.9914448613738127 -0.0
  outer loop
    vertex 11.370429015968812 -12.839006677251557 -1.8499999999999983
    vertex 10.296003850971392 -12.980457433694198 3.150000000000002
    vertex 11.370429015968812 -12.839006677251557 3.150000000000002
  endloop
endfacet
facet normal -0.6087614290087457 0.793353340291216 -0.0
  outer loop
    vertex 7.930308226340041 -14.34629243939585 3.150000000000002
    vertex 9.023248243759191 -13.507650067787887 -1.8499999999999983
    vertex 7.930308226340041 -14.34629243939585 -1.8499999999999983
  endloop
endfacet
facet normal -0.6087614290087457 0.793353340291216 -0.0
  outer loop
    vertex 9.023248243759191 -13.507650067787887 -1.8499999999999983
    vertex 7.930308226340041 -14.34629243939585 3.150000000000002
    vertex 9.023248243759191 -13.507650067787887 3.150000000000002
  endloop
endfacet
facet normal -0.7933533402912463 -0.6087614290087062 0.0
  outer loop
    vertex 7.09166585473205 -20.716413682642496 3.150000000000002
    vertex 7.930308226339991 -21.809353700061727 -1.8499999999999983
    vertex 7.930308226339991 -21.809353700061727 3.150000000000002
  endloop
endfacet
facet normal -0.7933533402912463 -0.6087614290087062 0.0
  outer loop
    vertex 7.930308226339991 -21.809353700061727 -1.8499999999999983
    vertex 7.09166585473205 -20.716413682642496 3.150000000000002
    vertex 7.09166585473205 -20.716413682642496 -1.8499999999999983
  endloop
endfacet
facet normal -0.05422430902057999 0.9985287799113458 -0.0
  outer loop
    vertex 11.370429015968812 -12.839006677251557 3.150000000000002
    vertex 23.117630075087035 -12.201084292667844 -1.8499999999999983
    vertex 11.370429015968812 -12.839006677251557 -1.8499999999999983
  endloop
endfacet
facet normal -0.05422430902057999 0.9985287799113458 -0.0
  outer loop
    vertex 23.117630075087035 -12.201084292667844 -1.8499999999999983
    vertex 11.370429015968812 -12.839006677251557 3.150000000000002
    vertex 23.117630075087035 -12.201084292667844 3.150000000000002
  endloop
endfacet
facet normal -0.054224309020580924 -0.9985287799113458 0.0
  outer loop
    vertex 23.117630075087035 -23.954561846789748 3.150000000000002
    vertex 11.370429015968755 -23.31663946220602 -1.8499999999999983
    vertex 23.117630075087035 -23.954561846789748 -1.8499999999999983
  endloop
endfacet
facet normal -0.054224309020580924 -0.9985287799113458 0.0
  outer loop
    vertex 11.370429015968755 -23.31663946220602 -1.8499999999999983
    vertex 23.117630075087035 -23.954561846789748 3.150000000000002
    vertex 11.370429015968755 -23.31663946220602 3.150000000000002
  endloop
endfacet
facet normal -0.1305261922200519 -0.9914448613738105 0.0
  outer loop
    vertex 11.370429015968755 -23.31663946220602 3.150000000000002
    vertex 10.296003850971356 -23.17518870576336 -1.8499999999999983
    vertex 11.370429015968755 -23.31663946220602 -1.8499999999999983
  endloop
endfacet
facet normal -0.1305261922200519 -0.9914448613738105 0.0
  outer loop
    vertex 10.296003850971356 -23.17518870576336 -1.8499999999999983
    vertex 11.370429015968755 -23.31663946220602 3.150000000000002
    vertex 10.296003850971356 -23.17518870576336 3.150000000000002
  endloop
endfacet
facet normal -0.9238795325112892 -0.3826834323650839 0.0
  outer loop
    vertex 6.56447322063842 -19.443658075430434 3.150000000000002
    vertex 7.09166585473205 -20.716413682642496 -1.8499999999999983
    vertex 7.09166585473205 -20.716413682642496 3.150000000000002
  endloop
endfacet
facet normal -0.9238795325112892 -0.3826834323650839 0.0
  outer loop
    vertex 7.09166585473205 -20.716413682642496 -1.8499999999999983
    vertex 6.56447322063842 -19.443658075430434 3.150000000000002
    vertex 6.56447322063842 -19.443658075430434 -1.8499999999999983
  endloop
endfacet
facet normal -0.6087614290087134 -0.7933533402912407 0.0
  outer loop
    vertex 23.488731194681257 -24.239317751123597 3.150000000000002
    vertex 23.117630075087035 -23.954561846789748 -1.8499999999999983
    vertex 23.488731194681257 -24.239317751123597 -1.8499999999999983
  endloop
endfacet
facet normal -0.6087614290087134 -0.7933533402912407 0.0
  outer loop
    vertex 23.117630075087035 -23.954561846789748 -1.8499999999999983
    vertex 23.488731194681257 -24.239317751123597 3.150000000000002
    vertex 23.117630075087035 -23.954561846789748 3.150000000000002
  endloop
endfacet
facet normal -0.9914448613738073 0.13052619222007614 0.0
  outer loop
    vertex 6.564473220638423 -16.711988064027175 3.150000000000002
    vertex 6.384657630845477 -18.077823069728776 -1.8499999999999983
    vertex 6.384657630845477 -18.077823069728776 3.150000000000002
  endloop
endfacet
facet normal -0.9914448613738073 0.13052619222007614 0.0
  outer loop
    vertex 6.384657630845477 -18.077823069728776 -1.8499999999999983
    vertex 6.564473220638423 -16.711988064027175 3.150000000000002
    vertex 6.564473220638423 -16.711988064027175 -1.8499999999999983
  endloop
endfacet
facet normal -0.6087614290087138 -0.7933533402912404 0.0
  outer loop
    vertex 9.023248243759248 -22.647996071669702 3.150000000000002
    vertex 7.930308226339991 -21.809353700061727 -1.8499999999999983
    vertex 9.023248243759248 -22.647996071669702 -1.8499999999999983
  endloop
endfacet
facet normal -0.6087614290087138 -0.7933533402912404 0.0
  outer loop
    vertex 7.930308226339991 -21.809353700061727 -1.8499999999999983
    vertex 9.023248243759248 -22.647996071669702 3.150000000000002
    vertex 7.930308226339991 -21.809353700061727 3.150000000000002
  endloop
endfacet
facet normal -0.13052619222004969 0.9914448613738107 1.7355420920369946e-16
  outer loop
    vertex 25.2046568065175 -11.205568727888057 3.150000000000002
    vertex 26.851951583212067 -10.988698256273548 -1.8499999999999983
    vertex 25.2046568065175 -11.205568727888057 -1.8499999999999983
  endloop
endfacet
facet normal -0.13052619222004969 0.9914448613738107 1.7355420920369946e-16
  outer loop
    vertex 26.851951583212067 -10.988698256273548 -1.8499999999999983
    vertex 25.2046568065175 -11.205568727888057 3.150000000000002
    vertex 27.04607180759501 -10.963141843901312 -1.8499999999999983
  endloop
endfacet
facet normal -0.13052619222004969 0.9914448613738107 1.7355420920369946e-16
  outer loop
    vertex 27.04607180759501 -10.963141843901312 -1.8499999999999983
    vertex 25.2046568065175 -11.205568727888057 3.150000000000002
    vertex 27.04607180759501 -10.963141843901312 3.150000000000002
  endloop
endfacet
facet normal 0.38268343236507973 0.9238795325112911 -0.0
  outer loop
    vertex 29.957700777697664 -11.64886586849942 3.150000000000002
    vertex 30.60341242050876 -11.91632838833398 -1.8499999999999983
    vertex 29.957700777697664 -11.64886586849942 -1.8499999999999983
  endloop
endfacet
facet normal 0.38268343236507973 0.9238795325112911 -0.0
  outer loop
    vertex 30.60341242050876 -11.91632838833398 -1.8499999999999983
    vertex 29.957700777697664 -11.64886586849942 3.150000000000002
    vertex 30.60341242050876 -11.91632838833398 3.150000000000002
  endloop
endfacet
facet normal 0.38268343236509345 0.9238795325112854 -2.1414471170684796e-18
  outer loop
    vertex 25.077321807595006 -21.487798097130018 3.150000000000002
    vertex 26.02697181750382 -21.881156010742 -1.8499999999999983
    vertex 25.077321807595006 -21.487798097130018 -1.8499999999999983
  endloop
endfacet
facet normal 0.38268343236509345 0.9238795325112854 -2.1414471170684796e-18
  outer loop
    vertex 26.02697181750382 -21.881156010742 -1.8499999999999983
    vertex 25.077321807595006 -21.487798097130018 3.150000000000002
    vertex 26.02697181750382 -21.881156010742 3.150000000000002
  endloop
endfacet
facet normal 0.7933533402912339 -0.6087614290087225 -0.0
  outer loop
    vertex 33.20756648898982 -21.63516368264254 -1.8499999999999983
    vertex 32.076911148358235 -23.10866241049203 3.150000000000002
    vertex 32.076911148358235 -23.10866241049203 -1.8499999999999983
  endloop
endfacet
facet normal 0.7933533402912339 -0.6087614290087225 -0.0
  outer loop
    vertex 32.076911148358235 -23.10866241049203 3.150000000000002
    vertex 33.20756648898982 -21.63516368264254 -1.8499999999999983
    vertex 33.20756648898982 -21.63516368264254 3.150000000000002
  endloop
endfacet
facet normal -0.3826834323650916 0.923879532511286 -0.0
  outer loop
    vertex 24.134442837492344 -11.64886586849942 3.150000000000002
    vertex 25.2046568065175 -11.205568727888057 -1.8499999999999983
    vertex 24.134442837492344 -11.64886586849942 -1.8499999999999983
  endloop
endfacet
facet normal -0.3826834323650916 0.923879532511286 -0.0
  outer loop
    vertex 25.2046568065175 -11.205568727888057 -1.8499999999999983
    vertex 24.134442837492344 -11.64886586849942 3.150000000000002
    vertex 25.2046568065175 -11.205568727888057 3.150000000000002
  endloop
endfacet
facet normal -0.9238795325112862 0.3826834323650915 -7.346884946644451e-32
  outer loop
    vertex 30.849404748608208 -19.09692305981998 3.150000000000002
    vertex 30.45604683499623 -20.046573069728797 -1.8499999999999983
    vertex 30.45604683499623 -20.046573069728797 3.150000000000002
  endloop
endfacet
facet normal -0.9238795325112862 0.3826834323650915 -7.346884946644451e-32
  outer loop
    vertex 30.45604683499623 -20.046573069728797 -1.8499999999999983
    vertex 30.849404748608208 -19.09692305981998 3.150000000000002
    vertex 30.849404748608208 -19.09692305981998 -1.8499999999999983
  endloop
endfacet
facet normal 0.13052619222005 0.9914448613738107 8.159892712508605e-17
  outer loop
    vertex 27.04607180759501 -10.963141843901312 3.150000000000002
    vertex 28.579565322523987 -11.165030095175782 -1.8499999999999983
    vertex 27.04607180759501 -10.963141843901312 -1.8499999999999983
  endloop
endfacet
facet normal 0.13052619222005 0.9914448613738107 8.159892712508605e-17
  outer loop
    vertex 28.579565322523987 -11.165030095175782 -1.8499999999999983
    vertex 27.04607180759501 -10.963141843901312 3.150000000000002
    vertex 28.887486808672502 -11.205568727888057 -1.8499999999999983
  endloop
endfacet
facet normal 0.13052619222005 0.9914448613738107 8.159892712508605e-17
  outer loop
    vertex 28.887486808672502 -11.205568727888057 -1.8499999999999983
    vertex 27.04607180759501 -10.963141843901312 3.150000000000002
    vertex 28.887486808672502 -11.205568727888057 3.150000000000002
  endloop
endfacet
facet normal 0.13052619222004916 0.9914448613738107 -1.3869993841905798e-18
  outer loop
    vertex 26.02697181750382 -21.881156010742 3.150000000000002
    vertex 26.840336836569087 -21.98823754695216 -1.8499999999999983
    vertex 26.02697181750382 -21.881156010742 -1.8499999999999983
  endloop
endfacet
facet normal 0.13052619222004916 0.9914448613738107 -1.3869993841905798e-18
  outer loop
    vertex 26.840336836569087 -21.98823754695216 -1.8499999999999983
    vertex 26.02697181750382 -21.881156010742 3.150000000000002
    vertex 27.046071807595002 -22.01532306972879 -1.8499999999999983
  endloop
endfacet
facet normal 0.13052619222004916 0.9914448613738107 -1.3869993841905798e-18
  outer loop
    vertex 27.046071807595002 -22.01532306972879 -1.8499999999999983
    vertex 26.02697181750382 -21.881156010742 3.150000000000002
    vertex 27.046071807595002 -22.01532306972879 3.150000000000002
  endloop
endfacet
facet normal -0.9914448613738098 0.1305261922200569 5.189859083454917e-33
  outer loop
    vertex 30.98357180759501 -18.077823069728794 3.150000000000002
    vertex 30.849404748608208 -19.09692305981998 -1.8499999999999983
    vertex 30.849404748608208 -19.09692305981998 3.150000000000002
  endloop
endfacet
facet normal -0.9914448613738098 0.1305261922200569 5.189859083454917e-33
  outer loop
    vertex 30.849404748608208 -19.09692305981998 -1.8499999999999983
    vertex 30.98357180759501 -18.077823069728794 3.150000000000002
    vertex 30.98357180759501 -18.077823069728794 -1.8499999999999983
  endloop
endfacet
facet normal 0.7933533402912347 0.6087614290087213 -0.0
  outer loop
    vertex 32.07691114835824 -13.046983728965566 -1.8499999999999983
    vertex 33.20756648898982 -14.520482456815053 3.150000000000002
    vertex 33.20756648898982 -14.520482456815053 -1.8499999999999983
  endloop
endfacet
facet normal 0.7933533402912347 0.6087614290087213 -0.0
  outer loop
    vertex 33.20756648898982 -14.520482456815053 3.150000000000002
    vertex 32.07691114835824 -13.046983728965566 -1.8499999999999983
    vertex 32.07691114835824 -13.046983728965566 3.150000000000002
  endloop
endfacet
facet normal -0.38268343236508834 0.9238795325112875 -0.0
  outer loop
    vertex 23.48873119468126 -11.91632838833398 3.150000000000002
    vertex 24.134442837492344 -11.64886586849942 -1.8499999999999983
    vertex 23.48873119468126 -11.91632838833398 -1.8499999999999983
  endloop
endfacet
facet normal -0.38268343236508834 0.9238795325112875 -0.0
  outer loop
    vertex 24.134442837492344 -11.64886586849942 -1.8499999999999983
    vertex 23.48873119468126 -11.91632838833398 3.150000000000002
    vertex 24.134442837492344 -11.64886586849942 3.150000000000002
  endloop
endfacet
facet normal 0.6087614290087254 0.7933533402912317 -0.0
  outer loop
    vertex 30.60341242050876 -11.91632838833398 3.150000000000002
    vertex 32.07691114835824 -13.046983728965566 -1.8499999999999983
    vertex 30.60341242050876 -11.91632838833398 -1.8499999999999983
  endloop
endfacet
facet normal 0.6087614290087254 0.7933533402912317 -0.0
  outer loop
    vertex 32.07691114835824 -13.046983728965566 -1.8499999999999983
    vertex 30.60341242050876 -11.91632838833398 3.150000000000002
    vertex 32.07691114835824 -13.046983728965566 3.150000000000002
  endloop
endfacet
facet normal 0.38268343236509084 0.9238795325112863 -0.0
  outer loop
    vertex 28.887486808672502 -11.205568727888057 3.150000000000002
    vertex 29.957700777697664 -11.64886586849942 -1.8499999999999983
    vertex 28.887486808672502 -11.205568727888057 -1.8499999999999983
  endloop
endfacet
facet normal 0.38268343236509084 0.9238795325112863 -0.0
  outer loop
    vertex 29.957700777697664 -11.64886586849942 -1.8499999999999983
    vertex 28.887486808672502 -11.205568727888057 3.150000000000002
    vertex 29.957700777697664 -11.64886586849942 3.150000000000002
  endloop
endfacet
facet normal 0.9238795325112868 0.3826834323650897 -0.0
  outer loop
    vertex 33.20756648898982 -14.520482456815053 -1.8499999999999983
    vertex 33.91832614943574 -16.23640806865129 3.150000000000002
    vertex 33.91832614943574 -16.23640806865129 -1.8499999999999983
  endloop
endfacet
facet normal 0.9238795325112868 0.3826834323650897 -0.0
  outer loop
    vertex 33.91832614943574 -16.23640806865129 3.150000000000002
    vertex 33.20756648898982 -14.520482456815053 -1.8499999999999983
    vertex 33.20756648898982 -14.520482456815053 3.150000000000002
  endloop
endfacet
facet normal 0.6087614290087197 -0.7933533402912362 0.0
  outer loop
    vertex 32.076911148358235 -23.10866241049203 3.150000000000002
    vertex 30.603412420508743 -24.239317751123608 -1.8499999999999983
    vertex 32.076911148358235 -23.10866241049203 -1.8499999999999983
  endloop
endfacet
facet normal 0.6087614290087197 -0.7933533402912362 0.0
  outer loop
    vertex 30.603412420508743 -24.239317751123608 -1.8499999999999983
    vertex 32.076911148358235 -23.10866241049203 3.150000000000002
    vertex 30.603412420508743 -24.239317751123608 3.150000000000002
  endloop
endfacet
facet normal -0.6087614290087268 0.7933533402912307 -0.0
  outer loop
    vertex 23.117630075087035 -12.201084292667844 3.150000000000002
    vertex 23.48873119468126 -11.91632838833398 -1.8499999999999983
    vertex 23.117630075087035 -12.201084292667844 -1.8499999999999983
  endloop
endfacet
facet normal -0.6087614290087268 0.7933533402912307 -0.0
  outer loop
    vertex 23.48873119468126 -11.91632838833398 -1.8499999999999983
    vertex 23.117630075087035 -12.201084292667844 3.150000000000002
    vertex 23.48873119468126 -11.91632838833398 3.150000000000002
  endloop
endfacet
facet normal 0.608761429008717 0.7933533402912379 -5.140250332429033e-18
  outer loop
    vertex 24.261838856672977 -20.86205602065083 1.5750000000000017
    vertex 25.077321807595006 -21.487798097130018 -1.8499999999999983
    vertex 24.261838856672977 -20.86205602065083 -1.8499999999999983
  endloop
endfacet
facet normal 0.608761429008717 0.7933533402912379 -5.140250332429033e-18
  outer loop
    vertex 25.077321807595006 -21.487798097130018 -1.8499999999999983
    vertex 24.261838856672977 -20.86205602065083 1.5750000000000017
    vertex 25.077321807595006 -21.487798097130018 3.150000000000002
  endloop
endfacet
facet normal 0.608761429008717 0.7933533402912379 -5.140250332429033e-18
  outer loop
    vertex 25.077321807595006 -21.487798097130018 3.150000000000002
    vertex 24.261838856672977 -20.86205602065083 1.5750000000000017
    vertex 24.261838856672977 -20.86205602065083 3.150000000000002
  endloop
endfacet
facet normal -0.6087614290087193 0.7933533402912363 3.154456564976762e-32
  outer loop
    vertex 29.014821807595006 -21.487798097130025 3.150000000000002
    vertex 29.830304758517038 -20.86205602065083 -1.8499999999999983
    vertex 29.014821807595006 -21.487798097130025 -1.8499999999999983
  endloop
endfacet
facet normal -0.6087614290087193 0.7933533402912363 3.154456564976762e-32
  outer loop
    vertex 29.830304758517038 -20.86205602065083 -1.8499999999999983
    vertex 29.014821807595006 -21.487798097130025 3.150000000000002
    vertex 29.830304758517038 -20.86205602065083 3.150000000000002
  endloop
endfacet
facet normal 0.9914448613738103 0.13052619222005252 -0.0
  outer loop
    vertex 33.91832614943574 -16.23640806865129 -1.8499999999999983
    vertex 34.160753033422495 -18.077823069728794 3.150000000000002
    vertex 34.160753033422495 -18.077823069728794 -1.8499999999999983
  endloop
endfacet
facet normal 0.9914448613738103 0.13052619222005252 -0.0
  outer loop
    vertex 34.160753033422495 -18.077823069728794 3.150000000000002
    vertex 33.91832614943574 -16.23640806865129 -1.8499999999999983
    vertex 33.91832614943574 -16.23640806865129 3.150000000000002
  endloop
endfacet
facet normal 0.9238795325112868 -0.38268343236508967 -0.0
  outer loop
    vertex 33.91832614943574 -19.9192380708063 -1.8499999999999983
    vertex 33.20756648898982 -21.63516368264254 3.150000000000002
    vertex 33.20756648898982 -21.63516368264254 -1.8499999999999983
  endloop
endfacet
facet normal 0.9238795325112868 -0.38268343236508967 -0.0
  outer loop
    vertex 33.20756648898982 -21.63516368264254 3.150000000000002
    vertex 33.91832614943574 -19.9192380708063 -1.8499999999999983
    vertex 33.91832614943574 -19.9192380708063 3.150000000000002
  endloop
endfacet
facet normal -0.382683432365095 -0.9238795325112846 -1.0707235585342722e-18
  outer loop
    vertex 29.014821807595006 -14.667848042327563 3.150000000000002
    vertex 28.752247965747646 -14.559086395909976 -1.8499999999999983
    vertex 29.014821807595006 -14.667848042327563 -1.8499999999999983
  endloop
endfacet
facet normal -0.382683432365095 -0.9238795325112846 -1.0707235585342722e-18
  outer loop
    vertex 28.752247965747646 -14.559086395909976 -1.8499999999999983
    vertex 29.014821807595006 -14.667848042327563 3.150000000000002
    vertex 28.752247965747646 -14.559086395909976 3.150000000000002
  endloop
endfacet
facet normal -0.38268343236508295 0.9238795325112897 -0.0
  outer loop
    vertex 28.065171797686173 -21.881156010742 3.150000000000002
    vertex 29.014821807595006 -21.487798097130025 -1.8499999999999983
    vertex 28.065171797686173 -21.881156010742 -1.8499999999999983
  endloop
endfacet
facet normal -0.38268343236508295 0.9238795325112897 -0.0
  outer loop
    vertex 29.014821807595006 -21.487798097130025 -1.8499999999999983
    vertex 28.065171797686173 -21.881156010742 3.150000000000002
    vertex 29.014821807595006 -21.487798097130025 3.150000000000002
  endloop
endfacet
facet normal 0.3826834323650876 -0.9238795325112878 0.0
  outer loop
    vertex 30.603412420508743 -24.239317751123608 3.150000000000002
    vertex 28.887486808672495 -24.950077411569527 -1.8499999999999983
    vertex 30.603412420508743 -24.239317751123608 -1.8499999999999983
  endloop
endfacet
facet normal 0.3826834323650876 -0.9238795325112878 0.0
  outer loop
    vertex 28.887486808672495 -24.950077411569527 -1.8499999999999983
    vertex 30.603412420508743 -24.239317751123608 3.150000000000002
    vertex 28.887486808672495 -24.950077411569527 3.150000000000002
  endloop
endfacet
facet normal 0.13052619222005055 -0.9914448613738107 0.0
  outer loop
    vertex 28.887486808672495 -24.950077411569527 3.150000000000002
    vertex 27.04607180759501 -25.192504295556272 -1.8499999999999983
    vertex 28.887486808672495 -24.950077411569527 -1.8499999999999983
  endloop
endfacet
facet normal 0.13052619222005055 -0.9914448613738107 0.0
  outer loop
    vertex 27.04607180759501 -25.192504295556272 -1.8499999999999983
    vertex 28.887486808672495 -24.950077411569527 3.150000000000002
    vertex 27.04607180759501 -25.192504295556272 3.150000000000002
  endloop
endfacet
facet normal -0.13052619222005063 0.9914448613738107 -1.3869993841905802e-18
  outer loop
    vertex 27.046071807595002 -22.01532306972879 3.150000000000002
    vertex 28.065171797686173 -21.881156010742 -1.8499999999999983
    vertex 27.046071807595002 -22.01532306972879 -1.8499999999999983
  endloop
endfacet
facet normal -0.13052619222005063 0.9914448613738107 -1.3869993841905802e-18
  outer loop
    vertex 28.065171797686173 -21.881156010742 -1.8499999999999983
    vertex 27.046071807595002 -22.01532306972879 3.150000000000002
    vertex 28.065171797686173 -21.881156010742 3.150000000000002
  endloop
endfacet
facet normal -0.9238795325112881 -0.3826834323650868 0.0
  outer loop
    vertex 30.45604683499623 -16.109073069728794 3.150000000000002
    vertex 30.8494047486082 -17.058723079637616 -1.8499999999999983
    vertex 30.8494047486082 -17.058723079637616 3.150000000000002
  endloop
endfacet
facet normal -0.9238795325112881 -0.3826834323650868 0.0
  outer loop
    vertex 30.8494047486082 -17.058723079637616 -1.8499999999999983
    vertex 30.45604683499623 -16.109073069728794 3.150000000000002
    vertex 30.45604683499623 -16.109073069728794 -1.8499999999999983
  endloop
endfacet
facet normal -0.7933533402912377 0.6087614290087177 4.439502940807994e-18
  outer loop
    vertex 30.45604683499623 -20.046573069728797 3.150000000000002
    vertex 29.830304758517038 -20.86205602065083 -1.8499999999999983
    vertex 29.830304758517038 -20.86205602065083 3.150000000000002
  endloop
endfacet
facet normal -0.7933533402912377 0.6087614290087177 4.439502940807994e-18
  outer loop
    vertex 29.830304758517038 -20.86205602065083 -1.8499999999999983
    vertex 30.45604683499623 -20.046573069728797 3.150000000000002
    vertex 30.45604683499623 -20.046573069728797 -1.8499999999999983
  endloop
endfacet
facet normal -0.9914448613738089 -0.13052619222006337 1.386999384190538e-18
  outer loop
    vertex 30.8494047486082 -17.058723079637616 3.150000000000002
    vertex 30.98357180759501 -18.077823069728794 -1.8499999999999983
    vertex 30.98357180759501 -18.077823069728794 3.150000000000002
  endloop
endfacet
facet normal -0.9914448613738089 -0.13052619222006337 1.386999384190538e-18
  outer loop
    vertex 30.98357180759501 -18.077823069728794 -1.8499999999999983
    vertex 30.8494047486082 -17.058723079637616 3.150000000000002
    vertex 30.8494047486082 -17.058723079637616 -1.8499999999999983
  endloop
endfacet
facet normal -0.7933533402912396 -0.6087614290087149 4.4395029408080055e-18
  outer loop
    vertex 29.830304758517038 -15.293590118806758 3.150000000000002
    vertex 30.45604683499623 -16.109073069728794 -1.8499999999999983
    vertex 30.45604683499623 -16.109073069728794 3.150000000000002
  endloop
endfacet
facet normal -0.7933533402912396 -0.6087614290087149 4.4395029408080055e-18
  outer loop
    vertex 30.45604683499623 -16.109073069728794 -1.8499999999999983
    vertex 29.830304758517038 -15.293590118806758 3.150000000000002
    vertex 29.830304758517038 -15.293590118806758 -1.8499999999999983
  endloop
endfacet
endsolid Untitled-5a1a0f9a
