solid Untitled-5a1a0d5e
facet normal 0.9914448613738104 -0.13052619222005185 0.0
  outer loop
    vertex 23.242738866581803 -17.058723079637613 0.0
    vertex 23.108571807595006 -18.077823069728787 1.5750000000000017
    vertex 23.108571807595006 -18.077823069728787 0.0
  endloop
endfacet
facet normal 0.9914448613738104 -0.13052619222005185 0.0
  outer loop
    vertex 23.108571807595006 -18.077823069728787 1.5750000000000017
    vertex 23.242738866581803 -17.058723079637613 0.0
    vertex 23.242738866581803 -17.058723079637613 1.5750000000000017
  endloop
endfacet
facet normal 0.9914448613738106 0.1305261922200515 0.0
  outer loop
    vertex 23.108571807595006 -18.077823069728787 0.0
    vertex 23.242738866581803 -19.096923059819975 1.5750000000000017
    vertex 23.242738866581803 -19.096923059819975 0.0
  endloop
endfacet
facet normal 0.9914448613738106 0.1305261922200515 0.0
  outer loop
    vertex 23.242738866581803 -19.096923059819975 1.5750000000000017
    vertex 23.108571807595006 -18.077823069728787 0.0
    vertex 23.108571807595006 -18.077823069728787 1.5750000000000017
  endloop
endfacet
facet normal 0.7933533402912358 0.6087614290087198 3.4188095150192324e-18
  outer loop
    vertex 23.63609678019378 -20.046573069728794 0.0
    vertex 24.261838856672977 -20.86205602065083 1.5750000000000017
    vertex 24.261838856672977 -20.86205602065083 1.4804824033376461e-15
  endloop
endfacet
facet normal 0.7933533402912358 0.6087614290087198 3.4188095150192324e-18
  outer loop
    vertex 24.261838856672977 -20.86205602065083 1.5750000000000017
    vertex 23.63609678019378 -20.046573069728794 0.0
    vertex 23.63609678019378 -20.046573069728794 1.5750000000000017
  endloop
endfacet
facet normal 0.38268343236509167 -0.9238795325112861 0.0
  outer loop
    vertex 25.339895649442376 -14.559086395909976 3.150000000000002
    vertex 25.07732180759501 -14.667848042327563 1.4804824033376461e-15
    vertex 25.339895649442376 -14.559086395909976 1.4804824033376461e-15
  endloop
endfacet
facet normal 0.38268343236509167 -0.9238795325112861 0.0
  outer loop
    vertex 25.07732180759501 -14.667848042327563 1.4804824033376461e-15
    vertex 25.339895649442376 -14.559086395909976 3.150000000000002
    vertex 25.07732180759501 -14.667848042327563 3.150000000000002
  endloop
endfacet
facet normal 0.9238795325112871 0.3826834323650894 0.0
  outer loop
    vertex 23.242738866581803 -19.096923059819975 0.0
    vertex 23.63609678019378 -20.046573069728794 1.5750000000000017
    vertex 23.63609678019378 -20.046573069728794 0.0
  endloop
endfacet
facet normal 0.9238795325112871 0.3826834323650894 0.0
  outer loop
    vertex 23.63609678019378 -20.046573069728794 1.5750000000000017
    vertex 23.242738866581803 -19.096923059819975 0.0
    vertex 23.242738866581803 -19.096923059819975 1.5750000000000017
  endloop
endfacet
facet normal 0.9238795325112854 -0.38268343236509306 0.0
  outer loop
    vertex 23.636096780193782 -16.10907306972879 0.0
    vertex 23.242738866581803 -17.058723079637613 1.5750000000000017
    vertex 23.242738866581803 -17.058723079637613 0.0
  endloop
endfacet
facet normal 0.9238795325112854 -0.38268343236509306 0.0
  outer loop
    vertex 23.242738866581803 -17.058723079637613 1.5750000000000017
    vertex 23.636096780193782 -16.10907306972879 0.0
    vertex 23.636096780193782 -16.10907306972879 1.5750000000000017
  endloop
endfacet
facet normal 0.9238795325112974 -0.38268343236506436 0.0
  outer loop
    vertex 9.843185508725648 -17.027823069728782 1.5750000000000017
    vertex 9.633394621465943 -17.534303075013494 3.150000000000002
    vertex 9.633394621465943 -17.534303075013494 1.5750000000000017
  endloop
endfacet
facet normal 0.9238795325112974 -0.38268343236506436 0.0
  outer loop
    vertex 9.633394621465943 -17.534303075013494 3.150000000000002
    vertex 9.843185508725648 -17.027823069728782 1.5750000000000017
    vertex 9.843185508725648 -17.027823069728782 3.150000000000002
  endloop
endfacet
facet normal 0.0 0.0 1.0
  outer loop
    vertex 9.63339462146594 -18.621343064444087 1.5750000000000017
    vertex 9.633394621465943 -17.534303075013494 1.5750000000000017
    vertex 9.56183885667297 -18.077823069728787 1.5750000000000017
  endloop
endfacet
facet normal 0.0 0.0 1.0
  outer loop
    vertex 9.633394621465943 -17.534303075013494 1.5750000000000017
    vertex 9.63339462146594 -18.621343064444087 1.5750000000000017
    vertex 9.84318550872565 -19.12782306972879 1.5750000000000017
  endloop
endfacet
facet normal 0.0 0.0 1.0
  outer loop
    vertex 9.633394621465943 -17.534303075013494 1.5750000000000017
    vertex 9.84318550872565 -19.12782306972879 1.5750000000000017
    vertex 9.843185508725648 -17.027823069728782 1.5750000000000017
  endloop
endfacet
facet normal 0.0 0.0 1.0
  outer loop
    vertex 9.843185508725648 -17.027823069728782 1.5750000000000017
    vertex 9.84318550872565 -19.12782306972879 1.5750000000000017
    vertex 10.176914616181234 -16.592898829237036 1.5750000000000017
  endloop
endfacet
facet normal 0.0 0.0 1.0
  outer loop
    vertex 10.176914616181234 -16.592898829237036 1.5750000000000017
    vertex 9.84318550872565 -19.12782306972879 1.5750000000000017
    vertex 10.176914616181211 -19.56274731022054 1.5750000000000017
  endloop
endfacet
facet normal 0.0 0.0 1.0
  outer loop
    vertex 10.176914616181234 -16.592898829237036 1.5750000000000017
    vertex 10.176914616181211 -19.56274731022054 1.5750000000000017
    vertex 10.611838856672973 -19.89647641767612 1.5750000000000017
  endloop
endfacet
facet normal 0.0 0.0 1.0
  outer loop
    vertex 10.176914616181234 -16.592898829237036 1.5750000000000017
    vertex 10.611838856672973 -19.89647641767612 1.5750000000000017
    vertex 10.611838856672971 -16.259169721781454 1.5750000000000017
  endloop
endfacet
facet normal 0.0 0.0 1.0
  outer loop
    vertex 10.611838856672971 -16.259169721781454 1.5750000000000017
    vertex 10.611838856672973 -19.89647641767612 1.5750000000000017
    vertex 11.118318861957677 -16.049378834521736 1.5750000000000017
  endloop
endfacet
facet normal 0.0 0.0 1.0
  outer loop
    vertex 11.118318861957677 -16.049378834521736 1.5750000000000017
    vertex 10.611838856672973 -19.89647641767612 1.5750000000000017
    vertex 11.118318861957679 -20.106267304935837 1.5750000000000017
  endloop
endfacet
facet normal 0.0 0.0 1.0
  outer loop
    vertex 11.118318861957677 -16.049378834521736 1.5750000000000017
    vertex 11.118318861957679 -20.106267304935837 1.5750000000000017
    vertex 11.661838856672986 -15.977823069728787 1.5750000000000017
  endloop
endfacet
facet normal 0.0 0.0 1.0
  outer loop
    vertex 11.661838856672986 -15.977823069728787 1.5750000000000017
    vertex 11.118318861957679 -20.106267304935837 1.5750000000000017
    vertex 11.661838856672965 -20.17782306972879 1.5750000000000017
  endloop
endfacet
facet normal 0.0 0.0 1.0
  outer loop
    vertex 11.661838856672986 -15.977823069728787 1.5750000000000017
    vertex 11.661838856672965 -20.17782306972879 1.5750000000000017
    vertex 24.261838856672977 -20.86205602065083 1.5750000000000017
  endloop
endfacet
facet normal 0.0 0.0 1.0
  outer loop
    vertex 11.661838856672986 -15.977823069728787 1.5750000000000017
    vertex 24.261838856672977 -20.86205602065083 1.5750000000000017
    vertex 23.63609678019378 -20.046573069728794 1.5750000000000017
  endloop
endfacet
facet normal 0.0 0.0 1.0
  outer loop
    vertex 11.661838856672986 -15.977823069728787 1.5750000000000017
    vertex 23.63609678019378 -20.046573069728794 1.5750000000000017
    vertex 23.242738866581803 -19.096923059819975 1.5750000000000017
  endloop
endfacet
facet normal 0.0 0.0 1.0
  outer loop
    vertex 11.661838856672986 -15.977823069728787 1.5750000000000017
    vertex 23.242738866581803 -19.096923059819975 1.5750000000000017
    vertex 23.108571807595006 -18.077823069728787 1.5750000000000017
  endloop
endfacet
facet normal 0.0 0.0 1.0
  outer loop
    vertex 11.661838856672986 -15.977823069728787 1.5750000000000017
    vertex 23.636096780193782 -16.10907306972879 1.5750000000000017
    vertex 24.261838856672977 -15.293590118806758 1.5750000000000017
  endloop
endfacet
facet normal 0.0 0.0 1.0
  outer loop
    vertex 23.636096780193782 -16.10907306972879 1.5750000000000017
    vertex 11.661838856672986 -15.977823069728787 1.5750000000000017
    vertex 23.242738866581803 -17.058723079637613 1.5750000000000017
  endloop
endfacet
facet normal 0.0 0.0 1.0
  outer loop
    vertex 23.242738866581803 -17.058723079637613 1.5750000000000017
    vertex 11.661838856672986 -15.977823069728787 1.5750000000000017
    vertex 23.108571807595006 -18.077823069728787 1.5750000000000017
  endloop
endfacet
facet normal 0.6087614290087201 -0.7933533402912357 0.0
  outer loop
    vertex 25.07732180759501 -14.667848042327563 3.150000000000002
    vertex 24.261838856672977 -15.293590118806758 1.4804824033376461e-15
    vertex 25.07732180759501 -14.667848042327563 1.4804824033376461e-15
  endloop
endfacet
facet normal 0.6087614290087201 -0.7933533402912357 0.0
  outer loop
    vertex 24.261838856672977 -15.293590118806758 1.4804824033376461e-15
    vertex 25.07732180759501 -14.667848042327563 3.150000000000002
    vertex 24.261838856672977 -15.293590118806758 1.5750000000000017
  endloop
endfacet
facet normal 0.6087614290087201 -0.7933533402912357 0.0
  outer loop
    vertex 24.261838856672977 -15.293590118806758 1.5750000000000017
    vertex 25.07732180759501 -14.667848042327563 3.150000000000002
    vertex 24.261838856672977 -15.293590118806758 3.150000000000002
  endloop
endfacet
facet normal -0.6087614290087219 -0.7933533402912344 0.0
  outer loop
    vertex 29.830304758517038 -15.293590118806758 3.150000000000002
    vertex 29.014821807595006 -14.667848042327563 1.4804824033376461e-15
    vertex 29.830304758517038 -15.293590118806758 1.4804824033376461e-15
  endloop
endfacet
facet normal -0.6087614290087219 -0.7933533402912344 0.0
  outer loop
    vertex 29.014821807595006 -14.667848042327563 1.4804824033376461e-15
    vertex 29.830304758517038 -15.293590118806758 3.150000000000002
    vertex 29.014821807595006 -14.667848042327563 3.150000000000002
  endloop
endfacet
facet normal 0.38268343236508423 -0.923879532511289 0.0
  outer loop
    vertex 11.118318861957677 -16.049378834521736 3.150000000000002
    vertex 10.611838856672971 -16.259169721781454 1.5750000000000017
    vertex 11.118318861957677 -16.049378834521736 1.5750000000000017
  endloop
endfacet
facet normal 0.38268343236508423 -0.923879532511289 0.0
  outer loop
    vertex 10.611838856672971 -16.259169721781454 1.5750000000000017
    vertex 11.118318861957677 -16.049378834521736 3.150000000000002
    vertex 10.611838856672971 -16.259169721781454 3.150000000000002
  endloop
endfacet
facet normal 0.793353340291236 -0.6087614290087197 3.418809515019151e-18
  outer loop
    vertex 24.261838856672977 -15.293590118806758 1.4804824033376461e-15
    vertex 23.636096780193782 -16.10907306972879 1.5750000000000017
    vertex 23.636096780193782 -16.10907306972879 0.0
  endloop
endfacet
facet normal 0.793353340291236 -0.6087614290087197 3.418809515019151e-18
  outer loop
    vertex 23.636096780193782 -16.10907306972879 1.5750000000000017
    vertex 24.261838856672977 -15.293590118806758 1.4804824033376461e-15
    vertex 24.261838856672977 -15.293590118806758 1.5750000000000017
  endloop
endfacet
facet normal -0.13052619222005019 -0.9914448613738107 0.0
  outer loop
    vertex 28.06517179768618 -14.27449012871558 3.150000000000002
    vertex 27.555621802640587 -14.207406599222185 1.4804824033376461e-15
    vertex 28.06517179768618 -14.27449012871558 1.4804824033376461e-15
  endloop
endfacet
facet normal -0.13052619222005019 -0.9914448613738107 0.0
  outer loop
    vertex 27.555621802640587 -14.207406599222185 1.4804824033376461e-15
    vertex 28.06517179768618 -14.27449012871558 3.150000000000002
    vertex 27.04607180759501 -14.140323069728788 1.4804824033376461e-15
  endloop
endfacet
facet normal -0.13052619222005019 -0.9914448613738107 0.0
  outer loop
    vertex 27.04607180759501 -14.140323069728788 1.4804824033376461e-15
    vertex 28.06517179768618 -14.27449012871558 3.150000000000002
    vertex 27.04607180759501 -14.140323069728788 3.150000000000002
  endloop
endfacet
facet normal 0.13052619222003073 -0.9914448613738133 0.0
  outer loop
    vertex 11.661838856672986 -15.977823069728787 3.150000000000002
    vertex 11.118318861957677 -16.049378834521736 1.5750000000000017
    vertex 11.661838856672986 -15.977823069728787 1.5750000000000017
  endloop
endfacet
facet normal 0.13052619222003073 -0.9914448613738133 0.0
  outer loop
    vertex 11.118318861957677 -16.049378834521736 1.5750000000000017
    vertex 11.661838856672986 -15.977823069728787 3.150000000000002
    vertex 11.118318861957677 -16.049378834521736 3.150000000000002
  endloop
endfacet
facet normal 0.130526192220051 -0.9914448613738105 0.0
  outer loop
    vertex 27.04607180759501 -14.140323069728788 3.150000000000002
    vertex 26.026971817503835 -14.27449012871558 1.4804824033376461e-15
    vertex 27.04607180759501 -14.140323069728788 1.4804824033376461e-15
  endloop
endfacet
facet normal 0.130526192220051 -0.9914448613738105 0.0
  outer loop
    vertex 26.026971817503835 -14.27449012871558 1.4804824033376461e-15
    vertex 27.04607180759501 -14.140323069728788 3.150000000000002
    vertex 26.026971817503835 -14.27449012871558 3.150000000000002
  endloop
endfacet
facet normal 0.13052619222005288 0.9914448613738103 0.0
  outer loop
    vertex 11.118318861957679 -20.106267304935837 3.150000000000002
    vertex 11.661838856672965 -20.17782306972879 1.5750000000000017
    vertex 11.118318861957679 -20.106267304935837 1.5750000000000017
  endloop
endfacet
facet normal 0.13052619222005288 0.9914448613738103 0.0
  outer loop
    vertex 11.661838856672965 -20.17782306972879 1.5750000000000017
    vertex 11.118318861957679 -20.106267304935837 3.150000000000002
    vertex 11.661838856672965 -20.17782306972879 3.150000000000002
  endloop
endfacet
facet normal 0.6087614290087459 -0.793353340291216 0.0
  outer loop
    vertex 10.611838856672971 -16.259169721781454 3.150000000000002
    vertex 10.176914616181234 -16.592898829237036 1.5750000000000017
    vertex 10.611838856672971 -16.259169721781454 1.5750000000000017
  endloop
endfacet
facet normal 0.6087614290087459 -0.793353340291216 0.0
  outer loop
    vertex 10.176914616181234 -16.592898829237036 1.5750000000000017
    vertex 10.611838856672971 -16.259169721781454 3.150000000000002
    vertex 10.176914616181234 -16.592898829237036 3.150000000000002
  endloop
endfacet
facet normal 0.054224309020580445 -0.9985287799113457 0.0
  outer loop
    vertex 24.261838856672977 -15.293590118806758 3.150000000000002
    vertex 11.661838856672986 -15.977823069728787 1.5750000000000017
    vertex 24.261838856672977 -15.293590118806758 1.5750000000000017
  endloop
endfacet
facet normal 0.054224309020580445 -0.9985287799113457 0.0
  outer loop
    vertex 11.661838856672986 -15.977823069728787 1.5750000000000017
    vertex 24.261838856672977 -15.293590118806758 3.150000000000002
    vertex 11.661838856672986 -15.977823069728787 3.150000000000002
  endloop
endfacet
facet normal 0.7933533402912181 -0.6087614290087431 0.0
  outer loop
    vertex 10.176914616181234 -16.592898829237036 1.5750000000000017
    vertex 9.843185508725648 -17.027823069728782 3.150000000000002
    vertex 9.843185508725648 -17.027823069728782 1.5750000000000017
  endloop
endfacet
facet normal 0.7933533402912181 -0.6087614290087431 0.0
  outer loop
    vertex 9.843185508725648 -17.027823069728782 3.150000000000002
    vertex 10.176914616181234 -16.592898829237036 1.5750000000000017
    vertex 10.176914616181234 -16.592898829237036 3.150000000000002
  endloop
endfacet
facet normal 0.6087614290087157 0.7933533402912392 0.0
  outer loop
    vertex 10.176914616181211 -19.56274731022054 3.150000000000002
    vertex 10.611838856672973 -19.89647641767612 1.5750000000000017
    vertex 10.176914616181211 -19.56274731022054 1.5750000000000017
  endloop
endfacet
facet normal 0.6087614290087157 0.7933533402912392 0.0
  outer loop
    vertex 10.611838856672973 -19.89647641767612 1.5750000000000017
    vertex 10.176914616181211 -19.56274731022054 3.150000000000002
    vertex 10.611838856672973 -19.89647641767612 3.150000000000002
  endloop
endfacet
facet normal 0.9914448613738078 0.1305261922200716 0.0
  outer loop
    vertex 9.56183885667297 -18.077823069728787 1.5750000000000017
    vertex 9.63339462146594 -18.621343064444087 3.150000000000002
    vertex 9.63339462146594 -18.621343064444087 1.5750000000000017
  endloop
endfacet
facet normal 0.9914448613738078 0.1305261922200716 0.0
  outer loop
    vertex 9.63339462146594 -18.621343064444087 3.150000000000002
    vertex 9.56183885667297 -18.077823069728787 1.5750000000000017
    vertex 9.56183885667297 -18.077823069728787 3.150000000000002
  endloop
endfacet
facet normal 0.38268343236508934 -0.923879532511287 0.0
  outer loop
    vertex 26.026971817503835 -14.27449012871558 3.150000000000002
    vertex 25.53862568817961 -14.47676971861408 1.4804824033376461e-15
    vertex 26.026971817503835 -14.27449012871558 1.4804824033376461e-15
  endloop
endfacet
facet normal 0.38268343236508934 -0.923879532511287 0.0
  outer loop
    vertex 25.53862568817961 -14.47676971861408 1.4804824033376461e-15
    vertex 26.026971817503835 -14.27449012871558 3.150000000000002
    vertex 25.339895649442376 -14.559086395909976 1.4804824033376461e-15
  endloop
endfacet
facet normal 0.38268343236508934 -0.923879532511287 0.0
  outer loop
    vertex 25.339895649442376 -14.559086395909976 1.4804824033376461e-15
    vertex 26.026971817503835 -14.27449012871558 3.150000000000002
    vertex 25.339895649442376 -14.559086395909976 3.150000000000002
  endloop
endfacet
facet normal 0.9238795325112901 0.3826834323650821 0.0
  outer loop
    vertex 9.63339462146594 -18.621343064444087 1.5750000000000017
    vertex 9.84318550872565 -19.12782306972879 3.150000000000002
    vertex 9.84318550872565 -19.12782306972879 1.5750000000000017
  endloop
endfacet
facet normal 0.9238795325112901 0.3826834323650821 0.0
  outer loop
    vertex 9.84318550872565 -19.12782306972879 3.150000000000002
    vertex 9.63339462146594 -18.621343064444087 1.5750000000000017
    vertex 9.63339462146594 -18.621343064444087 3.150000000000002
  endloop
endfacet
facet normal 7.495288891357121e-33 2.622822220745216e-32 1.0
  outer loop
    vertex 9.023248243759248 -22.647996071669702 3.150000000000002
    vertex 9.63339462146594 -18.621343064444087 3.150000000000002
    vertex 9.56183885667297 -18.077823069728787 3.150000000000002
  endloop
endfacet
facet normal 7.495288891357121e-33 2.622822220745216e-32 1.0
  outer loop
    vertex 9.63339462146594 -18.621343064444087 3.150000000000002
    vertex 9.023248243759248 -22.647996071669702 3.150000000000002
    vertex 10.296003850971356 -23.17518870576336 3.150000000000002
  endloop
endfacet
facet normal 7.495288891357121e-33 2.622822220745216e-32 1.0
  outer loop
    vertex 9.63339462146594 -18.621343064444087 3.150000000000002
    vertex 10.296003850971356 -23.17518870576336 3.150000000000002
    vertex 9.84318550872565 -19.12782306972879 3.150000000000002
  endloop
endfacet
facet normal 7.495288891357121e-33 2.622822220745216e-32 1.0
  outer loop
    vertex 9.84318550872565 -19.12782306972879 3.150000000000002
    vertex 10.296003850971356 -23.17518870576336 3.150000000000002
    vertex 10.176914616181211 -19.56274731022054 3.150000000000002
  endloop
endfacet
facet normal 7.495288891357121e-33 2.622822220745216e-32 1.0
  outer loop
    vertex 10.176914616181211 -19.56274731022054 3.150000000000002
    vertex 10.296003850971356 -23.17518870576336 3.150000000000002
    vertex 10.611838856672973 -19.89647641767612 3.150000000000002
  endloop
endfacet
facet normal 7.495288891357121e-33 2.622822220745216e-32 1.0
  outer loop
    vertex 10.611838856672973 -19.89647641767612 3.150000000000002
    vertex 10.296003850971356 -23.17518870576336 3.150000000000002
    vertex 11.370429015968755 -23.31663946220602 3.150000000000002
  endloop
endfacet
facet normal 7.495288891357121e-33 2.622822220745216e-32 1.0
  outer loop
    vertex 10.611838856672973 -19.89647641767612 3.150000000000002
    vertex 11.370429015968755 -23.31663946220602 3.150000000000002
    vertex 11.118318861957679 -20.106267304935837 3.150000000000002
  endloop
endfacet
facet normal 7.495288891357121e-33 2.622822220745216e-32 1.0
  outer loop
    vertex 11.118318861957679 -20.106267304935837 3.150000000000002
    vertex 11.370429015968755 -23.31663946220602 3.150000000000002
    vertex 11.661838856672965 -20.17782306972879 3.150000000000002
  endloop
endfacet
facet normal 7.495288891357121e-33 2.622822220745216e-32 1.0
  outer loop
    vertex 11.661838856672965 -20.17782306972879 3.150000000000002
    vertex 11.370429015968755 -23.31663946220602 3.150000000000002
    vertex 23.117630075087035 -23.954561846789748 3.150000000000002
  endloop
endfacet
facet normal 7.495288891357121e-33 2.622822220745216e-32 1.0
  outer loop
    vertex 11.661838856672965 -20.17782306972879 3.150000000000002
    vertex 23.117630075087035 -23.954561846789748 3.150000000000002
    vertex 24.261838856672977 -20.86205602065083 3.150000000000002
  endloop
endfacet
facet normal 7.495288891357121e-33 2.622822220745216e-32 1.0
  outer loop
    vertex 24.261838856672977 -20.86205602065083 3.150000000000002
    vertex 23.117630075087035 -23.954561846789748 3.150000000000002
    vertex 23.488731194681257 -24.239317751123597 3.150000000000002
  endloop
endfacet
facet normal 7.495288891357121e-33 2.622822220745216e-32 1.0
  outer loop
    vertex 24.261838856672977 -20.86205602065083 3.150000000000002
    vertex 23.488731194681257 -24.239317751123597 3.150000000000002
    vertex 25.20465680651749 -24.950077411569527 3.150000000000002
  endloop
endfacet
facet normal 7.495288891357121e-33 2.622822220745216e-32 1.0
  outer loop
    vertex 24.261838856672977 -20.86205602065083 3.150000000000002
    vertex 25.20465680651749 -24.950077411569527 3.150000000000002
    vertex 25.077321807595006 -21.487798097130018 3.150000000000002
  endloop
endfacet
facet normal 7.495288891357121e-33 2.622822220745216e-32 1.0
  outer loop
    vertex 25.077321807595006 -21.487798097130018 3.150000000000002
    vertex 25.20465680651749 -24.950077411569527 3.150000000000002
    vertex 26.02697181750382 -21.881156010742 3.150000000000002
  endloop
endfacet
facet normal 7.495288891357121e-33 2.622822220745216e-32 1.0
  outer loop
    vertex 26.02697181750382 -21.881156010742 3.150000000000002
    vertex 25.20465680651749 -24.950077411569527 3.150000000000002
    vertex 27.04607180759501 -25.192504295556272 3.150000000000002
  endloop
endfacet
facet normal 7.495288891357121e-33 2.622822220745216e-32 1.0
  outer loop
    vertex 26.02697181750382 -21.881156010742 3.150000000000002
    vertex 27.04607180759501 -25.192504295556272 3.150000000000002
    vertex 27.046071807595002 -22.01532306972879 3.150000000000002
  endloop
endfacet
facet normal 7.495288891357121e-33 2.622822220745216e-32 1.0
  outer loop
    vertex 27.046071807595002 -22.01532306972879 3.150000000000002
    vertex 27.04607180759501 -25.192504295556272 3.150000000000002
    vertex 28.065171797686173 -21.881156010742 3.150000000000002
  endloop
endfacet
facet normal 7.495288891357121e-33 2.622822220745216e-32 1.0
  outer loop
    vertex 28.065171797686173 -21.881156010742 3.150000000000002
    vertex 27.04607180759501 -25.192504295556272 3.150000000000002
    vertex 28.887486808672495 -24.950077411569527 3.150000000000002
  endloop
endfacet
facet normal 7.495288891357121e-33 2.622822220745216e-32 1.0
  outer loop
    vertex 28.065171797686173 -21.881156010742 3.150000000000002
    vertex 28.887486808672495 -24.950077411569527 3.150000000000002
    vertex 29.014821807595006 -21.487798097130025 3.150000000000002
  endloop
endfacet
facet normal 7.495288891357121e-33 2.622822220745216e-32 1.0
  outer loop
    vertex 29.014821807595006 -21.487798097130025 3.150000000000002
    vertex 28.887486808672495 -24.950077411569527 3.150000000000002
    vertex 30.603412420508743 -24.239317751123608 3.150000000000002
  endloop
endfacet
facet normal 7.495288891357121e-33 2.622822220745216e-32 1.0
  outer loop
    vertex 29.014821807595006 -21.487798097130025 3.150000000000002
    vertex 30.603412420508743 -24.239317751123608 3.150000000000002
    vertex 29.830304758517038 -20.86205602065083 3.150000000000002
  endloop
endfacet
facet normal 7.495288891357121e-33 2.622822220745216e-32 1.0
  outer loop
    vertex 29.830304758517038 -20.86205602065083 3.150000000000002
    vertex 30.603412420508743 -24.239317751123608 3.150000000000002
    vertex 30.45604683499623 -20.046573069728797 3.150000000000002
  endloop
endfacet
facet normal 7.495288891357121e-33 2.622822220745216e-32 1.0
  outer loop
    vertex 30.45604683499623 -20.046573069728797 3.150000000000002
    vertex 30.603412420508743 -24.239317751123608 3.150000000000002
    vertex 30.849404748608208 -19.09692305981998 3.150000000000002
  endloop
endfacet
facet normal 7.495288891357121e-33 2.622822220745216e-32 1.0
  outer loop
    vertex 30.849404748608208 -19.09692305981998 3.150000000000002
    vertex 30.603412420508743 -24.239317751123608 3.150000000000002
    vertex 32.076911148358235 -23.10866241049203 3.150000000000002
  endloop
endfacet
facet normal 7.495288891357121e-33 2.622822220745216e-32 1.0
  outer loop
    vertex 30.849404748608208 -19.09692305981998 3.150000000000002
    vertex 32.076911148358235 -23.10866241049203 3.150000000000002
    vertex 30.98357180759501 -18.077823069728794 3.150000000000002
  endloop
endfacet
facet normal 7.495288891357121e-33 2.622822220745216e-32 1.0
  outer loop
    vertex 6.56447322063842 -19.443658075430434 3.150000000000002
    vertex 6.564473220638423 -16.711988064027175 3.150000000000002
    vertex 6.384657630845477 -18.077823069728776 3.150000000000002
  endloop
endfacet
facet normal 7.495288891357121e-33 2.622822220745216e-32 1.0
  outer loop
    vertex 6.564473220638423 -16.711988064027175 3.150000000000002
    vertex 6.56447322063842 -19.443658075430434 3.150000000000002
    vertex 7.09166585473205 -20.716413682642496 3.150000000000002
  endloop
endfacet
facet normal 7.495288891357121e-33 2.622822220745216e-32 1.0
  outer loop
    vertex 6.564473220638423 -16.711988064027175 3.150000000000002
    vertex 7.09166585473205 -20.716413682642496 3.150000000000002
    vertex 7.091665854732056 -15.439232456815033 3.150000000000002
  endloop
endfacet
facet normal 7.495288891357121e-33 2.622822220745216e-32 1.0
  outer loop
    vertex 7.091665854732056 -15.439232456815033 3.150000000000002
    vertex 7.09166585473205 -20.716413682642496 3.150000000000002
    vertex 7.930308226339991 -21.809353700061727 3.150000000000002
  endloop
endfacet
facet normal 7.495288891357121e-33 2.622822220745216e-32 1.0
  outer loop
    vertex 7.091665854732056 -15.439232456815033 3.150000000000002
    vertex 7.930308226339991 -21.809353700061727 3.150000000000002
    vertex 7.930308226340041 -14.34629243939585 3.150000000000002
  endloop
endfacet
facet normal 7.495288891357121e-33 2.622822220745216e-32 1.0
  outer loop
    vertex 7.930308226340041 -14.34629243939585 3.150000000000002
    vertex 7.930308226339991 -21.809353700061727 3.150000000000002
    vertex 9.023248243759248 -22.647996071669702 3.150000000000002
  endloop
endfacet
facet normal 7.495288891357121e-33 2.622822220745216e-32 1.0
  outer loop
    vertex 7.930308226340041 -14.34629243939585 3.150000000000002
    vertex 9.023248243759248 -22.647996071669702 3.150000000000002
    vertex 9.023248243759191 -13.507650067787887 3.150000000000002
  endloop
endfacet
facet normal 7.495288891357121e-33 2.622822220745216e-32 1.0
  outer loop
    vertex 9.023248243759191 -13.507650067787887 3.150000000000002
    vertex 9.023248243759248 -22.647996071669702 3.150000000000002
    vertex 9.56183885667297 -18.077823069728787 3.150000000000002
  endloop
endfacet
facet normal 7.495288891357121e-33 2.622822220745216e-32 1.0
  outer loop
    vertex 9.023248243759191 -13.507650067787887 3.150000000000002
    vertex 9.56183885667297 -18.077823069728787 3.150000000000002
    vertex 9.633394621465943 -17.534303075013494 3.150000000000002
  endloop
endfacet
facet normal 7.495288891357121e-33 2.622822220745216e-32 1.0
  outer loop
    vertex 9.023248243759191 -13.507650067787887 3.150000000000002
    vertex 9.633394621465943 -17.534303075013494 3.150000000000002
    vertex 10.296003850971392 -12.980457433694198 3.150000000000002
  endloop
endfacet
facet normal 7.495288891357121e-33 2.622822220745216e-32 1.0
  outer loop
    vertex 10.296003850971392 -12.980457433694198 3.150000000000002
    vertex 9.633394621465943 -17.534303075013494 3.150000000000002
    vertex 9.843185508725648 -17.027823069728782 3.150000000000002
  endloop
endfacet
facet normal 7.495288891357121e-33 2.622822220745216e-32 1.0
  outer loop
    vertex 10.296003850971392 -12.980457433694198 3.150000000000002
    vertex 9.843185508725648 -17.027823069728782 3.150000000000002
    vertex 10.176914616181234 -16.592898829237036 3.150000000000002
  endloop
endfacet
facet normal 7.495288891357121e-33 2.622822220745216e-32 1.0
  outer loop
    vertex 10.296003850971392 -12.980457433694198 3.150000000000002
    vertex 10.176914616181234 -16.592898829237036 3.150000000000002
    vertex 10.611838856672971 -16.259169721781454 3.150000000000002
  endloop
endfacet
facet normal 7.495288891357121e-33 2.622822220745216e-32 1.0
  outer loop
    vertex 10.296003850971392 -12.980457433694198 3.150000000000002
    vertex 10.611838856672971 -16.259169721781454 3.150000000000002
    vertex 11.370429015968812 -12.839006677251557 3.150000000000002
  endloop
endfacet
facet normal 7.495288891357121e-33 2.622822220745216e-32 1.0
  outer loop
    vertex 11.370429015968812 -12.839006677251557 3.150000000000002
    vertex 10.611838856672971 -16.259169721781454 3.150000000000002
    vertex 11.118318861957677 -16.049378834521736 3.150000000000002
  endloop
endfacet
facet normal 7.495288891357121e-33 2.622822220745216e-32 1.0
  outer loop
    vertex 11.370429015968812 -12.839006677251557 3.150000000000002
    vertex 11.118318861957677 -16.049378834521736 3.150000000000002
    vertex 11.661838856672986 -15.977823069728787 3.150000000000002
  endloop
endfacet
facet normal 7.495288891357121e-33 2.622822220745216e-32 1.0
  outer loop
    vertex 11.370429015968812 -12.839006677251557 3.150000000000002
    vertex 11.661838856672986 -15.977823069728787 3.150000000000002
    vertex 23.117630075087035 -12.201084292667844 3.150000000000002
  endloop
endfacet
facet normal 7.495288891357121e-33 2.622822220745216e-32 1.0
  outer loop
    vertex 23.117630075087035 -12.201084292667844 3.150000000000002
    vertex 11.661838856672986 -15.977823069728787 3.150000000000002
    vertex 24.261838856672977 -15.293590118806758 3.150000000000002
  endloop
endfacet
facet normal 7.495288891357121e-33 2.622822220745216e-32 1.0
  outer loop
    vertex 23.117630075087035 -12.201084292667844 3.150000000000002
    vertex 24.261838856672977 -15.293590118806758 3.150000000000002
    vertex 23.48873119468126 -11.91632838833398 3.150000000000002
  endloop
endfacet
facet normal 7.495288891357121e-33 2.622822220745216e-32 1.0
  outer loop
    vertex 23.48873119468126 -11.91632838833398 3.150000000000002
    vertex 24.261838856672977 -15.293590118806758 3.150000000000002
    vertex 24.134442837492344 -11.64886586849942 3.150000000000002
  endloop
endfacet
facet normal 7.495288891357121e-33 2.622822220745216e-32 1.0
  outer loop
    vertex 24.134442837492344 -11.64886586849942 3.150000000000002
    vertex 24.261838856672977 -15.293590118806758 3.150000000000002
    vertex 25.2046568065175 -11.205568727888057 3.150000000000002
  endloop
endfacet
facet normal 7.495288891357121e-33 2.622822220745216e-32 1.0
  outer loop
    vertex 25.2046568065175 -11.205568727888057 3.150000000000002
    vertex 24.261838856672977 -15.293590118806758 3.150000000000002
    vertex 25.07732180759501 -14.667848042327563 3.150000000000002
  endloop
endfacet
facet normal 7.495288891357121e-33 2.622822220745216e-32 1.0
  outer loop
    vertex 25.2046568065175 -11.205568727888057 3.150000000000002
    vertex 25.07732180759501 -14.667848042327563 3.150000000000002
    vertex 25.339895649442376 -14.559086395909976 3.150000000000002
  endloop
endfacet
facet normal 7.495288891357121e-33 2.622822220745216e-32 1.0
  outer loop
    vertex 25.2046568065175 -11.205568727888057 3.150000000000002
    vertex 25.339895649442376 -14.559086395909976 3.150000000000002
    vertex 27.04607180759501 -10.963141843901312 3.150000000000002
  endloop
endfacet
facet normal 7.495288891357121e-33 2.622822220745216e-32 1.0
  outer loop
    vertex 27.04607180759501 -10.963141843901312 3.150000000000002
    vertex 25.339895649442376 -14.559086395909976 3.150000000000002
    vertex 26.026971817503835 -14.27449012871558 3.150000000000002
  endloop
endfacet
facet normal 7.495288891357121e-33 2.622822220745216e-32 1.0
  outer loop
    vertex 27.04607180759501 -10.963141843901312 3.150000000000002
    vertex 26.026971817503835 -14.27449012871558 3.150000000000002
    vertex 27.04607180759501 -14.140323069728788 3.150000000000002
  endloop
endfacet
facet normal 7.495288891357121e-33 2.622822220745216e-32 1.0
  outer loop
    vertex 27.04607180759501 -10.963141843901312 3.150000000000002
    vertex 27.04607180759501 -14.140323069728788 3.150000000000002
    vertex 28.06517179768618 -14.27449012871558 3.150000000000002
  endloop
endfacet
facet normal 7.495288891357121e-33 2.622822220745216e-32 1.0
  outer loop
    vertex 27.04607180759501 -10.963141843901312 3.150000000000002
    vertex 28.06517179768618 -14.27449012871558 3.150000000000002
    vertex 28.887486808672502 -11.205568727888057 3.150000000000002
  endloop
endfacet
facet normal 7.495288891357121e-33 2.622822220745216e-32 1.0
  outer loop
    vertex 28.887486808672502 -11.205568727888057 3.150000000000002
    vertex 28.06517179768618 -14.27449012871558 3.150000000000002
    vertex 28.752247965747646 -14.559086395909976 3.150000000000002
  endloop
endfacet
facet normal 7.495288891357121e-33 2.622822220745216e-32 1.0
  outer loop
    vertex 28.887486808672502 -11.205568727888057 3.150000000000002
    vertex 28.752247965747646 -14.559086395909976 3.150000000000002
    vertex 29.014821807595006 -14.667848042327563 3.150000000000002
  endloop
endfacet
facet normal 7.495288891357121e-33 2.622822220745216e-32 1.0
  outer loop
    vertex 28.887486808672502 -11.205568727888057 3.150000000000002
    vertex 29.014821807595006 -14.667848042327563 3.150000000000002
    vertex 29.957700777697664 -11.64886586849942 3.150000000000002
  endloop
endfacet
facet normal 7.495288891357121e-33 2.622822220745216e-32 1.0
  outer loop
    vertex 29.957700777697664 -11.64886586849942 3.150000000000002
    vertex 29.014821807595006 -14.667848042327563 3.150000000000002
    vertex 29.830304758517038 -15.293590118806758 3.150000000000002
  endloop
endfacet
facet normal 7.495288891357121e-33 2.622822220745216e-32 1.0
  outer loop
    vertex 29.957700777697664 -11.64886586849942 3.150000000000002
    vertex 29.830304758517038 -15.293590118806758 3.150000000000002
    vertex 30.45604683499623 -16.109073069728794 3.150000000000002
  endloop
endfacet
facet normal 7.495288891357121e-33 2.622822220745216e-32 1.0
  outer loop
    vertex 29.957700777697664 -11.64886586849942 3.150000000000002
    vertex 30.45604683499623 -16.109073069728794 3.150000000000002
    vertex 30.60341242050876 -11.91632838833398 3.150000000000002
  endloop
endfacet
facet normal 7.495288891357121e-33 2.622822220745216e-32 1.0
  outer loop
    vertex 30.60341242050876 -11.91632838833398 3.150000000000002
    vertex 30.45604683499623 -16.109073069728794 3.150000000000002
    vertex 30.8494047486082 -17.058723079637616 3.150000000000002
  endloop
endfacet
facet normal 7.495288891357121e-33 2.622822220745216e-32 1.0
  outer loop
    vertex 30.60341242050876 -11.91632838833398 3.150000000000002
    vertex 30.8494047486082 -17.058723079637616 3.150000000000002
    vertex 32.07691114835824 -13.046983728965566 3.150000000000002
  endloop
endfacet
facet normal 7.495288891357121e-33 2.622822220745216e-32 1.0
  outer loop
    vertex 32.07691114835824 -13.046983728965566 3.150000000000002
    vertex 30.8494047486082 -17.058723079637616 3.150000000000002
    vertex 30.98357180759501 -18.077823069728794 3.150000000000002
  endloop
endfacet
facet normal 7.495288891357121e-33 2.622822220745216e-32 1.0
  outer loop
    vertex 32.07691114835824 -13.046983728965566 3.150000000000002
    vertex 30.98357180759501 -18.077823069728794 3.150000000000002
    vertex 32.076911148358235 -23.10866241049203 3.150000000000002
  endloop
endfacet
facet normal 7.495288891357121e-33 2.622822220745216e-32 1.0
  outer loop
    vertex 32.07691114835824 -13.046983728965566 3.150000000000002
    vertex 32.076911148358235 -23.10866241049203 3.150000000000002
    vertex 33.20756648898982 -21.63516368264254 3.150000000000002
  endloop
endfacet
facet normal 7.495288891357121e-33 2.622822220745216e-32 1.0
  outer loop
    vertex 32.07691114835824 -13.046983728965566 3.150000000000002
    vertex 33.20756648898982 -21.63516368264254 3.150000000000002
    vertex 33.20756648898982 -14.520482456815053 3.150000000000002
  endloop
endfacet
facet normal 7.495288891357121e-33 2.622822220745216e-32 1.0
  outer loop
    vertex 33.20756648898982 -14.520482456815053 3.150000000000002
    vertex 33.20756648898982 -21.63516368264254 3.150000000000002
    vertex 33.91832614943574 -19.9192380708063 3.150000000000002
  endloop
endfacet
facet normal 7.495288891357121e-33 2.622822220745216e-32 1.0
  outer loop
    vertex 33.20756648898982 -14.520482456815053 3.150000000000002
    vertex 33.91832614943574 -19.9192380708063 3.150000000000002
    vertex 33.91832614943574 -16.23640806865129 3.150000000000002
  endloop
endfacet
facet normal 7.495288891357121e-33 2.622822220745216e-32 1.0
  outer loop
    vertex 33.91832614943574 -16.23640806865129 3.150000000000002
    vertex 33.91832614943574 -19.9192380708063 3.150000000000002
    vertex 34.160753033422495 -18.077823069728794 3.150000000000002
  endloop
endfacet
facet normal 0.9914448613738069 -0.13052619222007808 0.0
  outer loop
    vertex 9.633394621465943 -17.534303075013494 1.5750000000000017
    vertex 9.56183885667297 -18.077823069728787 3.150000000000002
    vertex 9.56183885667297 -18.077823069728787 1.5750000000000017
  endloop
endfacet
facet normal 0.9914448613738069 -0.13052619222007808 0.0
  outer loop
    vertex 9.56183885667297 -18.077823069728787 3.150000000000002
    vertex 9.633394621465943 -17.534303075013494 1.5750000000000017
    vertex 9.633394621465943 -17.534303075013494 3.150000000000002
  endloop
endfacet
facet normal 0.3826834323650872 0.9238795325112878 0.0
  outer loop
    vertex 10.611838856672973 -19.89647641767612 3.150000000000002
    vertex 11.118318861957679 -20.106267304935837 1.5750000000000017
    vertex 10.611838856672973 -19.89647641767612 1.5750000000000017
  endloop
endfacet
facet normal 0.3826834323650872 0.9238795325112878 0.0
  outer loop
    vertex 11.118318861957679 -20.106267304935837 1.5750000000000017
    vertex 10.611838856672973 -19.89647641767612 3.150000000000002
    vertex 11.118318861957679 -20.106267304935837 3.150000000000002
  endloop
endfacet
facet normal -0.38268343236509045 -0.9238795325112866 0.0
  outer loop
    vertex 28.752247965747646 -14.559086395909976 3.150000000000002
    vertex 28.06517179768618 -14.27449012871558 1.4804824033376461e-15
    vertex 28.752247965747646 -14.559086395909976 1.4804824033376461e-15
  endloop
endfacet
facet normal -0.38268343236509045 -0.9238795325112866 0.0
  outer loop
    vertex 28.06517179768618 -14.27449012871558 1.4804824033376461e-15
    vertex 28.752247965747646 -14.559086395909976 3.150000000000002
    vertex 28.06517179768618 -14.27449012871558 3.150000000000002
  endloop
endfacet
facet normal 0.054224309020580785 0.9985287799113457 0.0
  outer loop
    vertex 11.661838856672965 -20.17782306972879 3.150000000000002
    vertex 24.261838856672977 -20.86205602065083 1.5750000000000017
    vertex 11.661838856672965 -20.17782306972879 1.5750000000000017
  endloop
endfacet
facet normal 0.054224309020580785 0.9985287799113457 0.0
  outer loop
    vertex 24.261838856672977 -20.86205602065083 1.5750000000000017
    vertex 11.661838856672965 -20.17782306972879 3.150000000000002
    vertex 24.261838856672977 -20.86205602065083 3.150000000000002
  endloop
endfacet
facet normal 0.7933533402912458 0.6087614290087069 0.0
  outer loop
    vertex 9.84318550872565 -19.12782306972879 1.5750000000000017
    vertex 10.176914616181211 -19.56274731022054 3.150000000000002
    vertex 10.176914616181211 -19.56274731022054 1.5750000000000017
  endloop
endfacet
facet normal 0.7933533402912458 0.6087614290087069 0.0
  outer loop
    vertex 10.176914616181211 -19.56274731022054 3.150000000000002
    vertex 9.84318550872565 -19.12782306972879 1.5750000000000017
    vertex 9.84318550872565 -19.12782306972879 3.150000000000002
  endloop
endfacet
facet normal -0.13052619222004916 -0.9914448613738107 2.6982167649126985e-32
  outer loop
    vertex 27.04607180759501 -25.192504295556272 3.150000000000002
    vertex 25.20465680651749 -24.950077411569527 1.4804824033376461e-15
    vertex 27.04607180759501 -25.192504295556272 1.4804824033376461e-15
  endloop
endfacet
facet normal -0.13052619222004916 -0.9914448613738107 2.6982167649126985e-32
  outer loop
    vertex 25.20465680651749 -24.950077411569527 1.4804824033376461e-15
    vertex 27.04607180759501 -25.192504295556272 3.150000000000002
    vertex 25.20465680651749 -24.950077411569527 3.150000000000002
  endloop
endfacet
facet normal -0.9914448613738079 -0.13052619222007059 1.0854635629288825e-32
  outer loop
    vertex 6.384657630845477 -18.077823069728776 3.150000000000002
    vertex 6.56447322063842 -19.443658075430434 1.4804824033376461e-15
    vertex 6.56447322063842 -19.443658075430434 3.150000000000002
  endloop
endfacet
facet normal -0.9914448613738079 -0.13052619222007059 1.0854635629288825e-32
  outer loop
    vertex 6.56447322063842 -19.443658075430434 1.4804824033376461e-15
    vertex 6.384657630845477 -18.077823069728776 3.150000000000002
    vertex 6.384657630845477 -18.077823069728776 1.4804824033376461e-15
  endloop
endfacet
facet normal -0.7933533402912182 0.608761429008743 -1.0020317552961588e-32
  outer loop
    vertex 7.930308226340041 -14.34629243939585 3.150000000000002
    vertex 7.091665854732056 -15.439232456815033 1.4804824033376461e-15
    vertex 7.091665854732056 -15.439232456815033 3.150000000000002
  endloop
endfacet
facet normal -0.7933533402912182 0.608761429008743 -1.0020317552961588e-32
  outer loop
    vertex 7.091665854732056 -15.439232456815033 1.4804824033376461e-15
    vertex 7.930308226340041 -14.34629243939585 3.150000000000002
    vertex 7.930308226340041 -14.34629243939585 1.4804824033376461e-15
  endloop
endfacet
facet normal -0.3826834323650869 -0.9238795325112882 2.7100040551135523e-32
  outer loop
    vertex 10.296003850971356 -23.17518870576336 3.150000000000002
    vertex 9.023248243759248 -22.647996071669702 1.4804824033376461e-15
    vertex 10.296003850971356 -23.17518870576336 1.4804824033376461e-15
  endloop
endfacet
facet normal -0.3826834323650869 -0.9238795325112882 2.7100040551135523e-32
  outer loop
    vertex 9.023248243759248 -22.647996071669702 1.4804824033376461e-15
    vertex 10.296003850971356 -23.17518870576336 3.150000000000002
    vertex 9.023248243759248 -22.647996071669702 3.150000000000002
  endloop
endfacet
facet normal 0.9914448613738106 -0.13052619222005138 -4.007695682408099e-33
  outer loop
    vertex 34.160753033422495 -18.077823069728794 1.4804824033376461e-15
    vertex 33.91832614943574 -19.9192380708063 3.150000000000002
    vertex 33.91832614943574 -19.9192380708063 1.4804824033376461e-15
  endloop
endfacet
facet normal 0.9914448613738106 -0.13052619222005138 -4.007695682408099e-33
  outer loop
    vertex 33.91832614943574 -19.9192380708063 3.150000000000002
    vertex 34.160753033422495 -18.077823069728794 1.4804824033376461e-15
    vertex 34.160753033422495 -18.077823069728794 3.150000000000002
  endloop
endfacet
facet normal -0.9238795325112976 0.38268343236506386 -3.112362102197246e-33
  outer loop
    vertex 7.091665854732056 -15.439232456815033 3.150000000000002
    vertex 6.564473220638423 -16.711988064027175 1.4804824033376461e-15
    vertex 6.564473220638423 -16.711988064027175 3.150000000000002
  endloop
endfacet
facet normal -0.9238795325112976 0.38268343236506386 -3.112362102197246e-33
  outer loop
    vertex 6.564473220638423 -16.711988064027175 1.4804824033376461e-15
    vertex 7.091665854732056 -15.439232456815033 3.150000000000002
    vertex 7.091665854732056 -15.439232456815033 1.4804824033376461e-15
  endloop
endfacet
facet normal -0.3826834323650944 -0.923879532511285 2.7100040551135496e-32
  outer loop
    vertex 25.20465680651749 -24.950077411569527 3.150000000000002
    vertex 23.488731194681257 -24.239317751123597 1.4804824033376461e-15
    vertex 25.20465680651749 -24.950077411569527 1.4804824033376461e-15
  endloop
endfacet
facet normal -0.3826834323650944 -0.923879532511285 2.7100040551135496e-32
  outer loop
    vertex 23.488731194681257 -24.239317751123597 1.4804824033376461e-15
    vertex 25.20465680651749 -24.950077411569527 3.150000000000002
    vertex 23.488731194681257 -24.239317751123597 3.150000000000002
  endloop
endfacet
facet normal -0.38268343236508384 0.9238795325112892 -2.1363394792110675e-32
  outer loop
    vertex 9.023248243759191 -13.507650067787887 3.150000000000002
    vertex 10.296003850971392 -12.980457433694198 1.4804824033376461e-15
    vertex 9.023248243759191 -13.507650067787887 1.4804824033376461e-15
  endloop
endfacet
facet normal -0.38268343236508384 0.9238795325112892 -2.1363394792110675e-32
  outer loop
    vertex 10.296003850971392 -12.980457433694198 1.4804824033376461e-15
    vertex 9.023248243759191 -13.507650067787887 3.150000000000002
    vertex 10.296003850971392 -12.980457433694198 3.150000000000002
  endloop
endfacet
facet normal -0.13052619222003015 0.9914448613738133 -2.5025504611971034e-32
  outer loop
    vertex 10.296003850971392 -12.980457433694198 3.150000000000002
    vertex 11.370429015968812 -12.839006677251557 1.4804824033376461e-15
    vertex 10.296003850971392 -12.980457433694198 1.4804824033376461e-15
  endloop
endfacet
facet normal -0.13052619222003015 0.9914448613738133 -2.5025504611971034e-32
  outer loop
    vertex 11.370429015968812 -12.839006677251557 1.4804824033376461e-15
    vertex 10.296003850971392 -12.980457433694198 3.150000000000002
    vertex 11.370429015968812 -12.839006677251557 3.150000000000002
  endloop
endfacet
facet normal -0.6087614290087459 0.7933533402912161 -1.6245404921846475e-32
  outer loop
    vertex 7.930308226340041 -14.34629243939585 3.150000000000002
    vertex 9.023248243759191 -13.507650067787887 1.4804824033376461e-15
    vertex 7.930308226340041 -14.34629243939585 1.4804824033376461e-15
  endloop
endfacet
facet normal -0.6087614290087459 0.7933533402912161 -1.6245404921846475e-32
  outer loop
    vertex 9.023248243759191 -13.507650067787887 1.4804824033376461e-15
    vertex 7.930308226340041 -14.34629243939585 3.150000000000002
    vertex 9.023248243759191 -13.507650067787887 3.150000000000002
  endloop
endfacet
facet normal -0.7933533402912465 -0.608761429008706 2.1913142509772497e-32
  outer loop
    vertex 7.09166585473205 -20.716413682642496 3.150000000000002
    vertex 7.930308226339991 -21.809353700061727 1.4804824033376461e-15
    vertex 7.930308226339991 -21.809353700061727 3.150000000000002
  endloop
endfacet
facet normal -0.7933533402912465 -0.608761429008706 2.1913142509772497e-32
  outer loop
    vertex 7.930308226339991 -21.809353700061727 1.4804824033376461e-15
    vertex 7.09166585473205 -20.716413682642496 3.150000000000002
    vertex 7.09166585473205 -20.716413682642496 1.4804824033376461e-15
  endloop
endfacet
facet normal -0.0542243090205805 0.9985287799113458 -2.578320785900739e-32
  outer loop
    vertex 11.370429015968812 -12.839006677251557 3.150000000000002
    vertex 23.117630075087035 -12.201084292667844 1.4804824033376461e-15
    vertex 11.370429015968812 -12.839006677251557 1.4804824033376461e-15
  endloop
endfacet
facet normal -0.0542243090205805 0.9985287799113458 -2.578320785900739e-32
  outer loop
    vertex 23.117630075087035 -12.201084292667844 1.4804824033376461e-15
    vertex 11.370429015968812 -12.839006677251557 3.150000000000002
    vertex 23.117630075087035 -12.201084292667844 3.150000000000002
  endloop
endfacet
facet normal -0.054224309020580924 -0.9985287799113457 2.659606158109435e-32
  outer loop
    vertex 23.117630075087035 -23.954561846789748 3.150000000000002
    vertex 11.370429015968755 -23.31663946220602 1.4804824033376461e-15
    vertex 23.117630075087035 -23.954561846789748 1.4804824033376461e-15
  endloop
endfacet
facet normal -0.054224309020580924 -0.9985287799113457 2.659606158109435e-32
  outer loop
    vertex 11.370429015968755 -23.31663946220602 1.4804824033376461e-15
    vertex 23.117630075087035 -23.954561846789748 3.150000000000002
    vertex 11.370429015968755 -23.31663946220602 3.150000000000002
  endloop
endfacet
facet normal -0.13052619222005274 -0.9914448613738103 2.6982167649126996e-32
  outer loop
    vertex 11.370429015968755 -23.31663946220602 3.150000000000002
    vertex 10.296003850971356 -23.17518870576336 1.4804824033376461e-15
    vertex 11.370429015968755 -23.31663946220602 1.4804824033376461e-15
  endloop
endfacet
facet normal -0.13052619222005274 -0.9914448613738103 2.6982167649126996e-32
  outer loop
    vertex 10.296003850971356 -23.17518870576336 1.4804824033376461e-15
    vertex 11.370429015968755 -23.31663946220602 3.150000000000002
    vertex 10.296003850971356 -23.17518870576336 3.150000000000002
  endloop
endfacet
facet normal -0.9238795325112898 -0.38268343236508245 1.6961850096165957e-32
  outer loop
    vertex 6.56447322063842 -19.443658075430434 3.150000000000002
    vertex 7.09166585473205 -20.716413682642496 1.4804824033376461e-15
    vertex 7.09166585473205 -20.716413682642496 3.150000000000002
  endloop
endfacet
facet normal -0.9238795325112898 -0.38268343236508245 1.6961850096165957e-32
  outer loop
    vertex 7.09166585473205 -20.716413682642496 1.4804824033376461e-15
    vertex 6.56447322063842 -19.443658075430434 3.150000000000002
    vertex 6.56447322063842 -19.443658075430434 1.4804824033376461e-15
  endloop
endfacet
facet normal -0.6087614290087192 -0.7933533402912363 2.537109047451869e-32
  outer loop
    vertex 23.488731194681257 -24.239317751123597 3.150000000000002
    vertex 23.117630075087035 -23.954561846789748 1.4804824033376461e-15
    vertex 23.488731194681257 -24.239317751123597 1.4804824033376461e-15
  endloop
endfacet
facet normal -0.6087614290087192 -0.7933533402912363 2.537109047451869e-32
  outer loop
    vertex 23.117630075087035 -23.954561846789748 1.4804824033376461e-15
    vertex 23.488731194681257 -24.239317751123597 3.150000000000002
    vertex 23.117630075087035 -23.954561846789748 3.150000000000002
  endloop
endfacet
facet normal -0.991444861373807 0.1305261922200774 4.00769568240739e-33
  outer loop
    vertex 6.564473220638423 -16.711988064027175 3.150000000000002
    vertex 6.384657630845477 -18.077823069728776 1.4804824033376461e-15
    vertex 6.384657630845477 -18.077823069728776 3.150000000000002
  endloop
endfacet
facet normal -0.991444861373807 0.1305261922200774 4.00769568240739e-33
  outer loop
    vertex 6.384657630845477 -18.077823069728776 1.4804824033376461e-15
    vertex 6.564473220638423 -16.711988064027175 3.150000000000002
    vertex 6.564473220638423 -16.711988064027175 1.4804824033376461e-15
  endloop
endfacet
facet normal -0.608761429008715 -0.7933533402912394 2.537109047451873e-32
  outer loop
    vertex 9.023248243759248 -22.647996071669702 3.150000000000002
    vertex 7.930308226339991 -21.809353700061727 1.4804824033376461e-15
    vertex 9.023248243759248 -22.647996071669702 1.4804824033376461e-15
  endloop
endfacet
facet normal -0.608761429008715 -0.7933533402912394 2.537109047451873e-32
  outer loop
    vertex 7.930308226339991 -21.809353700061727 1.4804824033376461e-15
    vertex 9.023248243759248 -22.647996071669702 3.150000000000002
    vertex 7.930308226339991 -21.809353700061727 3.150000000000002
  endloop
endfacet
facet normal -0.1305261922200509 0.9914448613738105 -2.502550461197081e-32
  outer loop
    vertex 25.2046568065175 -11.205568727888057 3.150000000000002
    vertex 26.851951583212067 -10.988698256273548 1.4804824033376461e-15
    vertex 25.2046568065175 -11.205568727888057 1.4804824033376461e-15
  endloop
endfacet
facet normal -0.1305261922200509 0.9914448613738105 -2.502550461197081e-32
  outer loop
    vertex 26.851951583212067 -10.988698256273548 1.4804824033376461e-15
    vertex 25.2046568065175 -11.205568727888057 3.150000000000002
    vertex 27.04607180759501 -10.963141843901312 1.4804824033376461e-15
  endloop
endfacet
facet normal -0.1305261922200509 0.9914448613738105 -2.502550461197081e-32
  outer loop
    vertex 27.04607180759501 -10.963141843901312 1.4804824033376461e-15
    vertex 25.2046568065175 -11.205568727888057 3.150000000000002
    vertex 27.04607180759501 -10.963141843901312 3.150000000000002
  endloop
endfacet
facet normal 0.38268343236509156 0.9238795325112862 -2.710004055113551e-32
  outer loop
    vertex 29.957700777697664 -11.64886586849942 3.150000000000002
    vertex 30.60341242050876 -11.91632838833398 1.4804824033376461e-15
    vertex 29.957700777697664 -11.64886586849942 1.4804824033376461e-15
  endloop
endfacet
facet normal 0.38268343236509156 0.9238795325112862 -2.710004055113551e-32
  outer loop
    vertex 30.60341242050876 -11.91632838833398 1.4804824033376461e-15
    vertex 29.957700777697664 -11.64886586849942 3.150000000000002
    vertex 30.60341242050876 -11.91632838833398 3.150000000000002
  endloop
endfacet
facet normal 0.3826834323650946 0.9238795325112847 0.0
  outer loop
    vertex 25.077321807595006 -21.487798097130018 3.150000000000002
    vertex 26.02697181750382 -21.881156010742 1.4804824033376461e-15
    vertex 25.077321807595006 -21.487798097130018 1.4804824033376461e-15
  endloop
endfacet
facet normal 0.3826834323650946 0.9238795325112847 0.0
  outer loop
    vertex 26.02697181750382 -21.881156010742 1.4804824033376461e-15
    vertex 25.077321807595006 -21.487798097130018 3.150000000000002
    vertex 26.02697181750382 -21.881156010742 3.150000000000002
  endloop
endfacet
facet normal 0.7933533402912347 -0.6087614290087212 1.0020317552960897e-32
  outer loop
    vertex 33.20756648898982 -21.63516368264254 1.4804824033376461e-15
    vertex 32.076911148358235 -23.10866241049203 3.150000000000002
    vertex 32.076911148358235 -23.10866241049203 1.4804824033376461e-15
  endloop
endfacet
facet normal 0.7933533402912347 -0.6087614290087212 1.0020317552960897e-32
  outer loop
    vertex 32.076911148358235 -23.10866241049203 3.150000000000002
    vertex 33.20756648898982 -21.63516368264254 1.4804824033376461e-15
    vertex 33.20756648898982 -21.63516368264254 3.150000000000002
  endloop
endfacet
facet normal -0.3826834323650896 0.923879532511287 -2.1363394792110577e-32
  outer loop
    vertex 24.134442837492344 -11.64886586849942 3.150000000000002
    vertex 25.2046568065175 -11.205568727888057 1.4804824033376461e-15
    vertex 24.134442837492344 -11.64886586849942 1.4804824033376461e-15
  endloop
endfacet
facet normal -0.3826834323650896 0.923879532511287 -2.1363394792110577e-32
  outer loop
    vertex 25.2046568065175 -11.205568727888057 1.4804824033376461e-15
    vertex 24.134442837492344 -11.64886586849942 3.150000000000002
    vertex 25.2046568065175 -11.205568727888057 3.150000000000002
  endloop
endfacet
facet normal -0.9238795325112866 0.38268343236509017 0.0
  outer loop
    vertex 30.849404748608208 -19.09692305981998 3.150000000000002
    vertex 30.45604683499623 -20.046573069728797 1.4804824033376461e-15
    vertex 30.45604683499623 -20.046573069728797 3.150000000000002
  endloop
endfacet
facet normal -0.9238795325112866 0.38268343236509017 0.0
  outer loop
    vertex 30.45604683499623 -20.046573069728797 1.4804824033376461e-15
    vertex 30.849404748608208 -19.09692305981998 3.150000000000002
    vertex 30.849404748608208 -19.09692305981998 1.4804824033376461e-15
  endloop
endfacet
facet normal 0.1305261922200508 0.9914448613738105 -2.6982167649126985e-32
  outer loop
    vertex 27.04607180759501 -10.963141843901312 3.150000000000002
    vertex 28.579565322523987 -11.165030095175782 1.4804824033376461e-15
    vertex 27.04607180759501 -10.963141843901312 1.4804824033376461e-15
  endloop
endfacet
facet normal 0.1305261922200508 0.9914448613738105 -2.6982167649126985e-32
  outer loop
    vertex 28.579565322523987 -11.165030095175782 1.4804824033376461e-15
    vertex 27.04607180759501 -10.963141843901312 3.150000000000002
    vertex 28.887486808672502 -11.205568727888057 1.4804824033376461e-15
  endloop
endfacet
facet normal 0.1305261922200508 0.9914448613738105 -2.6982167649126985e-32
  outer loop
    vertex 28.887486808672502 -11.205568727888057 1.4804824033376461e-15
    vertex 27.04607180759501 -10.963141843901312 3.150000000000002
    vertex 28.887486808672502 -11.205568727888057 3.150000000000002
  endloop
endfacet
facet normal 0.13052619222004913 0.9914448613738107 0.0
  outer loop
    vertex 26.02697181750382 -21.881156010742 3.150000000000002
    vertex 27.046071807595002 -22.01532306972879 1.4804824033376461e-15
    vertex 26.02697181750382 -21.881156010742 1.4804824033376461e-15
  endloop
endfacet
facet normal 0.13052619222004913 0.9914448613738107 0.0
  outer loop
    vertex 27.046071807595002 -22.01532306972879 1.4804824033376461e-15
    vertex 26.02697181750382 -21.881156010742 3.150000000000002
    vertex 27.046071807595002 -22.01532306972879 3.150000000000002
  endloop
endfacet
facet normal -0.9914448613738105 0.13052619222005168 0.0
  outer loop
    vertex 30.98357180759501 -18.077823069728794 3.150000000000002
    vertex 30.849404748608208 -19.09692305981998 1.4804824033376461e-15
    vertex 30.849404748608208 -19.09692305981998 3.150000000000002
  endloop
endfacet
facet normal -0.9914448613738105 0.13052619222005168 0.0
  outer loop
    vertex 30.849404748608208 -19.09692305981998 1.4804824033376461e-15
    vertex 30.98357180759501 -18.077823069728794 3.150000000000002
    vertex 30.98357180759501 -18.077823069728794 1.4804824033376461e-15
  endloop
endfacet
facet normal 0.7933533402912352 0.6087614290087207 -2.19131425097728e-32
  outer loop
    vertex 32.07691114835824 -13.046983728965566 1.4804824033376461e-15
    vertex 33.20756648898982 -14.520482456815053 3.150000000000002
    vertex 33.20756648898982 -14.520482456815053 1.4804824033376461e-15
  endloop
endfacet
facet normal 0.7933533402912352 0.6087614290087207 -2.19131425097728e-32
  outer loop
    vertex 33.20756648898982 -14.520482456815053 3.150000000000002
    vertex 32.07691114835824 -13.046983728965566 1.4804824033376461e-15
    vertex 32.07691114835824 -13.046983728965566 3.150000000000002
  endloop
endfacet
facet normal -0.3826834323650921 0.923879532511286 -2.1363394792110536e-32
  outer loop
    vertex 23.48873119468126 -11.91632838833398 3.150000000000002
    vertex 24.134442837492344 -11.64886586849942 1.4804824033376461e-15
    vertex 23.48873119468126 -11.91632838833398 1.4804824033376461e-15
  endloop
endfacet
facet normal -0.3826834323650921 0.923879532511286 -2.1363394792110536e-32
  outer loop
    vertex 24.134442837492344 -11.64886586849942 1.4804824033376461e-15
    vertex 23.48873119468126 -11.91632838833398 3.150000000000002
    vertex 24.134442837492344 -11.64886586849942 3.150000000000002
  endloop
endfacet
facet normal 0.608761429008722 0.7933533402912342 -2.537109047451866e-32
  outer loop
    vertex 30.60341242050876 -11.91632838833398 3.150000000000002
    vertex 32.07691114835824 -13.046983728965566 1.4804824033376461e-15
    vertex 30.60341242050876 -11.91632838833398 1.4804824033376461e-15
  endloop
endfacet
facet normal 0.608761429008722 0.7933533402912342 -2.537109047451866e-32
  outer loop
    vertex 32.07691114835824 -13.046983728965566 1.4804824033376461e-15
    vertex 30.60341242050876 -11.91632838833398 3.150000000000002
    vertex 32.07691114835824 -13.046983728965566 3.150000000000002
  endloop
endfacet
facet normal 0.38268343236509017 0.9238795325112867 -2.710004055113552e-32
  outer loop
    vertex 28.887486808672502 -11.205568727888057 3.150000000000002
    vertex 29.957700777697664 -11.64886586849942 1.4804824033376461e-15
    vertex 28.887486808672502 -11.205568727888057 1.4804824033376461e-15
  endloop
endfacet
facet normal 0.38268343236509017 0.9238795325112867 -2.710004055113552e-32
  outer loop
    vertex 29.957700777697664 -11.64886586849942 1.4804824033376461e-15
    vertex 28.887486808672502 -11.205568727888057 3.150000000000002
    vertex 29.957700777697664 -11.64886586849942 3.150000000000002
  endloop
endfacet
facet normal 0.9238795325112867 0.38268343236509017 -1.6961850096166124e-32
  outer loop
    vertex 33.20756648898982 -14.520482456815053 1.4804824033376461e-15
    vertex 33.91832614943574 -16.23640806865129 3.150000000000002
    vertex 33.91832614943574 -16.23640806865129 1.4804824033376461e-15
  endloop
endfacet
facet normal 0.9238795325112867 0.38268343236509017 -1.6961850096166124e-32
  outer loop
    vertex 33.91832614943574 -16.23640806865129 3.150000000000002
    vertex 33.20756648898982 -14.520482456815053 1.4804824033376461e-15
    vertex 33.20756648898982 -14.520482456815053 3.150000000000002
  endloop
endfacet
facet normal 0.6087614290087192 -0.7933533402912364 1.624540492184722e-32
  outer loop
    vertex 32.076911148358235 -23.10866241049203 3.150000000000002
    vertex 30.603412420508743 -24.239317751123608 1.4804824033376461e-15
    vertex 32.076911148358235 -23.10866241049203 1.4804824033376461e-15
  endloop
endfacet
facet normal 0.6087614290087192 -0.7933533402912364 1.624540492184722e-32
  outer loop
    vertex 30.603412420508743 -24.239317751123608 1.4804824033376461e-15
    vertex 32.076911148358235 -23.10866241049203 3.150000000000002
    vertex 30.603412420508743 -24.239317751123608 3.150000000000002
  endloop
endfacet
facet normal -0.6087614290087184 0.7933533402912369 -1.624540492184723e-32
  outer loop
    vertex 23.117630075087035 -12.201084292667844 3.150000000000002
    vertex 23.48873119468126 -11.91632838833398 1.4804824033376461e-15
    vertex 23.117630075087035 -12.201084292667844 1.4804824033376461e-15
  endloop
endfacet
facet normal -0.6087614290087184 0.7933533402912369 -1.624540492184723e-32
  outer loop
    vertex 23.48873119468126 -11.91632838833398 1.4804824033376461e-15
    vertex 23.117630075087035 -12.201084292667844 3.150000000000002
    vertex 23.48873119468126 -11.91632838833398 3.150000000000002
  endloop
endfacet
facet normal 0.6087614290087197 0.793353340291236 0.0
  outer loop
    vertex 24.261838856672977 -20.86205602065083 1.5750000000000017
    vertex 25.077321807595006 -21.487798097130018 1.4804824033376461e-15
    vertex 24.261838856672977 -20.86205602065083 1.4804824033376461e-15
  endloop
endfacet
facet normal 0.6087614290087197 0.793353340291236 0.0
  outer loop
    vertex 25.077321807595006 -21.487798097130018 1.4804824033376461e-15
    vertex 24.261838856672977 -20.86205602065083 1.5750000000000017
    vertex 25.077321807595006 -21.487798097130018 3.150000000000002
  endloop
endfacet
facet normal 0.6087614290087197 0.793353340291236 0.0
  outer loop
    vertex 25.077321807595006 -21.487798097130018 3.150000000000002
    vertex 24.261838856672977 -20.86205602065083 1.5750000000000017
    vertex 24.261838856672977 -20.86205602065083 3.150000000000002
  endloop
endfacet
facet normal -0.6087614290087192 0.7933533402912364 0.0
  outer loop
    vertex 29.014821807595006 -21.487798097130025 3.150000000000002
    vertex 29.830304758517038 -20.86205602065083 1.4804824033376461e-15
    vertex 29.014821807595006 -21.487798097130025 1.4804824033376461e-15
  endloop
endfacet
facet normal -0.6087614290087192 0.7933533402912364 0.0
  outer loop
    vertex 29.830304758517038 -20.86205602065083 1.4804824033376461e-15
    vertex 29.014821807595006 -21.487798097130025 3.150000000000002
    vertex 29.830304758517038 -20.86205602065083 3.150000000000002
  endloop
endfacet
facet normal 0.9914448613738104 0.13052619222005235 -1.0854635629288364e-32
  outer loop
    vertex 33.91832614943574 -16.23640806865129 1.4804824033376461e-15
    vertex 34.160753033422495 -18.077823069728794 3.150000000000002
    vertex 34.160753033422495 -18.077823069728794 1.4804824033376461e-15
  endloop
endfacet
facet normal 0.9914448613738104 0.13052619222005235 -1.0854635629288364e-32
  outer loop
    vertex 34.160753033422495 -18.077823069728794 3.150000000000002
    vertex 33.91832614943574 -16.23640806865129 1.4804824033376461e-15
    vertex 33.91832614943574 -16.23640806865129 3.150000000000002
  endloop
endfacet
facet normal 0.9238795325112865 -0.3826834323650904 3.112362102198026e-33
  outer loop
    vertex 33.91832614943574 -19.9192380708063 1.4804824033376461e-15
    vertex 33.20756648898982 -21.63516368264254 3.150000000000002
    vertex 33.20756648898982 -21.63516368264254 1.4804824033376461e-15
  endloop
endfacet
facet normal 0.9238795325112865 -0.3826834323650904 3.112362102198026e-33
  outer loop
    vertex 33.20756648898982 -21.63516368264254 3.150000000000002
    vertex 33.91832614943574 -19.9192380708063 1.4804824033376461e-15
    vertex 33.91832614943574 -19.9192380708063 3.150000000000002
  endloop
endfacet
facet normal -0.3826834323650921 -0.9238795325112859 -6.324403668144514e-19
  outer loop
    vertex 29.014821807595006 -14.667848042327563 3.150000000000002
    vertex 28.752247965747646 -14.559086395909976 1.4804824033376461e-15
    vertex 29.014821807595006 -14.667848042327563 1.4804824033376461e-15
  endloop
endfacet
facet normal -0.3826834323650921 -0.9238795325112859 -6.324403668144514e-19
  outer loop
    vertex 28.752247965747646 -14.559086395909976 1.4804824033376461e-15
    vertex 29.014821807595006 -14.667848042327563 3.150000000000002
    vertex 28.752247965747646 -14.559086395909976 3.150000000000002
  endloop
endfacet
facet normal -0.3826834323650896 0.923879532511287 0.0
  outer loop
    vertex 28.065171797686173 -21.881156010742 3.150000000000002
    vertex 29.014821807595006 -21.487798097130025 1.4804824033376461e-15
    vertex 28.065171797686173 -21.881156010742 1.4804824033376461e-15
  endloop
endfacet
facet normal -0.3826834323650896 0.923879532511287 0.0
  outer loop
    vertex 29.014821807595006 -21.487798097130025 1.4804824033376461e-15
    vertex 28.065171797686173 -21.881156010742 3.150000000000002
    vertex 29.014821807595006 -21.487798097130025 3.150000000000002
  endloop
endfacet
facet normal 0.38268343236508934 -0.923879532511287 2.136339479211059e-32
  outer loop
    vertex 30.603412420508743 -24.239317751123608 3.150000000000002
    vertex 28.887486808672495 -24.950077411569527 1.4804824033376461e-15
    vertex 30.603412420508743 -24.239317751123608 1.4804824033376461e-15
  endloop
endfacet
facet normal 0.38268343236508934 -0.923879532511287 2.136339479211059e-32
  outer loop
    vertex 28.887486808672495 -24.950077411569527 1.4804824033376461e-15
    vertex 30.603412420508743 -24.239317751123608 3.150000000000002
    vertex 28.887486808672495 -24.950077411569527 3.150000000000002
  endloop
endfacet
facet normal 9.409614934322738e-33 -2.456271940372954e-32 -1.0
  outer loop
    vertex 23.117630075087035 -12.201084292667844 1.4804824033376461e-15
    vertex 23.108571807595006 -18.077823069728787 0.0
    vertex 11.370429015968812 -12.839006677251557 1.4804824033376461e-15
  endloop
endfacet
facet normal 9.409614934322738e-33 -2.456271940372954e-32 -1.0
  outer loop
    vertex 23.108571807595006 -18.077823069728787 0.0
    vertex 23.117630075087035 -12.201084292667844 1.4804824033376461e-15
    vertex 23.242738866581803 -17.058723079637613 0.0
  endloop
endfacet
facet normal 9.409614934322738e-33 -2.456271940372954e-32 -1.0
  outer loop
    vertex 23.242738866581803 -17.058723079637613 0.0
    vertex 23.117630075087035 -12.201084292667844 1.4804824033376461e-15
    vertex 23.48873119468126 -11.91632838833398 1.4804824033376461e-15
  endloop
endfacet
facet normal 9.409614934322738e-33 -2.456271940372954e-32 -1.0
  outer loop
    vertex 23.242738866581803 -17.058723079637613 0.0
    vertex 23.48873119468126 -11.91632838833398 1.4804824033376461e-15
    vertex 23.636096780193782 -16.10907306972879 0.0
  endloop
endfacet
facet normal 9.409614934322738e-33 -2.456271940372954e-32 -1.0
  outer loop
    vertex 23.636096780193782 -16.10907306972879 0.0
    vertex 23.48873119468126 -11.91632838833398 1.4804824033376461e-15
    vertex 24.134442837492344 -11.64886586849942 1.4804824033376461e-15
  endloop
endfacet
facet normal 9.409614934322738e-33 -2.456271940372954e-32 -1.0
  outer loop
    vertex 23.636096780193782 -16.10907306972879 0.0
    vertex 24.134442837492344 -11.64886586849942 1.4804824033376461e-15
    vertex 24.261838856672977 -15.293590118806758 1.4804824033376461e-15
  endloop
endfacet
facet normal 9.409614934322738e-33 -2.456271940372954e-32 -1.0
  outer loop
    vertex 24.261838856672977 -15.293590118806758 1.4804824033376461e-15
    vertex 24.134442837492344 -11.64886586849942 1.4804824033376461e-15
    vertex 25.2046568065175 -11.205568727888057 1.4804824033376461e-15
  endloop
endfacet
facet normal 9.409614934322738e-33 -2.456271940372954e-32 -1.0
  outer loop
    vertex 24.261838856672977 -15.293590118806758 1.4804824033376461e-15
    vertex 25.2046568065175 -11.205568727888057 1.4804824033376461e-15
    vertex 25.07732180759501 -14.667848042327563 1.4804824033376461e-15
  endloop
endfacet
facet normal 9.409614934322738e-33 -2.456271940372954e-32 -1.0
  outer loop
    vertex 25.07732180759501 -14.667848042327563 1.4804824033376461e-15
    vertex 25.2046568065175 -11.205568727888057 1.4804824033376461e-15
    vertex 25.339895649442376 -14.559086395909976 1.4804824033376461e-15
  endloop
endfacet
facet normal 9.409614934322738e-33 -2.456271940372954e-32 -1.0
  outer loop
    vertex 25.339895649442376 -14.559086395909976 1.4804824033376461e-15
    vertex 25.2046568065175 -11.205568727888057 1.4804824033376461e-15
    vertex 26.851951583212067 -10.988698256273548 1.4804824033376461e-15
  endloop
endfacet
facet normal 9.409614934322738e-33 -2.456271940372954e-32 -1.0
  outer loop
    vertex 25.339895649442376 -14.559086395909976 1.4804824033376461e-15
    vertex 26.851951583212067 -10.988698256273548 1.4804824033376461e-15
    vertex 25.53862568817961 -14.47676971861408 1.4804824033376461e-15
  endloop
endfacet
facet normal 9.409614934322738e-33 -2.456271940372954e-32 -1.0
  outer loop
    vertex 25.53862568817961 -14.47676971861408 1.4804824033376461e-15
    vertex 26.851951583212067 -10.988698256273548 1.4804824033376461e-15
    vertex 26.026971817503835 -14.27449012871558 1.4804824033376461e-15
  endloop
endfacet
facet normal 9.409614934322738e-33 -2.456271940372954e-32 -1.0
  outer loop
    vertex 26.026971817503835 -14.27449012871558 1.4804824033376461e-15
    vertex 26.851951583212067 -10.988698256273548 1.4804824033376461e-15
    vertex 27.04607180759501 -14.140323069728788 1.4804824033376461e-15
  endloop
endfacet
facet normal 9.409614934322738e-33 -2.456271940372954e-32 -1.0
  outer loop
    vertex 27.04607180759501 -14.140323069728788 1.4804824033376461e-15
    vertex 26.851951583212067 -10.988698256273548 1.4804824033376461e-15
    vertex 27.04607180759501 -10.963141843901312 1.4804824033376461e-15
  endloop
endfacet
facet normal 9.409614934322738e-33 -2.456271940372954e-32 -1.0
  outer loop
    vertex 27.04607180759501 -14.140323069728788 1.4804824033376461e-15
    vertex 27.04607180759501 -10.963141843901312 1.4804824033376461e-15
    vertex 28.579565322523987 -11.165030095175782 1.4804824033376461e-15
  endloop
endfacet
facet normal 9.409614934322738e-33 -2.456271940372954e-32 -1.0
  outer loop
    vertex 27.04607180759501 -14.140323069728788 1.4804824033376461e-15
    vertex 28.579565322523987 -11.165030095175782 1.4804824033376461e-15
    vertex 27.555621802640587 -14.207406599222185 1.4804824033376461e-15
  endloop
endfacet
facet normal 9.409614934322738e-33 -2.456271940372954e-32 -1.0
  outer loop
    vertex 27.555621802640587 -14.207406599222185 1.4804824033376461e-15
    vertex 28.579565322523987 -11.165030095175782 1.4804824033376461e-15
    vertex 28.06517179768618 -14.27449012871558 1.4804824033376461e-15
  endloop
endfacet
facet normal 9.409614934322738e-33 -2.456271940372954e-32 -1.0
  outer loop
    vertex 28.06517179768618 -14.27449012871558 1.4804824033376461e-15
    vertex 28.579565322523987 -11.165030095175782 1.4804824033376461e-15
    vertex 28.752247965747646 -14.559086395909976 1.4804824033376461e-15
  endloop
endfacet
facet normal 9.409614934322738e-33 -2.456271940372954e-32 -1.0
  outer loop
    vertex 28.752247965747646 -14.559086395909976 1.4804824033376461e-15
    vertex 28.579565322523987 -11.165030095175782 1.4804824033376461e-15
    vertex 28.887486808672502 -11.205568727888057 1.4804824033376461e-15
  endloop
endfacet
facet normal 9.409614934322738e-33 -2.456271940372954e-32 -1.0
  outer loop
    vertex 28.752247965747646 -14.559086395909976 1.4804824033376461e-15
    vertex 28.887486808672502 -11.205568727888057 1.4804824033376461e-15
    vertex 29.014821807595006 -14.667848042327563 1.4804824033376461e-15
  endloop
endfacet
facet normal 9.409614934322738e-33 -2.456271940372954e-32 -1.0
  outer loop
    vertex 29.014821807595006 -14.667848042327563 1.4804824033376461e-15
    vertex 28.887486808672502 -11.205568727888057 1.4804824033376461e-15
    vertex 29.957700777697664 -11.64886586849942 1.4804824033376461e-15
  endloop
endfacet
facet normal 9.409614934322738e-33 -2.456271940372954e-32 -1.0
  outer loop
    vertex 29.014821807595006 -14.667848042327563 1.4804824033376461e-15
    vertex 29.957700777697664 -11.64886586849942 1.4804824033376461e-15
    vertex 29.830304758517038 -15.293590118806758 1.4804824033376461e-15
  endloop
endfacet
facet normal 9.409614934322738e-33 -2.456271940372954e-32 -1.0
  outer loop
    vertex 29.830304758517038 -15.293590118806758 1.4804824033376461e-15
    vertex 29.957700777697664 -11.64886586849942 1.4804824033376461e-15
    vertex 30.45604683499623 -16.109073069728794 1.4804824033376461e-15
  endloop
endfacet
facet normal 9.409614934322738e-33 -2.456271940372954e-32 -1.0
  outer loop
    vertex 30.45604683499623 -16.109073069728794 1.4804824033376461e-15
    vertex 29.957700777697664 -11.64886586849942 1.4804824033376461e-15
    vertex 30.60341242050876 -11.91632838833398 1.4804824033376461e-15
  endloop
endfacet
facet normal 9.409614934322738e-33 -2.456271940372954e-32 -1.0
  outer loop
    vertex 30.45604683499623 -16.109073069728794 1.4804824033376461e-15
    vertex 30.60341242050876 -11.91632838833398 1.4804824033376461e-15
    vertex 30.8494047486082 -17.058723079637616 1.4804824033376461e-15
  endloop
endfacet
facet normal 9.409614934322738e-33 -2.456271940372954e-32 -1.0
  outer loop
    vertex 30.8494047486082 -17.058723079637616 1.4804824033376461e-15
    vertex 30.60341242050876 -11.91632838833398 1.4804824033376461e-15
    vertex 32.07691114835824 -13.046983728965566 1.4804824033376461e-15
  endloop
endfacet
facet normal 9.409614934322738e-33 -2.456271940372954e-32 -1.0
  outer loop
    vertex 30.8494047486082 -17.058723079637616 1.4804824033376461e-15
    vertex 32.07691114835824 -13.046983728965566 1.4804824033376461e-15
    vertex 30.98357180759501 -18.077823069728794 1.4804824033376461e-15
  endloop
endfacet
facet normal 9.409614934322738e-33 -2.456271940372954e-32 -1.0
  outer loop
    vertex 30.98357180759501 -18.077823069728794 1.4804824033376461e-15
    vertex 32.07691114835824 -13.046983728965566 1.4804824033376461e-15
    vertex 32.076911148358235 -23.10866241049203 1.4804824033376461e-15
  endloop
endfacet
facet normal 9.409614934322738e-33 -2.456271940372954e-32 -1.0
  outer loop
    vertex 32.076911148358235 -23.10866241049203 1.4804824033376461e-15
    vertex 32.07691114835824 -13.046983728965566 1.4804824033376461e-15
    vertex 33.20756648898982 -21.63516368264254 1.4804824033376461e-15
  endloop
endfacet
facet normal 9.409614934322738e-33 -2.456271940372954e-32 -1.0
  outer loop
    vertex 33.20756648898982 -21.63516368264254 1.4804824033376461e-15
    vertex 32.07691114835824 -13.046983728965566 1.4804824033376461e-15
    vertex 33.20756648898982 -14.520482456815053 1.4804824033376461e-15
  endloop
endfacet
facet normal 9.409614934322738e-33 -2.456271940372954e-32 -1.0
  outer loop
    vertex 33.20756648898982 -21.63516368264254 1.4804824033376461e-15
    vertex 33.20756648898982 -14.520482456815053 1.4804824033376461e-15
    vertex 33.91832614943574 -16.23640806865129 1.4804824033376461e-15
  endloop
endfacet
facet normal 9.409614934322738e-33 -2.456271940372954e-32 -1.0
  outer loop
    vertex 33.20756648898982 -21.63516368264254 1.4804824033376461e-15
    vertex 33.91832614943574 -16.23640806865129 1.4804824033376461e-15
    vertex 33.91832614943574 -19.9192380708063 1.4804824033376461e-15
  endloop
endfacet
facet normal 9.409614934322738e-33 -2.456271940372954e-32 -1.0
  outer loop
    vertex 33.91832614943574 -19.9192380708063 1.4804824033376461e-15
    vertex 33.91832614943574 -16.23640806865129 1.4804824033376461e-15
    vertex 34.160753033422495 -18.077823069728794 1.4804824033376461e-15
  endloop
endfacet
facet normal 9.409614934322738e-33 -2.456271940372954e-32 -1.0
  outer loop
    vertex 6.564473220638423 -16.711988064027175 1.4804824033376461e-15
    vertex 6.56447322063842 -19.443658075430434 1.4804824033376461e-15
    vertex 6.384657630845477 -18.077823069728776 1.4804824033376461e-15
  endloop
endfacet
facet normal 9.409614934322738e-33 -2.456271940372954e-32 -1.0
  outer loop
    vertex 6.56447322063842 -19.443658075430434 1.4804824033376461e-15
    vertex 6.564473220638423 -16.711988064027175 1.4804824033376461e-15
    vertex 7.09166585473205 -20.716413682642496 1.4804824033376461e-15
  endloop
endfacet
facet normal 9.409614934322738e-33 -2.456271940372954e-32 -1.0
  outer loop
    vertex 7.09166585473205 -20.716413682642496 1.4804824033376461e-15
    vertex 6.564473220638423 -16.711988064027175 1.4804824033376461e-15
    vertex 7.091665854732056 -15.439232456815033 1.4804824033376461e-15
  endloop
endfacet
facet normal 9.409614934322738e-33 -2.456271940372954e-32 -1.0
  outer loop
    vertex 7.09166585473205 -20.716413682642496 1.4804824033376461e-15
    vertex 7.091665854732056 -15.439232456815033 1.4804824033376461e-15
    vertex 7.930308226339991 -21.809353700061727 1.4804824033376461e-15
  endloop
endfacet
facet normal 9.409614934322738e-33 -2.456271940372954e-32 -1.0
  outer loop
    vertex 7.930308226339991 -21.809353700061727 1.4804824033376461e-15
    vertex 7.091665854732056 -15.439232456815033 1.4804824033376461e-15
    vertex 7.930308226340041 -14.34629243939585 1.4804824033376461e-15
  endloop
endfacet
facet normal 9.409614934322738e-33 -2.456271940372954e-32 -1.0
  outer loop
    vertex 7.930308226339991 -21.809353700061727 1.4804824033376461e-15
    vertex 7.930308226340041 -14.34629243939585 1.4804824033376461e-15
    vertex 9.023248243759248 -22.647996071669702 1.4804824033376461e-15
  endloop
endfacet
facet normal 9.409614934322738e-33 -2.456271940372954e-32 -1.0
  outer loop
    vertex 9.023248243759248 -22.647996071669702 1.4804824033376461e-15
    vertex 7.930308226340041 -14.34629243939585 1.4804824033376461e-15
    vertex 9.023248243759191 -13.507650067787887 1.4804824033376461e-15
  endloop
endfacet
facet normal 9.409614934322738e-33 -2.456271940372954e-32 -1.0
  outer loop
    vertex 9.023248243759248 -22.647996071669702 1.4804824033376461e-15
    vertex 9.023248243759191 -13.507650067787887 1.4804824033376461e-15
    vertex 10.296003850971392 -12.980457433694198 1.4804824033376461e-15
  endloop
endfacet
facet normal 9.409614934322738e-33 -2.456271940372954e-32 -1.0
  outer loop
    vertex 9.023248243759248 -22.647996071669702 1.4804824033376461e-15
    vertex 10.296003850971392 -12.980457433694198 1.4804824033376461e-15
    vertex 10.296003850971356 -23.17518870576336 1.4804824033376461e-15
  endloop
endfacet
facet normal 9.409614934322738e-33 -2.456271940372954e-32 -1.0
  outer loop
    vertex 10.296003850971356 -23.17518870576336 1.4804824033376461e-15
    vertex 10.296003850971392 -12.980457433694198 1.4804824033376461e-15
    vertex 11.370429015968755 -23.31663946220602 1.4804824033376461e-15
  endloop
endfacet
facet normal 9.409614934322738e-33 -2.456271940372954e-32 -1.0
  outer loop
    vertex 11.370429015968755 -23.31663946220602 1.4804824033376461e-15
    vertex 10.296003850971392 -12.980457433694198 1.4804824033376461e-15
    vertex 11.370429015968812 -12.839006677251557 1.4804824033376461e-15
  endloop
endfacet
facet normal 9.409614934322738e-33 -2.456271940372954e-32 -1.0
  outer loop
    vertex 11.370429015968755 -23.31663946220602 1.4804824033376461e-15
    vertex 11.370429015968812 -12.839006677251557 1.4804824033376461e-15
    vertex 23.117630075087035 -23.954561846789748 1.4804824033376461e-15
  endloop
endfacet
facet normal 9.409614934322738e-33 -2.456271940372954e-32 -1.0
  outer loop
    vertex 23.117630075087035 -23.954561846789748 1.4804824033376461e-15
    vertex 11.370429015968812 -12.839006677251557 1.4804824033376461e-15
    vertex 23.108571807595006 -18.077823069728787 0.0
  endloop
endfacet
facet normal 9.409614934322738e-33 -2.456271940372954e-32 -1.0
  outer loop
    vertex 23.117630075087035 -23.954561846789748 1.4804824033376461e-15
    vertex 23.108571807595006 -18.077823069728787 0.0
    vertex 23.242738866581803 -19.096923059819975 0.0
  endloop
endfacet
facet normal 9.409614934322738e-33 -2.456271940372954e-32 -1.0
  outer loop
    vertex 23.117630075087035 -23.954561846789748 1.4804824033376461e-15
    vertex 23.242738866581803 -19.096923059819975 0.0
    vertex 23.488731194681257 -24.239317751123597 1.4804824033376461e-15
  endloop
endfacet
facet normal 9.409614934322738e-33 -2.456271940372954e-32 -1.0
  outer loop
    vertex 23.488731194681257 -24.239317751123597 1.4804824033376461e-15
    vertex 23.242738866581803 -19.096923059819975 0.0
    vertex 23.63609678019378 -20.046573069728794 0.0
  endloop
endfacet
facet normal 9.409614934322738e-33 -2.456271940372954e-32 -1.0
  outer loop
    vertex 23.488731194681257 -24.239317751123597 1.4804824033376461e-15
    vertex 23.63609678019378 -20.046573069728794 0.0
    vertex 25.20465680651749 -24.950077411569527 1.4804824033376461e-15
  endloop
endfacet
facet normal 9.409614934322738e-33 -2.456271940372954e-32 -1.0
  outer loop
    vertex 25.20465680651749 -24.950077411569527 1.4804824033376461e-15
    vertex 23.63609678019378 -20.046573069728794 0.0
    vertex 24.261838856672977 -20.86205602065083 1.4804824033376461e-15
  endloop
endfacet
facet normal 9.409614934322738e-33 -2.456271940372954e-32 -1.0
  outer loop
    vertex 25.20465680651749 -24.950077411569527 1.4804824033376461e-15
    vertex 24.261838856672977 -20.86205602065083 1.4804824033376461e-15
    vertex 25.077321807595006 -21.487798097130018 1.4804824033376461e-15
  endloop
endfacet
facet normal 9.409614934322738e-33 -2.456271940372954e-32 -1.0
  outer loop
    vertex 25.20465680651749 -24.950077411569527 1.4804824033376461e-15
    vertex 25.077321807595006 -21.487798097130018 1.4804824033376461e-15
    vertex 26.02697181750382 -21.881156010742 1.4804824033376461e-15
  endloop
endfacet
facet normal 9.409614934322738e-33 -2.456271940372954e-32 -1.0
  outer loop
    vertex 25.20465680651749 -24.950077411569527 1.4804824033376461e-15
    vertex 26.02697181750382 -21.881156010742 1.4804824033376461e-15
    vertex 27.04607180759501 -25.192504295556272 1.4804824033376461e-15
  endloop
endfacet
facet normal 9.409614934322738e-33 -2.456271940372954e-32 -1.0
  outer loop
    vertex 27.04607180759501 -25.192504295556272 1.4804824033376461e-15
    vertex 26.02697181750382 -21.881156010742 1.4804824033376461e-15
    vertex 27.046071807595002 -22.01532306972879 1.4804824033376461e-15
  endloop
endfacet
facet normal 9.409614934322738e-33 -2.456271940372954e-32 -1.0
  outer loop
    vertex 27.04607180759501 -25.192504295556272 1.4804824033376461e-15
    vertex 27.046071807595002 -22.01532306972879 1.4804824033376461e-15
    vertex 28.065171797686173 -21.881156010742 1.4804824033376461e-15
  endloop
endfacet
facet normal 9.409614934322738e-33 -2.456271940372954e-32 -1.0
  outer loop
    vertex 27.04607180759501 -25.192504295556272 1.4804824033376461e-15
    vertex 28.065171797686173 -21.881156010742 1.4804824033376461e-15
    vertex 28.887486808672495 -24.950077411569527 1.4804824033376461e-15
  endloop
endfacet
facet normal 9.409614934322738e-33 -2.456271940372954e-32 -1.0
  outer loop
    vertex 28.887486808672495 -24.950077411569527 1.4804824033376461e-15
    vertex 28.065171797686173 -21.881156010742 1.4804824033376461e-15
    vertex 29.014821807595006 -21.487798097130025 1.4804824033376461e-15
  endloop
endfacet
facet normal 9.409614934322738e-33 -2.456271940372954e-32 -1.0
  outer loop
    vertex 28.887486808672495 -24.950077411569527 1.4804824033376461e-15
    vertex 29.014821807595006 -21.487798097130025 1.4804824033376461e-15
    vertex 30.603412420508743 -24.239317751123608 1.4804824033376461e-15
  endloop
endfacet
facet normal 9.409614934322738e-33 -2.456271940372954e-32 -1.0
  outer loop
    vertex 30.603412420508743 -24.239317751123608 1.4804824033376461e-15
    vertex 29.014821807595006 -21.487798097130025 1.4804824033376461e-15
    vertex 29.830304758517038 -20.86205602065083 1.4804824033376461e-15
  endloop
endfacet
facet normal 9.409614934322738e-33 -2.456271940372954e-32 -1.0
  outer loop
    vertex 30.603412420508743 -24.239317751123608 1.4804824033376461e-15
    vertex 29.830304758517038 -20.86205602065083 1.4804824033376461e-15
    vertex 30.45604683499623 -20.046573069728797 1.4804824033376461e-15
  endloop
endfacet
facet normal 9.409614934322738e-33 -2.456271940372954e-32 -1.0
  outer loop
    vertex 30.603412420508743 -24.239317751123608 1.4804824033376461e-15
    vertex 30.45604683499623 -20.046573069728797 1.4804824033376461e-15
    vertex 30.849404748608208 -19.09692305981998 1.4804824033376461e-15
  endloop
endfacet
facet normal 9.409614934322738e-33 -2.456271940372954e-32 -1.0
  outer loop
    vertex 30.603412420508743 -24.239317751123608 1.4804824033376461e-15
    vertex 30.849404748608208 -19.09692305981998 1.4804824033376461e-15
    vertex 32.076911148358235 -23.10866241049203 1.4804824033376461e-15
  endloop
endfacet
facet normal 9.409614934322738e-33 -2.456271940372954e-32 -1.0
  outer loop
    vertex 32.076911148358235 -23.10866241049203 1.4804824033376461e-15
    vertex 30.849404748608208 -19.09692305981998 1.4804824033376461e-15
    vertex 30.98357180759501 -18.077823069728794 1.4804824033376461e-15
  endloop
endfacet
facet normal 0.1305261922200504 -0.9914448613738107 2.5025504611970815e-32
  outer loop
    vertex 28.887486808672495 -24.950077411569527 3.150000000000002
    vertex 27.04607180759501 -25.192504295556272 1.4804824033376461e-15
    vertex 28.887486808672495 -24.950077411569527 1.4804824033376461e-15
  endloop
endfacet
facet normal 0.1305261922200504 -0.9914448613738107 2.5025504611970815e-32
  outer loop
    vertex 27.04607180759501 -25.192504295556272 1.4804824033376461e-15
    vertex 28.887486808672495 -24.950077411569527 3.150000000000002
    vertex 27.04607180759501 -25.192504295556272 3.150000000000002
  endloop
endfacet
facet normal -0.13052619222004969 0.9914448613738107 0.0
  outer loop
    vertex 27.046071807595002 -22.01532306972879 3.150000000000002
    vertex 28.065171797686173 -21.881156010742 1.4804824033376461e-15
    vertex 27.046071807595002 -22.01532306972879 1.4804824033376461e-15
  endloop
endfacet
facet normal -0.13052619222004969 0.9914448613738107 0.0
  outer loop
    vertex 28.065171797686173 -21.881156010742 1.4804824033376461e-15
    vertex 27.046071807595002 -22.01532306972879 3.150000000000002
    vertex 28.065171797686173 -21.881156010742 3.150000000000002
  endloop
endfacet
facet normal -0.9238795325112868 -0.38268343236508995 0.0
  outer loop
    vertex 30.45604683499623 -16.109073069728794 3.150000000000002
    vertex 30.8494047486082 -17.058723079637616 1.4804824033376461e-15
    vertex 30.8494047486082 -17.058723079637616 3.150000000000002
  endloop
endfacet
facet normal -0.9238795325112868 -0.38268343236508995 0.0
  outer loop
    vertex 30.8494047486082 -17.058723079637616 1.4804824033376461e-15
    vertex 30.45604683499623 -16.109073069728794 3.150000000000002
    vertex 30.45604683499623 -16.109073069728794 1.4804824033376461e-15
  endloop
endfacet
facet normal -0.7933533402912347 0.6087614290087212 0.0
  outer loop
    vertex 30.45604683499623 -20.046573069728797 3.150000000000002
    vertex 29.830304758517038 -20.86205602065083 1.4804824033376461e-15
    vertex 29.830304758517038 -20.86205602065083 3.150000000000002
  endloop
endfacet
facet normal -0.7933533402912347 0.6087614290087212 0.0
  outer loop
    vertex 29.830304758517038 -20.86205602065083 1.4804824033376461e-15
    vertex 30.45604683499623 -20.046573069728797 3.150000000000002
    vertex 30.45604683499623 -20.046573069728797 1.4804824033376461e-15
  endloop
endfacet
facet normal -0.9914448613738105 -0.13052619222005232 0.0
  outer loop
    vertex 30.8494047486082 -17.058723079637616 3.150000000000002
    vertex 30.98357180759501 -18.077823069728794 1.4804824033376461e-15
    vertex 30.98357180759501 -18.077823069728794 3.150000000000002
  endloop
endfacet
facet normal -0.9914448613738105 -0.13052619222005232 0.0
  outer loop
    vertex 30.98357180759501 -18.077823069728794 1.4804824033376461e-15
    vertex 30.8494047486082 -17.058723079637616 3.150000000000002
    vertex 30.8494047486082 -17.058723079637616 1.4804824033376461e-15
  endloop
endfacet
facet normal -0.7933533402912355 -0.6087614290087203 0.0
  outer loop
    vertex 29.830304758517038 -15.293590118806758 3.150000000000002
    vertex 30.45604683499623 -16.109073069728794 1.4804824033376461e-15
    vertex 30.45604683499623 -16.109073069728794 3.150000000000002
  endloop
endfacet
facet normal -0.7933533402912355 -0.6087614290087203 0.0
  outer loop
    vertex 30.45604683499623 -16.109073069728794 1.4804824033376461e-15
    vertex 29.830304758517038 -15.293590118806758 3.150000000000002
    vertex 29.830304758517038 -15.293590118806758 1.4804824033376461e-15
  endloop
endfacet
endsolid Untitled-5a1a0d5e
