solid Untitled-5a1a0b6b
facet normal 0.9914448613738106 0.1305261922200515 0.0
  outer loop
    vertex -3.750000000000001 3.635113043909399e-15 -1.5000000000000016
    vertex -3.6222218485840068 -0.9705714191344512 0.0
    vertex -3.6222218485840068 -0.9705714191344512 -1.5000000000000016
  endloop
endfacet
facet normal 0.9914448613738106 0.1305261922200515 0.0
  outer loop
    vertex -3.6222218485840068 -0.9705714191344512 0.0
    vertex -3.750000000000001 3.635113043909399e-15 -1.5000000000000016
    vertex -3.750000000000001 3.635113043909399e-15 0.0
  endloop
endfacet
facet normal 0.9914448613738104 -0.1305261922200519 -0.0
  outer loop
    vertex -3.6222218485840068 0.9705714191344552 -1.5000000000000016
    vertex -3.750000000000001 3.635113043909399e-15 0.0
    vertex -3.750000000000001 3.635113043909399e-15 -1.5000000000000016
  endloop
endfacet
facet normal 0.9914448613738104 -0.1305261922200519 -0.0
  outer loop
    vertex -3.750000000000001 3.635113043909399e-15 0.0
    vertex -3.6222218485840068 0.9705714191344552 -1.5000000000000016
    vertex -3.6222218485840068 0.9705714191344552 0.0
  endloop
endfacet
facet normal 0.38268343236509167 -0.9238795325112862 0.0
  outer loop
    vertex -1.6249296744310735 3.3511777845893502 1.5
    vertex -1.8749999999999991 3.2475952641916455 -1.5
    vertex -1.6249296744310735 3.3511777845893502 -1.5
  endloop
endfacet
facet normal 0.38268343236509167 -0.9238795325112862 0.0
  outer loop
    vertex -1.8749999999999991 3.2475952641916455 -1.5
    vertex -1.6249296744310735 3.3511777845893502 1.5
    vertex -1.8749999999999991 3.2475952641916455 1.5
  endloop
endfacet
facet normal 0.9238795325112854 -0.3826834323650931 -0.0
  outer loop
    vertex -3.247595264191642 1.8750000000000022 -1.5000000000000016
    vertex -3.6222218485840068 0.9705714191344552 0.0
    vertex -3.6222218485840068 0.9705714191344552 -1.5000000000000016
  endloop
endfacet
facet normal 0.9238795325112854 -0.3826834323650931 -0.0
  outer loop
    vertex -3.6222218485840068 0.9705714191344552 0.0
    vertex -3.247595264191642 1.8750000000000022 -1.5000000000000016
    vertex -3.247595264191642 1.8750000000000022 0.0
  endloop
endfacet
facet normal 0.7933533402912358 0.6087614290087199 3.418809515019232e-18
  outer loop
    vertex -3.247595264191647 -1.8749999999999967 -1.5000000000000016
    vertex -2.6516504294495546 -2.6516504294495524 0.0
    vertex -2.6516504294495546 -2.6516504294495524 -1.5
  endloop
endfacet
facet normal 0.7933533402912358 0.6087614290087199 3.418809515019232e-18
  outer loop
    vertex -2.6516504294495546 -2.6516504294495524 0.0
    vertex -3.247595264191647 -1.8749999999999967 -1.5000000000000016
    vertex -3.247595264191647 -1.8749999999999967 0.0
  endloop
endfacet
facet normal 0.923879532511287 0.3826834323650894 0.0
  outer loop
    vertex -3.6222218485840068 -0.9705714191344512 -1.5000000000000016
    vertex -3.247595264191647 -1.8749999999999967 0.0
    vertex -3.247595264191647 -1.8749999999999967 -1.5000000000000016
  endloop
endfacet
facet normal 0.923879532511287 0.3826834323650894 0.0
  outer loop
    vertex -3.247595264191647 -1.8749999999999967 0.0
    vertex -3.6222218485840068 -0.9705714191344512 -1.5000000000000016
    vertex -3.6222218485840068 -0.9705714191344512 0.0
  endloop
endfacet
facet normal 0.7933533402912359 -0.6087614290087197 3.4188095150191504e-18
  outer loop
    vertex -2.6516504294495524 2.6516504294495546 -1.5
    vertex -3.247595264191642 1.8750000000000022 0.0
    vertex -3.247595264191642 1.8750000000000022 -1.5000000000000016
  endloop
endfacet
facet normal 0.7933533402912359 -0.6087614290087197 3.4188095150191504e-18
  outer loop
    vertex -3.247595264191642 1.8750000000000022 0.0
    vertex -2.6516504294495524 2.6516504294495546 -1.5
    vertex -2.6516504294495524 2.6516504294495546 0.0
  endloop
endfacet
facet normal -0.0 -0.0 1.0
  outer loop
    vertex -16.58350208202768 -0.5176380902050418 0.0
    vertex -16.583502082027678 0.5176380902050474 0.0
    vertex -16.651650429449557 5.287437154777308e-15 0.0
  endloop
endfacet
facet normal -0.0 -0.0 1.0
  outer loop
    vertex -16.583502082027678 0.5176380902050474 0.0
    vertex -16.58350208202768 -0.5176380902050418 0.0
    vertex -16.383701237018432 -0.9999999999999932 0.0
  endloop
endfacet
facet normal -0.0 -0.0 1.0
  outer loop
    vertex -16.583502082027678 0.5176380902050474 0.0
    vertex -16.383701237018432 -0.9999999999999932 0.0
    vertex -16.383701237018432 1.0000000000000113 0.0
  endloop
endfacet
facet normal -0.0 -0.0 1.0
  outer loop
    vertex -16.383701237018432 1.0000000000000113 0.0
    vertex -16.383701237018432 -0.9999999999999932 0.0
    vertex -16.065863991822635 1.4142135623731011 0.0
  endloop
endfacet
facet normal -0.0 -0.0 1.0
  outer loop
    vertex -16.065863991822635 1.4142135623731011 0.0
    vertex -16.383701237018432 -0.9999999999999932 0.0
    vertex -16.06586399182266 -1.4142135623730892 0.0
  endloop
endfacet
facet normal -0.0 -0.0 1.0
  outer loop
    vertex -16.065863991822635 1.4142135623731011 0.0
    vertex -16.06586399182266 -1.4142135623730892 0.0
    vertex -15.651650429449553 -1.7320508075688754 0.0
  endloop
endfacet
facet normal -0.0 -0.0 1.0
  outer loop
    vertex -16.065863991822635 1.4142135623731011 0.0
    vertex -15.651650429449553 -1.7320508075688754 0.0
    vertex -15.651650429449555 1.7320508075688932 0.0
  endloop
endfacet
facet normal -0.0 -0.0 1.0
  outer loop
    vertex -15.651650429449555 1.7320508075688932 0.0
    vertex -15.651650429449553 -1.7320508075688754 0.0
    vertex -15.169288519654598 1.931851652578149 0.0
  endloop
endfacet
facet normal -0.0 -0.0 1.0
  outer loop
    vertex -15.169288519654598 1.931851652578149 0.0
    vertex -15.651650429449553 -1.7320508075688754 0.0
    vertex -15.169288519654595 -1.9318516525781333 0.0
  endloop
endfacet
facet normal -0.0 -0.0 1.0
  outer loop
    vertex -15.169288519654598 1.931851652578149 0.0
    vertex -15.169288519654595 -1.9318516525781333 0.0
    vertex -14.65165042944954 2.0000000000000036 0.0
  endloop
endfacet
facet normal -0.0 -0.0 1.0
  outer loop
    vertex -14.65165042944954 2.0000000000000036 0.0
    vertex -15.169288519654595 -1.9318516525781333 0.0
    vertex -14.65165042944956 -1.9999999999999962 0.0
  endloop
endfacet
facet normal -0.0 -0.0 1.0
  outer loop
    vertex -14.65165042944954 2.0000000000000036 0.0
    vertex -14.65165042944956 -1.9999999999999962 0.0
    vertex -2.6516504294495546 -2.6516504294495524 0.0
  endloop
endfacet
facet normal -0.0 -0.0 1.0
  outer loop
    vertex -14.65165042944954 2.0000000000000036 0.0
    vertex -2.6516504294495546 -2.6516504294495524 0.0
    vertex -3.247595264191647 -1.8749999999999967 0.0
  endloop
endfacet
facet normal -0.0 -0.0 1.0
  outer loop
    vertex -14.65165042944954 2.0000000000000036 0.0
    vertex -3.247595264191647 -1.8749999999999967 0.0
    vertex -3.6222218485840068 -0.9705714191344512 0.0
  endloop
endfacet
facet normal -0.0 -0.0 1.0
  outer loop
    vertex -14.65165042944954 2.0000000000000036 0.0
    vertex -3.6222218485840068 -0.9705714191344512 0.0
    vertex -3.750000000000001 3.635113043909399e-15 0.0
  endloop
endfacet
facet normal -0.0 -0.0 1.0
  outer loop
    vertex -14.65165042944954 2.0000000000000036 0.0
    vertex -3.247595264191642 1.8750000000000022 0.0
    vertex -2.6516504294495524 2.6516504294495546 0.0
  endloop
endfacet
facet normal -0.0 -0.0 1.0
  outer loop
    vertex -3.247595264191642 1.8750000000000022 0.0
    vertex -14.65165042944954 2.0000000000000036 0.0
    vertex -3.6222218485840068 0.9705714191344552 0.0
  endloop
endfacet
facet normal -0.0 -0.0 1.0
  outer loop
    vertex -3.6222218485840068 0.9705714191344552 0.0
    vertex -14.65165042944954 2.0000000000000036 0.0
    vertex -3.750000000000001 3.635113043909399e-15 0.0
  endloop
endfacet
facet normal 0.6087614290087459 -0.7933533402912158 0.0
  outer loop
    vertex -15.651650429449555 1.7320508075688932 1.5
    vertex -16.065863991822635 1.4142135623731011 0.0
    vertex -15.651650429449555 1.7320508075688932 0.0
  endloop
endfacet
facet normal 0.6087614290087459 -0.7933533402912158 0.0
  outer loop
    vertex -16.065863991822635 1.4142135623731011 0.0
    vertex -15.651650429449555 1.7320508075688932 1.5
    vertex -16.065863991822635 1.4142135623731011 1.5
  endloop
endfacet
facet normal -0.6087614290087219 -0.7933533402912343 0.0
  outer loop
    vertex 2.651650429449554 2.6516504294495524 1.5
    vertex 1.8750000000000016 3.2475952641916455 -1.5
    vertex 2.651650429449554 2.6516504294495524 -1.5
  endloop
endfacet
facet normal -0.6087614290087219 -0.7933533402912343 0.0
  outer loop
    vertex 1.8750000000000016 3.2475952641916455 -1.5
    vertex 2.651650429449554 2.6516504294495524 1.5
    vertex 1.8750000000000016 3.2475952641916455 1.5
  endloop
endfacet
facet normal -0.13052619222005019 -0.9914448613738107 0.0
  outer loop
    vertex 0.9705714191344552 3.6222218485840076 1.5
    vertex 0.48528570956722844 3.686110924292004 -1.5
    vertex 0.9705714191344552 3.6222218485840076 -1.5
  endloop
endfacet
facet normal -0.13052619222005019 -0.9914448613738107 0.0
  outer loop
    vertex 0.48528570956722844 3.686110924292004 -1.5
    vertex 0.9705714191344552 3.6222218485840076 1.5
    vertex 1.4981071938535704e-15 3.75 -1.5
  endloop
endfacet
facet normal -0.13052619222005019 -0.9914448613738107 0.0
  outer loop
    vertex 1.4981071938535704e-15 3.75 -1.5
    vertex 0.9705714191344552 3.6222218485840076 1.5
    vertex 1.4981071938535704e-15 3.75 1.5
  endloop
endfacet
facet normal 0.6087614290087201 -0.7933533402912355 0.0
  outer loop
    vertex -1.8749999999999991 3.2475952641916455 1.5
    vertex -2.6516504294495524 2.6516504294495546 -1.5
    vertex -1.8749999999999991 3.2475952641916455 -1.5
  endloop
endfacet
facet normal 0.6087614290087201 -0.7933533402912355 0.0
  outer loop
    vertex -2.6516504294495524 2.6516504294495546 -1.5
    vertex -1.8749999999999991 3.2475952641916455 1.5
    vertex -2.6516504294495524 2.6516504294495546 0.0
  endloop
endfacet
facet normal 0.6087614290087201 -0.7933533402912355 0.0
  outer loop
    vertex -2.6516504294495524 2.6516504294495546 0.0
    vertex -1.8749999999999991 3.2475952641916455 1.5
    vertex -2.6516504294495524 2.6516504294495546 1.5
  endloop
endfacet
facet normal 0.05422430902058045 -0.9985287799113458 0.0
  outer loop
    vertex -2.6516504294495524 2.6516504294495546 1.5
    vertex -14.65165042944954 2.0000000000000036 0.0
    vertex -2.6516504294495524 2.6516504294495546 0.0
  endloop
endfacet
facet normal 0.05422430902058045 -0.9985287799113458 0.0
  outer loop
    vertex -14.65165042944954 2.0000000000000036 0.0
    vertex -2.6516504294495524 2.6516504294495546 1.5
    vertex -14.65165042944954 2.0000000000000036 1.5
  endloop
endfacet
facet normal 0.1305261922200307 -0.9914448613738134 0.0
  outer loop
    vertex -14.65165042944954 2.0000000000000036 1.5
    vertex -15.169288519654598 1.931851652578149 0.0
    vertex -14.65165042944954 2.0000000000000036 0.0
  endloop
endfacet
facet normal 0.1305261922200307 -0.9914448613738134 0.0
  outer loop
    vertex -15.169288519654598 1.931851652578149 0.0
    vertex -14.65165042944954 2.0000000000000036 1.5
    vertex -15.169288519654598 1.931851652578149 1.5
  endloop
endfacet
facet normal 0.130526192220051 -0.9914448613738105 0.0
  outer loop
    vertex 1.4981071938535704e-15 3.75 1.5
    vertex -0.9705714191344519 3.6222218485840068 -1.5
    vertex 1.4981071938535704e-15 3.75 -1.5
  endloop
endfacet
facet normal 0.130526192220051 -0.9914448613738105 0.0
  outer loop
    vertex -0.9705714191344519 3.6222218485840068 -1.5
    vertex 1.4981071938535704e-15 3.75 1.5
    vertex -0.9705714191344519 3.6222218485840068 1.5
  endloop
endfacet
facet normal 0.3826834323650844 -0.923879532511289 0.0
  outer loop
    vertex -15.169288519654598 1.931851652578149 1.5
    vertex -15.651650429449555 1.7320508075688932 0.0
    vertex -15.169288519654598 1.931851652578149 0.0
  endloop
endfacet
facet normal 0.3826834323650844 -0.923879532511289 0.0
  outer loop
    vertex -15.651650429449555 1.7320508075688932 0.0
    vertex -15.169288519654598 1.931851652578149 1.5
    vertex -15.651650429449555 1.7320508075688932 1.5
  endloop
endfacet
facet normal 0.9238795325112973 -0.3826834323650644 -0.0
  outer loop
    vertex -16.383701237018432 1.0000000000000113 0.0
    vertex -16.583502082027678 0.5176380902050474 1.5
    vertex -16.583502082027678 0.5176380902050474 0.0
  endloop
endfacet
facet normal 0.9238795325112973 -0.3826834323650644 -0.0
  outer loop
    vertex -16.583502082027678 0.5176380902050474 1.5
    vertex -16.383701237018432 1.0000000000000113 0.0
    vertex -16.383701237018432 1.0000000000000113 1.5
  endloop
endfacet
facet normal 0.793353340291218 -0.6087614290087431 -0.0
  outer loop
    vertex -16.065863991822635 1.4142135623731011 0.0
    vertex -16.383701237018432 1.0000000000000113 1.5
    vertex -16.383701237018432 1.0000000000000113 0.0
  endloop
endfacet
facet normal 0.793353340291218 -0.6087614290087431 -0.0
  outer loop
    vertex -16.383701237018432 1.0000000000000113 1.5
    vertex -16.065863991822635 1.4142135623731011 0.0
    vertex -16.065863991822635 1.4142135623731011 1.5
  endloop
endfacet
facet normal 0.1305261922200529 0.9914448613738103 -0.0
  outer loop
    vertex -15.169288519654595 -1.9318516525781333 1.5
    vertex -14.65165042944956 -1.9999999999999962 0.0
    vertex -15.169288519654595 -1.9318516525781333 0.0
  endloop
endfacet
facet normal 0.1305261922200529 0.9914448613738103 -0.0
  outer loop
    vertex -14.65165042944956 -1.9999999999999962 0.0
    vertex -15.169288519654595 -1.9318516525781333 1.5
    vertex -14.65165042944956 -1.9999999999999962 1.5
  endloop
endfacet
facet normal 0.6087614290087155 0.793353340291239 -0.0
  outer loop
    vertex -16.06586399182266 -1.4142135623730892 1.5
    vertex -15.651650429449553 -1.7320508075688754 0.0
    vertex -16.06586399182266 -1.4142135623730892 0.0
  endloop
endfacet
facet normal 0.6087614290087155 0.793353340291239 -0.0
  outer loop
    vertex -15.651650429449553 -1.7320508075688754 0.0
    vertex -16.06586399182266 -1.4142135623730892 1.5
    vertex -15.651650429449553 -1.7320508075688754 1.5
  endloop
endfacet
facet normal 0.05422430902058078 0.9985287799113458 -0.0
  outer loop
    vertex -14.65165042944956 -1.9999999999999962 1.5
    vertex -2.6516504294495546 -2.6516504294495524 0.0
    vertex -14.65165042944956 -1.9999999999999962 0.0
  endloop
endfacet
facet normal 0.05422430902058078 0.9985287799113458 -0.0
  outer loop
    vertex -2.6516504294495546 -2.6516504294495524 0.0
    vertex -14.65165042944956 -1.9999999999999962 1.5
    vertex -2.6516504294495546 -2.6516504294495524 1.5
  endloop
endfacet
facet normal 0.991444861373807 -0.13052619222007814 -0.0
  outer loop
    vertex -16.583502082027678 0.5176380902050474 0.0
    vertex -16.651650429449557 5.287437154777308e-15 1.5
    vertex -16.651650429449557 5.287437154777308e-15 0.0
  endloop
endfacet
facet normal 0.991444861373807 -0.13052619222007814 -0.0
  outer loop
    vertex -16.651650429449557 5.287437154777308e-15 1.5
    vertex -16.583502082027678 0.5176380902050474 0.0
    vertex -16.583502082027678 0.5176380902050474 1.5
  endloop
endfacet
facet normal 0.38268343236508734 0.9238795325112878 -0.0
  outer loop
    vertex -15.651650429449553 -1.7320508075688754 1.5
    vertex -15.169288519654595 -1.9318516525781333 0.0
    vertex -15.651650429449553 -1.7320508075688754 0.0
  endloop
endfacet
facet normal 0.38268343236508734 0.9238795325112878 -0.0
  outer loop
    vertex -15.169288519654595 -1.9318516525781333 0.0
    vertex -15.651650429449553 -1.7320508075688754 1.5
    vertex -15.169288519654595 -1.9318516525781333 1.5
  endloop
endfacet
facet normal 0.92387953251129 0.3826834323650821 -0.0
  outer loop
    vertex -16.58350208202768 -0.5176380902050418 0.0
    vertex -16.383701237018432 -0.9999999999999932 1.5
    vertex -16.383701237018432 -0.9999999999999932 0.0
  endloop
endfacet
facet normal 0.92387953251129 0.3826834323650821 -0.0
  outer loop
    vertex -16.383701237018432 -0.9999999999999932 1.5
    vertex -16.58350208202768 -0.5176380902050418 0.0
    vertex -16.58350208202768 -0.5176380902050418 1.5
  endloop
endfacet
facet normal 0.793353340291246 0.6087614290087068 -0.0
  outer loop
    vertex -16.383701237018432 -0.9999999999999932 0.0
    vertex -16.06586399182266 -1.4142135623730892 1.5
    vertex -16.06586399182266 -1.4142135623730892 0.0
  endloop
endfacet
facet normal 0.793353340291246 0.6087614290087068 -0.0
  outer loop
    vertex -16.06586399182266 -1.4142135623730892 1.5
    vertex -16.383701237018432 -0.9999999999999932 0.0
    vertex -16.383701237018432 -0.9999999999999932 1.5
  endloop
endfacet
facet normal 0.9914448613738079 0.13052619222007164 -0.0
  outer loop
    vertex -16.651650429449557 5.287437154777308e-15 0.0
    vertex -16.58350208202768 -0.5176380902050418 1.5
    vertex -16.58350208202768 -0.5176380902050418 0.0
  endloop
endfacet
facet normal 0.9914448613738079 0.13052619222007164 -0.0
  outer loop
    vertex -16.58350208202768 -0.5176380902050418 1.5
    vertex -16.651650429449557 5.287437154777308e-15 0.0
    vertex -16.651650429449557 5.287437154777308e-15 1.5
  endloop
endfacet
facet normal 0.38268343236508934 -0.9238795325112871 0.0
  outer loop
    vertex -0.9705714191344519 3.6222218485840068 1.5
    vertex -1.435662970871805 3.429574620109247 -1.5
    vertex -0.9705714191344519 3.6222218485840068 -1.5
  endloop
endfacet
facet normal 0.38268343236508934 -0.9238795325112871 0.0
  outer loop
    vertex -1.435662970871805 3.429574620109247 -1.5
    vertex -0.9705714191344519 3.6222218485840068 1.5
    vertex -1.6249296744310735 3.3511777845893502 -1.5
  endloop
endfacet
facet normal 0.38268343236508934 -0.9238795325112871 0.0
  outer loop
    vertex -1.6249296744310735 3.3511777845893502 -1.5
    vertex -0.9705714191344519 3.6222218485840068 1.5
    vertex -1.6249296744310735 3.3511777845893502 1.5
  endloop
endfacet
facet normal -0.38268343236509045 -0.9238795325112865 0.0
  outer loop
    vertex 1.624929674431078 3.35117778458935 1.5
    vertex 0.9705714191344552 3.6222218485840076 -1.5
    vertex 1.624929674431078 3.35117778458935 -1.5
  endloop
endfacet
facet normal -0.38268343236509045 -0.9238795325112865 0.0
  outer loop
    vertex 0.9705714191344552 3.6222218485840076 -1.5
    vertex 1.624929674431078 3.35117778458935 1.5
    vertex 0.9705714191344552 3.6222218485840076 1.5
  endloop
endfacet
facet normal 7.495288891357118e-33 2.6228222207452154e-32 1.0
  outer loop
    vertex -17.164593870319766 -4.352545716134199 1.5
    vertex -16.58350208202768 -0.5176380902050418 1.5
    vertex -16.651650429449557 5.287437154777308e-15 1.5
  endloop
endfacet
facet normal 7.495288891357118e-33 2.6228222207452154e-32 1.0
  outer loop
    vertex -16.58350208202768 -0.5176380902050418 1.5
    vertex -17.164593870319766 -4.352545716134199 1.5
    vertex -15.952445672974902 -4.854633939080537 1.5
  endloop
endfacet
facet normal 7.495288891357118e-33 2.6228222207452154e-32 1.0
  outer loop
    vertex -16.58350208202768 -0.5176380902050418 1.5
    vertex -15.952445672974902 -4.854633939080537 1.5
    vertex -16.383701237018432 -0.9999999999999932 1.5
  endloop
endfacet
facet normal 7.495288891357118e-33 2.6228222207452154e-32 1.0
  outer loop
    vertex -16.383701237018432 -0.9999999999999932 1.5
    vertex -15.952445672974902 -4.854633939080537 1.5
    vertex -16.06586399182266 -1.4142135623730892 1.5
  endloop
endfacet
facet normal 7.495288891357118e-33 2.6228222207452154e-32 1.0
  outer loop
    vertex -16.06586399182266 -1.4142135623730892 1.5
    vertex -15.952445672974902 -4.854633939080537 1.5
    vertex -15.651650429449553 -1.7320508075688754 1.5
  endloop
endfacet
facet normal 7.495288891357118e-33 2.6228222207452154e-32 1.0
  outer loop
    vertex -15.651650429449553 -1.7320508075688754 1.5
    vertex -15.952445672974902 -4.854633939080537 1.5
    vertex -14.929183611072618 -4.989348945216403 1.5
  endloop
endfacet
facet normal 7.495288891357118e-33 2.6228222207452154e-32 1.0
  outer loop
    vertex -15.651650429449553 -1.7320508075688754 1.5
    vertex -14.929183611072618 -4.989348945216403 1.5
    vertex -15.169288519654595 -1.9318516525781333 1.5
  endloop
endfacet
facet normal 7.495288891357118e-33 2.6228222207452154e-32 1.0
  outer loop
    vertex -15.169288519654595 -1.9318516525781333 1.5
    vertex -14.929183611072618 -4.989348945216403 1.5
    vertex -14.65165042944956 -1.9999999999999962 1.5
  endloop
endfacet
facet normal 7.495288891357118e-33 2.6228222207452154e-32 1.0
  outer loop
    vertex -14.65165042944956 -1.9999999999999962 1.5
    vertex -14.929183611072618 -4.989348945216403 1.5
    vertex -3.7413730785790187 -5.59689407339138 1.5
  endloop
endfacet
facet normal 7.495288891357118e-33 2.6228222207452154e-32 1.0
  outer loop
    vertex -14.65165042944956 -1.9999999999999962 1.5
    vertex -3.7413730785790187 -5.59689407339138 1.5
    vertex -2.6516504294495546 -2.6516504294495524 1.5
  endloop
endfacet
facet normal 7.495288891357118e-33 2.6228222207452154e-32 1.0
  outer loop
    vertex -2.6516504294495546 -2.6516504294495524 1.5
    vertex -3.7413730785790187 -5.59689407339138 1.5
    vertex -3.387943440870237 -5.868090172756954 1.5
  endloop
endfacet
facet normal 7.495288891357118e-33 2.6228222207452154e-32 1.0
  outer loop
    vertex -2.6516504294495546 -2.6516504294495524 1.5
    vertex -3.387943440870237 -5.868090172756954 1.5
    vertex -1.7537285724547722 -6.545004135086412 1.5
  endloop
endfacet
facet normal 7.495288891357118e-33 2.6228222207452154e-32 1.0
  outer loop
    vertex -2.6516504294495546 -2.6516504294495524 1.5
    vertex -1.7537285724547722 -6.545004135086412 1.5
    vertex -1.8750000000000022 -3.247595264191642 1.5
  endloop
endfacet
facet normal 7.495288891357118e-33 2.6228222207452154e-32 1.0
  outer loop
    vertex -1.8750000000000022 -3.247595264191642 1.5
    vertex -1.7537285724547722 -6.545004135086412 1.5
    vertex -0.9705714191344579 -3.6222218485840076 1.5
  endloop
endfacet
facet normal 7.495288891357118e-33 2.6228222207452154e-32 1.0
  outer loop
    vertex -0.9705714191344579 -3.6222218485840076 1.5
    vertex -1.7537285724547722 -6.545004135086412 1.5
    vertex 1.4099832412739487e-15 -6.775886881740457 1.5
  endloop
endfacet
facet normal 7.495288891357118e-33 2.6228222207452154e-32 1.0
  outer loop
    vertex -0.9705714191344579 -3.6222218485840076 1.5
    vertex 1.4099832412739487e-15 -6.775886881740457 1.5
    vertex -1.7845100397373415e-15 -3.7499999999999996 1.5
  endloop
endfacet
facet normal 7.495288891357118e-33 2.6228222207452154e-32 1.0
  outer loop
    vertex -1.7845100397373415e-15 -3.7499999999999996 1.5
    vertex 1.4099832412739487e-15 -6.775886881740457 1.5
    vertex 0.9705714191344503 -3.6222218485840076 1.5
  endloop
endfacet
facet normal 7.495288891357118e-33 2.6228222207452154e-32 1.0
  outer loop
    vertex 0.9705714191344503 -3.6222218485840076 1.5
    vertex 1.4099832412739487e-15 -6.775886881740457 1.5
    vertex 1.7537285724547582 -6.545004135086412 1.5
  endloop
endfacet
facet normal 7.495288891357118e-33 2.6228222207452154e-32 1.0
  outer loop
    vertex 0.9705714191344503 -3.6222218485840076 1.5
    vertex 1.7537285724547582 -6.545004135086412 1.5
    vertex 1.8749999999999967 -3.247595264191647 1.5
  endloop
endfacet
facet normal 7.495288891357118e-33 2.6228222207452154e-32 1.0
  outer loop
    vertex 1.8749999999999967 -3.247595264191647 1.5
    vertex 1.7537285724547582 -6.545004135086412 1.5
    vertex 3.387943440870223 -5.868090172756965 1.5
  endloop
endfacet
facet normal 7.495288891357118e-33 2.6228222207452154e-32 1.0
  outer loop
    vertex 1.8749999999999967 -3.247595264191647 1.5
    vertex 3.387943440870223 -5.868090172756965 1.5
    vertex 2.6516504294495538 -2.651650429449554 1.5
  endloop
endfacet
facet normal 7.495288891357118e-33 2.6228222207452154e-32 1.0
  outer loop
    vertex 2.6516504294495538 -2.651650429449554 1.5
    vertex 3.387943440870223 -5.868090172756965 1.5
    vertex 3.2475952641916463 -1.875000000000001 1.5
  endloop
endfacet
facet normal 7.495288891357118e-33 2.6228222207452154e-32 1.0
  outer loop
    vertex 3.2475952641916463 -1.875000000000001 1.5
    vertex 3.387943440870223 -5.868090172756965 1.5
    vertex 3.6222218485840076 -0.9705714191344549 1.5
  endloop
endfacet
facet normal 7.495288891357118e-33 2.6228222207452154e-32 1.0
  outer loop
    vertex 3.6222218485840076 -0.9705714191344549 1.5
    vertex 3.387943440870223 -5.868090172756965 1.5
    vertex 4.791275562631646 -4.791275562631653 1.5
  endloop
endfacet
facet normal 7.495288891357118e-33 2.6228222207452154e-32 1.0
  outer loop
    vertex 3.6222218485840076 -0.9705714191344549 1.5
    vertex 4.791275562631646 -4.791275562631653 1.5
    vertex 3.7500000000000018 -1.6523241108679088e-15 1.5
  endloop
endfacet
facet normal 7.495288891357118e-33 2.6228222207452154e-32 1.0
  outer loop
    vertex -19.50628436853008 -1.3007952435253674 1.5
    vertex -19.506284368530075 1.3007952435253505 1.5
    vertex -19.677537311190022 1.5509815654013436e-14 1.5
  endloop
endfacet
facet normal 7.495288891357118e-33 2.6228222207452154e-32 1.0
  outer loop
    vertex -19.506284368530075 1.3007952435253505 1.5
    vertex -19.50628436853008 -1.3007952435253674 1.5
    vertex -19.004196145583766 -2.512943440870188 1.5
  endloop
endfacet
facet normal 7.495288891357118e-33 2.6228222207452154e-32 1.0
  outer loop
    vertex -19.506284368530075 1.3007952435253505 1.5
    vertex -19.004196145583766 -2.512943440870188 1.5
    vertex -19.00419614558376 2.512943440870247 1.5
  endloop
endfacet
facet normal 7.495288891357118e-33 2.6228222207452154e-32 1.0
  outer loop
    vertex -19.00419614558376 2.512943440870247 1.5
    vertex -19.004196145583766 -2.512943440870188 1.5
    vertex -18.20548912500477 -3.5538386955551746 1.5
  endloop
endfacet
facet normal 7.495288891357118e-33 2.6228222207452154e-32 1.0
  outer loop
    vertex -19.00419614558376 2.512943440870247 1.5
    vertex -18.20548912500477 -3.5538386955551746 1.5
    vertex -18.205489125004725 3.5538386955551844 1.5
  endloop
endfacet
facet normal 7.495288891357118e-33 2.6228222207452154e-32 1.0
  outer loop
    vertex -18.205489125004725 3.5538386955551844 1.5
    vertex -18.20548912500477 -3.5538386955551746 1.5
    vertex -17.164593870319766 -4.352545716134199 1.5
  endloop
endfacet
facet normal 7.495288891357118e-33 2.6228222207452154e-32 1.0
  outer loop
    vertex -18.205489125004725 3.5538386955551844 1.5
    vertex -17.164593870319766 -4.352545716134199 1.5
    vertex -17.164593870319823 4.352545716134197 1.5
  endloop
endfacet
facet normal 7.495288891357118e-33 2.6228222207452154e-32 1.0
  outer loop
    vertex -17.164593870319823 4.352545716134197 1.5
    vertex -17.164593870319766 -4.352545716134199 1.5
    vertex -16.651650429449557 5.287437154777308e-15 1.5
  endloop
endfacet
facet normal 7.495288891357118e-33 2.6228222207452154e-32 1.0
  outer loop
    vertex -17.164593870319823 4.352545716134197 1.5
    vertex -16.651650429449557 5.287437154777308e-15 1.5
    vertex -16.583502082027678 0.5176380902050474 1.5
  endloop
endfacet
facet normal 7.495288891357118e-33 2.6228222207452154e-32 1.0
  outer loop
    vertex -17.164593870319823 4.352545716134197 1.5
    vertex -16.583502082027678 0.5176380902050474 1.5
    vertex -15.952445672974868 4.854633939080567 1.5
  endloop
endfacet
facet normal 7.495288891357118e-33 2.6228222207452154e-32 1.0
  outer loop
    vertex -15.952445672974868 4.854633939080567 1.5
    vertex -16.583502082027678 0.5176380902050474 1.5
    vertex -16.383701237018432 1.0000000000000113 1.5
  endloop
endfacet
facet normal 7.495288891357118e-33 2.6228222207452154e-32 1.0
  outer loop
    vertex -15.952445672974868 4.854633939080567 1.5
    vertex -16.383701237018432 1.0000000000000113 1.5
    vertex -16.065863991822635 1.4142135623731011 1.5
  endloop
endfacet
facet normal 7.495288891357118e-33 2.6228222207452154e-32 1.0
  outer loop
    vertex -15.952445672974868 4.854633939080567 1.5
    vertex -16.065863991822635 1.4142135623731011 1.5
    vertex -15.651650429449555 1.7320508075688932 1.5
  endloop
endfacet
facet normal 7.495288891357118e-33 2.6228222207452154e-32 1.0
  outer loop
    vertex -15.952445672974868 4.854633939080567 1.5
    vertex -15.651650429449555 1.7320508075688932 1.5
    vertex -14.929183611072563 4.9893489452164115 1.5
  endloop
endfacet
facet normal 7.495288891357118e-33 2.6228222207452154e-32 1.0
  outer loop
    vertex -14.929183611072563 4.9893489452164115 1.5
    vertex -15.651650429449555 1.7320508075688932 1.5
    vertex -15.169288519654598 1.931851652578149 1.5
  endloop
endfacet
facet normal 7.495288891357118e-33 2.6228222207452154e-32 1.0
  outer loop
    vertex -14.929183611072563 4.9893489452164115 1.5
    vertex -15.169288519654598 1.931851652578149 1.5
    vertex -14.65165042944954 2.0000000000000036 1.5
  endloop
endfacet
facet normal 7.495288891357118e-33 2.6228222207452154e-32 1.0
  outer loop
    vertex -14.929183611072563 4.9893489452164115 1.5
    vertex -14.65165042944954 2.0000000000000036 1.5
    vertex -3.7413730785790182 5.596894073391382 1.5
  endloop
endfacet
facet normal 7.495288891357118e-33 2.6228222207452154e-32 1.0
  outer loop
    vertex -3.7413730785790182 5.596894073391382 1.5
    vertex -14.65165042944954 2.0000000000000036 1.5
    vertex -2.6516504294495524 2.6516504294495546 1.5
  endloop
endfacet
facet normal 7.495288891357118e-33 2.6228222207452154e-32 1.0
  outer loop
    vertex -3.7413730785790182 5.596894073391382 1.5
    vertex -2.6516504294495524 2.6516504294495546 1.5
    vertex -3.38794344087023 5.868090172756959 1.5
  endloop
endfacet
facet normal 7.495288891357118e-33 2.6228222207452154e-32 1.0
  outer loop
    vertex -3.38794344087023 5.868090172756959 1.5
    vertex -2.6516504294495524 2.6516504294495546 1.5
    vertex -2.772979971526348 6.122816382123209 1.5
  endloop
endfacet
facet normal 7.495288891357118e-33 2.6228222207452154e-32 1.0
  outer loop
    vertex -2.772979971526348 6.122816382123209 1.5
    vertex -2.6516504294495524 2.6516504294495546 1.5
    vertex -1.7537285724547595 6.545004135086412 1.5
  endloop
endfacet
facet normal 7.495288891357118e-33 2.6228222207452154e-32 1.0
  outer loop
    vertex -1.7537285724547595 6.545004135086412 1.5
    vertex -2.6516504294495524 2.6516504294495546 1.5
    vertex -1.8749999999999991 3.2475952641916455 1.5
  endloop
endfacet
facet normal 7.495288891357118e-33 2.6228222207452154e-32 1.0
  outer loop
    vertex -1.7537285724547595 6.545004135086412 1.5
    vertex -1.8749999999999991 3.2475952641916455 1.5
    vertex -1.6249296744310735 3.3511777845893502 1.5
  endloop
endfacet
facet normal 7.495288891357118e-33 2.6228222207452154e-32 1.0
  outer loop
    vertex -1.7537285724547595 6.545004135086412 1.5
    vertex -1.6249296744310735 3.3511777845893502 1.5
    vertex 1.4099832412739487e-15 6.775886881740458 1.5
  endloop
endfacet
facet normal 7.495288891357118e-33 2.6228222207452154e-32 1.0
  outer loop
    vertex 1.4099832412739487e-15 6.775886881740458 1.5
    vertex -1.6249296744310735 3.3511777845893502 1.5
    vertex -0.9705714191344519 3.6222218485840068 1.5
  endloop
endfacet
facet normal 7.495288891357118e-33 2.6228222207452154e-32 1.0
  outer loop
    vertex 1.4099832412739487e-15 6.775886881740458 1.5
    vertex -0.9705714191344519 3.6222218485840068 1.5
    vertex 1.4981071938535704e-15 3.75 1.5
  endloop
endfacet
facet normal 7.495288891357118e-33 2.6228222207452154e-32 1.0
  outer loop
    vertex 1.4099832412739487e-15 6.775886881740458 1.5
    vertex 1.4981071938535704e-15 3.75 1.5
    vertex 1.7537285724547638 6.545004135086412 1.5
  endloop
endfacet
facet normal 7.495288891357118e-33 2.6228222207452154e-32 1.0
  outer loop
    vertex 1.7537285724547638 6.545004135086412 1.5
    vertex 1.4981071938535704e-15 3.75 1.5
    vertex 0.9705714191344552 3.6222218485840076 1.5
  endloop
endfacet
facet normal 7.495288891357118e-33 2.6228222207452154e-32 1.0
  outer loop
    vertex 1.7537285724547638 6.545004135086412 1.5
    vertex 0.9705714191344552 3.6222218485840076 1.5
    vertex 1.624929674431078 3.35117778458935 1.5
  endloop
endfacet
facet normal 7.495288891357118e-33 2.6228222207452154e-32 1.0
  outer loop
    vertex 1.7537285724547638 6.545004135086412 1.5
    vertex 1.624929674431078 3.35117778458935 1.5
    vertex 1.8750000000000016 3.2475952641916455 1.5
  endloop
endfacet
facet normal 7.495288891357118e-33 2.6228222207452154e-32 1.0
  outer loop
    vertex 1.7537285724547638 6.545004135086412 1.5
    vertex 1.8750000000000016 3.2475952641916455 1.5
    vertex 2.772979971526349 6.122816382123209 1.5
  endloop
endfacet
facet normal 7.495288891357118e-33 2.6228222207452154e-32 1.0
  outer loop
    vertex 2.772979971526349 6.122816382123209 1.5
    vertex 1.8750000000000016 3.2475952641916455 1.5
    vertex 2.651650429449554 2.6516504294495524 1.5
  endloop
endfacet
facet normal 7.495288891357118e-33 2.6228222207452154e-32 1.0
  outer loop
    vertex 2.772979971526349 6.122816382123209 1.5
    vertex 2.651650429449554 2.6516504294495524 1.5
    vertex 3.2475952641916455 1.8749999999999991 1.5
  endloop
endfacet
facet normal 7.495288891357118e-33 2.6228222207452154e-32 1.0
  outer loop
    vertex 2.772979971526349 6.122816382123209 1.5
    vertex 3.2475952641916455 1.8749999999999991 1.5
    vertex 3.387943440870236 5.868090172756959 1.5
  endloop
endfacet
facet normal 7.495288891357118e-33 2.6228222207452154e-32 1.0
  outer loop
    vertex 3.387943440870236 5.868090172756959 1.5
    vertex 3.2475952641916455 1.8749999999999991 1.5
    vertex 3.6222218485840068 0.9705714191344519 1.5
  endloop
endfacet
facet normal 7.495288891357118e-33 2.6228222207452154e-32 1.0
  outer loop
    vertex 3.387943440870236 5.868090172756959 1.5
    vertex 3.6222218485840068 0.9705714191344519 1.5
    vertex 4.791275562631649 4.791275562631646 1.5
  endloop
endfacet
facet normal 7.495288891357118e-33 2.6228222207452154e-32 1.0
  outer loop
    vertex 4.791275562631649 4.791275562631646 1.5
    vertex 3.6222218485840068 0.9705714191344519 1.5
    vertex 3.7500000000000018 -1.6523241108679088e-15 1.5
  endloop
endfacet
facet normal 7.495288891357118e-33 2.6228222207452154e-32 1.0
  outer loop
    vertex 4.791275562631649 4.791275562631646 1.5
    vertex 3.7500000000000018 -1.6523241108679088e-15 1.5
    vertex 4.791275562631646 -4.791275562631653 1.5
  endloop
endfacet
facet normal 7.495288891357118e-33 2.6228222207452154e-32 1.0
  outer loop
    vertex 4.791275562631649 4.791275562631646 1.5
    vertex 4.791275562631646 -4.791275562631653 1.5
    vertex 5.868090172756961 -3.3879434408702327 1.5
  endloop
endfacet
facet normal 7.495288891357118e-33 2.6228222207452154e-32 1.0
  outer loop
    vertex 4.791275562631649 4.791275562631646 1.5
    vertex 5.868090172756961 -3.3879434408702327 1.5
    vertex 5.86809017275696 3.38794344087023 1.5
  endloop
endfacet
facet normal 7.495288891357118e-33 2.6228222207452154e-32 1.0
  outer loop
    vertex 5.86809017275696 3.38794344087023 1.5
    vertex 5.868090172756961 -3.3879434408702327 1.5
    vertex 6.545004135086411 1.7537285724547624 1.5
  endloop
endfacet
facet normal 7.495288891357118e-33 2.6228222207452154e-32 1.0
  outer loop
    vertex 6.545004135086411 1.7537285724547624 1.5
    vertex 5.868090172756961 -3.3879434408702327 1.5
    vertex 6.545004135086412 -1.7537285724547653 1.5
  endloop
endfacet
facet normal 7.495288891357118e-33 2.6228222207452154e-32 1.0
  outer loop
    vertex 6.545004135086411 1.7537285724547624 1.5
    vertex 6.545004135086412 -1.7537285724547653 1.5
    vertex 6.77588688174046 7.868466662235647e-32 1.5
  endloop
endfacet
facet normal -0.1305261922200492 -0.9914448613738107 2.6982167649126985e-32
  outer loop
    vertex 1.4099832412739487e-15 -6.775886881740457 1.5
    vertex -1.7537285724547722 -6.545004135086412 -1.5
    vertex 1.4099832412739487e-15 -6.775886881740457 -1.5
  endloop
endfacet
facet normal -0.1305261922200492 -0.9914448613738107 2.6982167649126985e-32
  outer loop
    vertex -1.7537285724547722 -6.545004135086412 -1.5
    vertex 1.4099832412739487e-15 -6.775886881740457 1.5
    vertex -1.7537285724547722 -6.545004135086412 1.5
  endloop
endfacet
facet normal -0.3826834323650869 -0.923879532511288 2.710004055113553e-32
  outer loop
    vertex -15.952445672974902 -4.854633939080537 1.5
    vertex -17.164593870319766 -4.352545716134199 -1.5
    vertex -15.952445672974902 -4.854633939080537 -1.5
  endloop
endfacet
facet normal -0.3826834323650869 -0.923879532511288 2.710004055113553e-32
  outer loop
    vertex -17.164593870319766 -4.352545716134199 -1.5
    vertex -15.952445672974902 -4.854633939080537 1.5
    vertex -17.164593870319766 -4.352545716134199 1.5
  endloop
endfacet
facet normal -0.991444861373808 -0.13052619222007059 1.0854635629288825e-32
  outer loop
    vertex -19.677537311190022 1.5509815654013436e-14 1.5
    vertex -19.50628436853008 -1.3007952435253674 -1.5
    vertex -19.50628436853008 -1.3007952435253674 1.5
  endloop
endfacet
facet normal -0.991444861373808 -0.13052619222007059 1.0854635629288825e-32
  outer loop
    vertex -19.50628436853008 -1.3007952435253674 -1.5
    vertex -19.677537311190022 1.5509815654013436e-14 1.5
    vertex -19.677537311190022 1.5509815654013436e-14 -1.5
  endloop
endfacet
facet normal -0.9238795325112975 0.38268343236506386 -3.112362102197246e-33
  outer loop
    vertex -19.00419614558376 2.512943440870247 1.5
    vertex -19.506284368530075 1.3007952435253505 -1.5
    vertex -19.506284368530075 1.3007952435253505 1.5
  endloop
endfacet
facet normal -0.9238795325112975 0.38268343236506386 -3.112362102197246e-33
  outer loop
    vertex -19.506284368530075 1.3007952435253505 -1.5
    vertex -19.00419614558376 2.512943440870247 1.5
    vertex -19.00419614558376 2.512943440870247 -1.5
  endloop
endfacet
facet normal -0.7933533402912182 0.6087614290087431 -1.0020317552961594e-32
  outer loop
    vertex -18.205489125004725 3.5538386955551844 1.5
    vertex -19.00419614558376 2.512943440870247 -1.5
    vertex -19.00419614558376 2.512943440870247 1.5
  endloop
endfacet
facet normal -0.7933533402912182 0.6087614290087431 -1.0020317552961594e-32
  outer loop
    vertex -19.00419614558376 2.512943440870247 -1.5
    vertex -18.205489125004725 3.5538386955551844 1.5
    vertex -18.205489125004725 3.5538386955551844 -1.5
  endloop
endfacet
facet normal -0.05422430902058094 -0.9985287799113458 2.659606158109434e-32
  outer loop
    vertex -3.7413730785790187 -5.59689407339138 1.5
    vertex -14.929183611072618 -4.989348945216403 -1.5
    vertex -3.7413730785790187 -5.59689407339138 -1.5
  endloop
endfacet
facet normal -0.05422430902058094 -0.9985287799113458 2.659606158109434e-32
  outer loop
    vertex -14.929183611072618 -4.989348945216403 -1.5
    vertex -3.7413730785790187 -5.59689407339138 1.5
    vertex -14.929183611072618 -4.989348945216403 1.5
  endloop
endfacet
facet normal -0.6087614290087459 0.793353340291216 -1.6245404921846475e-32
  outer loop
    vertex -18.205489125004725 3.5538386955551844 1.5
    vertex -17.164593870319823 4.352545716134197 -1.5
    vertex -18.205489125004725 3.5538386955551844 -1.5
  endloop
endfacet
facet normal -0.6087614290087459 0.793353340291216 -1.6245404921846475e-32
  outer loop
    vertex -17.164593870319823 4.352545716134197 -1.5
    vertex -18.205489125004725 3.5538386955551844 1.5
    vertex -17.164593870319823 4.352545716134197 1.5
  endloop
endfacet
facet normal -0.3826834323650944 -0.9238795325112849 2.71000405511355e-32
  outer loop
    vertex -1.7537285724547722 -6.545004135086412 1.5
    vertex -3.387943440870237 -5.868090172756954 -1.5
    vertex -1.7537285724547722 -6.545004135086412 -1.5
  endloop
endfacet
facet normal -0.3826834323650944 -0.9238795325112849 2.71000405511355e-32
  outer loop
    vertex -3.387943440870237 -5.868090172756954 -1.5
    vertex -1.7537285724547722 -6.545004135086412 1.5
    vertex -3.387943440870237 -5.868090172756954 1.5
  endloop
endfacet
facet normal -0.9238795325112897 -0.3826834323650825 1.6961850096165947e-32
  outer loop
    vertex -19.50628436853008 -1.3007952435253674 1.5
    vertex -19.004196145583766 -2.512943440870188 -1.5
    vertex -19.004196145583766 -2.512943440870188 1.5
  endloop
endfacet
facet normal -0.9238795325112897 -0.3826834323650825 1.6961850096165947e-32
  outer loop
    vertex -19.004196145583766 -2.512943440870188 -1.5
    vertex -19.50628436853008 -1.3007952435253674 1.5
    vertex -19.50628436853008 -1.3007952435253674 -1.5
  endloop
endfacet
facet normal -0.9914448613738072 0.13052619222007744 4.007695682407391e-33
  outer loop
    vertex -19.506284368530075 1.3007952435253505 1.5
    vertex -19.677537311190022 1.5509815654013436e-14 -1.5
    vertex -19.677537311190022 1.5509815654013436e-14 1.5
  endloop
endfacet
facet normal -0.9914448613738072 0.13052619222007744 4.007695682407391e-33
  outer loop
    vertex -19.677537311190022 1.5509815654013436e-14 -1.5
    vertex -19.506284368530075 1.3007952435253505 1.5
    vertex -19.506284368530075 1.3007952435253505 -1.5
  endloop
endfacet
facet normal -0.13052619222005277 -0.9914448613738103 2.6982167649126996e-32
  outer loop
    vertex -14.929183611072618 -4.989348945216403 1.5
    vertex -15.952445672974902 -4.854633939080537 -1.5
    vertex -14.929183611072618 -4.989348945216403 -1.5
  endloop
endfacet
facet normal -0.13052619222005277 -0.9914448613738103 2.6982167649126996e-32
  outer loop
    vertex -15.952445672974902 -4.854633939080537 -1.5
    vertex -14.929183611072618 -4.989348945216403 1.5
    vertex -15.952445672974902 -4.854633939080537 1.5
  endloop
endfacet
facet normal -0.608761429008715 -0.7933533402912396 2.537109047451874e-32
  outer loop
    vertex -17.164593870319766 -4.352545716134199 1.5
    vertex -18.20548912500477 -3.5538386955551746 -1.5
    vertex -17.164593870319766 -4.352545716134199 -1.5
  endloop
endfacet
facet normal -0.608761429008715 -0.7933533402912396 2.537109047451874e-32
  outer loop
    vertex -18.20548912500477 -3.5538386955551746 -1.5
    vertex -17.164593870319766 -4.352545716134199 1.5
    vertex -18.20548912500477 -3.5538386955551746 1.5
  endloop
endfacet
facet normal -0.7933533402912466 -0.608761429008706 2.1913142509772497e-32
  outer loop
    vertex -19.004196145583766 -2.512943440870188 1.5
    vertex -18.20548912500477 -3.5538386955551746 -1.5
    vertex -18.20548912500477 -3.5538386955551746 1.5
  endloop
endfacet
facet normal -0.7933533402912466 -0.608761429008706 2.1913142509772497e-32
  outer loop
    vertex -18.20548912500477 -3.5538386955551746 -1.5
    vertex -19.004196145583766 -2.512943440870188 1.5
    vertex -19.004196145583766 -2.512943440870188 -1.5
  endloop
endfacet
facet normal -0.6087614290087193 -0.7933533402912363 2.5371090474518687e-32
  outer loop
    vertex -3.387943440870237 -5.868090172756954 1.5
    vertex -3.7413730785790187 -5.59689407339138 -1.5
    vertex -3.387943440870237 -5.868090172756954 -1.5
  endloop
endfacet
facet normal -0.6087614290087193 -0.7933533402912363 2.5371090474518687e-32
  outer loop
    vertex -3.7413730785790187 -5.59689407339138 -1.5
    vertex -3.387943440870237 -5.868090172756954 1.5
    vertex -3.7413730785790187 -5.59689407339138 1.5
  endloop
endfacet
facet normal -0.38268343236508395 0.9238795325112892 -2.1363394792110683e-32
  outer loop
    vertex -17.164593870319823 4.352545716134197 1.5
    vertex -15.952445672974868 4.854633939080567 -1.5
    vertex -17.164593870319823 4.352545716134197 -1.5
  endloop
endfacet
facet normal -0.38268343236508395 0.9238795325112892 -2.1363394792110683e-32
  outer loop
    vertex -15.952445672974868 4.854633939080567 -1.5
    vertex -17.164593870319823 4.352545716134197 1.5
    vertex -15.952445672974868 4.854633939080567 1.5
  endloop
endfacet
facet normal -0.13052619222003015 0.9914448613738133 -2.5025504611971034e-32
  outer loop
    vertex -15.952445672974868 4.854633939080567 1.5
    vertex -14.929183611072563 4.9893489452164115 -1.5
    vertex -15.952445672974868 4.854633939080567 -1.5
  endloop
endfacet
facet normal -0.13052619222003015 0.9914448613738133 -2.5025504611971034e-32
  outer loop
    vertex -14.929183611072563 4.9893489452164115 -1.5
    vertex -15.952445672974868 4.854633939080567 1.5
    vertex -14.929183611072563 4.9893489452164115 1.5
  endloop
endfacet
facet normal -0.0542243090205805 0.9985287799113457 -2.578320785900739e-32
  outer loop
    vertex -14.929183611072563 4.9893489452164115 1.5
    vertex -3.7413730785790182 5.596894073391382 -1.5
    vertex -14.929183611072563 4.9893489452164115 -1.5
  endloop
endfacet
facet normal -0.0542243090205805 0.9985287799113457 -2.578320785900739e-32
  outer loop
    vertex -3.7413730785790182 5.596894073391382 -1.5
    vertex -14.929183611072563 4.9893489452164115 1.5
    vertex -3.7413730785790182 5.596894073391382 1.5
  endloop
endfacet
facet normal 0.9914448613738106 -0.13052619222005138 -4.007695682408099e-33
  outer loop
    vertex 6.77588688174046 0.0 -1.5
    vertex 6.545004135086412 -1.7537285724547653 1.5
    vertex 6.545004135086412 -1.7537285724547653 -1.5
  endloop
endfacet
facet normal 0.9914448613738106 -0.13052619222005138 -4.007695682408099e-33
  outer loop
    vertex 6.545004135086412 -1.7537285724547653 1.5
    vertex 6.77588688174046 0.0 -1.5
    vertex 6.77588688174046 7.868466662235647e-32 1.5
  endloop
endfacet
facet normal 0.9238795325112866 -0.3826834323650905 3.112362102198027e-33
  outer loop
    vertex 6.545004135086412 -1.7537285724547653 -1.5
    vertex 5.868090172756961 -3.3879434408702327 1.5
    vertex 5.868090172756961 -3.3879434408702327 -1.5
  endloop
endfacet
facet normal 0.9238795325112866 -0.3826834323650905 3.112362102198027e-33
  outer loop
    vertex 5.868090172756961 -3.3879434408702327 1.5
    vertex 6.545004135086412 -1.7537285724547653 -1.5
    vertex 6.545004135086412 -1.7537285724547653 1.5
  endloop
endfacet
facet normal 0.3826834323650915 0.9238795325112861 -2.710004055113551e-32
  outer loop
    vertex 2.772979971526349 6.122816382123209 1.5
    vertex 3.387943440870236 5.868090172756959 -1.5
    vertex 2.772979971526349 6.122816382123209 -1.5
  endloop
endfacet
facet normal 0.3826834323650915 0.9238795325112861 -2.710004055113551e-32
  outer loop
    vertex 3.387943440870236 5.868090172756959 -1.5
    vertex 2.772979971526349 6.122816382123209 1.5
    vertex 3.387943440870236 5.868090172756959 1.5
  endloop
endfacet
facet normal 0.9914448613738104 0.13052619222005238 -1.0854635629288366e-32
  outer loop
    vertex 6.545004135086411 1.7537285724547624 -1.5
    vertex 6.77588688174046 7.868466662235647e-32 1.5
    vertex 6.77588688174046 0.0 -1.5
  endloop
endfacet
facet normal 0.9914448613738104 0.13052619222005238 -1.0854635629288366e-32
  outer loop
    vertex 6.77588688174046 7.868466662235647e-32 1.5
    vertex 6.545004135086411 1.7537285724547624 -1.5
    vertex 6.545004135086411 1.7537285724547624 1.5
  endloop
endfacet
facet normal 0.7933533402912348 -0.6087614290087213 1.0020317552960899e-32
  outer loop
    vertex 5.868090172756961 -3.3879434408702327 -1.5
    vertex 4.791275562631646 -4.791275562631653 1.5
    vertex 4.791275562631646 -4.791275562631653 -1.5
  endloop
endfacet
facet normal 0.7933533402912348 -0.6087614290087213 1.0020317552960899e-32
  outer loop
    vertex 4.791275562631646 -4.791275562631653 1.5
    vertex 5.868090172756961 -3.3879434408702327 -1.5
    vertex 5.868090172756961 -3.3879434408702327 1.5
  endloop
endfacet
facet normal -0.6087614290087184 0.793353340291237 -1.6245404921847236e-32
  outer loop
    vertex -3.7413730785790182 5.596894073391382 1.5
    vertex -3.38794344087023 5.868090172756959 -1.5
    vertex -3.7413730785790182 5.596894073391382 -1.5
  endloop
endfacet
facet normal -0.6087614290087184 0.793353340291237 -1.6245404921847236e-32
  outer loop
    vertex -3.38794344087023 5.868090172756959 -1.5
    vertex -3.7413730785790182 5.596894073391382 1.5
    vertex -3.38794344087023 5.868090172756959 1.5
  endloop
endfacet
facet normal -0.3826834323650921 0.9238795325112859 -2.1363394792110538e-32
  outer loop
    vertex -3.38794344087023 5.868090172756959 1.5
    vertex -2.772979971526348 6.122816382123209 -1.5
    vertex -3.38794344087023 5.868090172756959 -1.5
  endloop
endfacet
facet normal -0.3826834323650921 0.9238795325112859 -2.1363394792110538e-32
  outer loop
    vertex -2.772979971526348 6.122816382123209 -1.5
    vertex -3.38794344087023 5.868090172756959 1.5
    vertex -2.772979971526348 6.122816382123209 1.5
  endloop
endfacet
facet normal -0.3826834323650896 0.9238795325112868 -2.136339479211058e-32
  outer loop
    vertex -2.772979971526348 6.122816382123209 1.5
    vertex -1.7537285724547595 6.545004135086412 -1.5
    vertex -2.772979971526348 6.122816382123209 -1.5
  endloop
endfacet
facet normal -0.3826834323650896 0.9238795325112868 -2.136339479211058e-32
  outer loop
    vertex -1.7537285724547595 6.545004135086412 -1.5
    vertex -2.772979971526348 6.122816382123209 1.5
    vertex -1.7537285724547595 6.545004135086412 1.5
  endloop
endfacet
facet normal 0.6087614290087221 0.7933533402912343 -2.5371090474518654e-32
  outer loop
    vertex 3.387943440870236 5.868090172756959 1.5
    vertex 4.791275562631649 4.791275562631646 -1.5
    vertex 3.387943440870236 5.868090172756959 -1.5
  endloop
endfacet
facet normal 0.6087614290087221 0.7933533402912343 -2.5371090474518654e-32
  outer loop
    vertex 4.791275562631649 4.791275562631646 -1.5
    vertex 3.387943440870236 5.868090172756959 1.5
    vertex 4.791275562631649 4.791275562631646 1.5
  endloop
endfacet
facet normal 0.7933533402912353 0.6087614290087208 -2.19131425097728e-32
  outer loop
    vertex 4.791275562631649 4.791275562631646 -1.5
    vertex 5.86809017275696 3.38794344087023 1.5
    vertex 5.86809017275696 3.38794344087023 -1.5
  endloop
endfacet
facet normal 0.7933533402912353 0.6087614290087208 -2.19131425097728e-32
  outer loop
    vertex 5.86809017275696 3.38794344087023 1.5
    vertex 4.791275562631649 4.791275562631646 -1.5
    vertex 4.791275562631649 4.791275562631646 1.5
  endloop
endfacet
facet normal -0.1305261922200509 0.9914448613738105 -2.502550461197081e-32
  outer loop
    vertex -1.7537285724547595 6.545004135086412 1.5
    vertex -0.18487640417422394 6.751547441385946 -1.5
    vertex -1.7537285724547595 6.545004135086412 -1.5
  endloop
endfacet
facet normal -0.1305261922200509 0.9914448613738105 -2.502550461197081e-32
  outer loop
    vertex -0.18487640417422394 6.751547441385946 -1.5
    vertex -1.7537285724547595 6.545004135086412 1.5
    vertex 1.4099832412739487e-15 6.775886881740458 -1.5
  endloop
endfacet
facet normal -0.1305261922200509 0.9914448613738105 -2.502550461197081e-32
  outer loop
    vertex 1.4099832412739487e-15 6.775886881740458 -1.5
    vertex -1.7537285724547595 6.545004135086412 1.5
    vertex 1.4099832412739487e-15 6.775886881740458 1.5
  endloop
endfacet
facet normal 0.1305261922200508 0.9914448613738105 -2.6982167649126985e-32
  outer loop
    vertex 1.4099832412739487e-15 6.775886881740458 1.5
    vertex 1.4604700142180762 6.5836123567171505 -1.5
    vertex 1.4099832412739487e-15 6.775886881740458 -1.5
  endloop
endfacet
facet normal 0.1305261922200508 0.9914448613738105 -2.6982167649126985e-32
  outer loop
    vertex 1.4604700142180762 6.5836123567171505 -1.5
    vertex 1.4099832412739487e-15 6.775886881740458 1.5
    vertex 1.7537285724547638 6.545004135086412 -1.5
  endloop
endfacet
facet normal 0.1305261922200508 0.9914448613738105 -2.6982167649126985e-32
  outer loop
    vertex 1.7537285724547638 6.545004135086412 -1.5
    vertex 1.4099832412739487e-15 6.775886881740458 1.5
    vertex 1.7537285724547638 6.545004135086412 1.5
  endloop
endfacet
facet normal 0.3826834323650901 0.9238795325112866 -2.710004055113552e-32
  outer loop
    vertex 1.7537285724547638 6.545004135086412 1.5
    vertex 2.772979971526349 6.122816382123209 -1.5
    vertex 1.7537285724547638 6.545004135086412 -1.5
  endloop
endfacet
facet normal 0.3826834323650901 0.9238795325112866 -2.710004055113552e-32
  outer loop
    vertex 2.772979971526349 6.122816382123209 -1.5
    vertex 1.7537285724547638 6.545004135086412 1.5
    vertex 2.772979971526349 6.122816382123209 1.5
  endloop
endfacet
facet normal 0.9238795325112866 0.3826834323650901 -1.6961850096166124e-32
  outer loop
    vertex 5.86809017275696 3.38794344087023 -1.5
    vertex 6.545004135086411 1.7537285724547624 1.5
    vertex 6.545004135086411 1.7537285724547624 -1.5
  endloop
endfacet
facet normal 0.9238795325112866 0.3826834323650901 -1.6961850096166124e-32
  outer loop
    vertex 6.545004135086411 1.7537285724547624 1.5
    vertex 5.86809017275696 3.38794344087023 -1.5
    vertex 5.86809017275696 3.38794344087023 1.5
  endloop
endfacet
facet normal 0.6087614290087192 -0.7933533402912363 1.624540492184721e-32
  outer loop
    vertex 4.791275562631646 -4.791275562631653 1.5
    vertex 3.387943440870223 -5.868090172756965 -1.5
    vertex 4.791275562631646 -4.791275562631653 -1.5
  endloop
endfacet
facet normal 0.6087614290087192 -0.7933533402912363 1.624540492184721e-32
  outer loop
    vertex 3.387943440870223 -5.868090172756965 -1.5
    vertex 4.791275562631646 -4.791275562631653 1.5
    vertex 3.387943440870223 -5.868090172756965 1.5
  endloop
endfacet
facet normal 0.6087614290087198 0.793353340291236 -0.0
  outer loop
    vertex -2.6516504294495546 -2.6516504294495524 0.0
    vertex -1.8750000000000022 -3.247595264191642 -1.5
    vertex -2.6516504294495546 -2.6516504294495524 -1.5
  endloop
endfacet
facet normal 0.6087614290087198 0.793353340291236 -0.0
  outer loop
    vertex -1.8750000000000022 -3.247595264191642 -1.5
    vertex -2.6516504294495546 -2.6516504294495524 0.0
    vertex -1.8750000000000022 -3.247595264191642 1.5
  endloop
endfacet
facet normal 0.6087614290087198 0.793353340291236 -0.0
  outer loop
    vertex -1.8750000000000022 -3.247595264191642 1.5
    vertex -2.6516504294495546 -2.6516504294495524 0.0
    vertex -2.6516504294495546 -2.6516504294495524 1.5
  endloop
endfacet
facet normal 0.3826834323650947 0.9238795325112849 -0.0
  outer loop
    vertex -1.8750000000000022 -3.247595264191642 1.5
    vertex -0.9705714191344579 -3.6222218485840076 -1.5
    vertex -1.8750000000000022 -3.247595264191642 -1.5
  endloop
endfacet
facet normal 0.3826834323650947 0.9238795325112849 -0.0
  outer loop
    vertex -0.9705714191344579 -3.6222218485840076 -1.5
    vertex -1.8750000000000022 -3.247595264191642 1.5
    vertex -0.9705714191344579 -3.6222218485840076 1.5
  endloop
endfacet
facet normal 0.13052619222004916 0.9914448613738107 -0.0
  outer loop
    vertex -0.9705714191344579 -3.6222218485840076 1.5
    vertex -1.7845100397373415e-15 -3.7499999999999996 -1.5
    vertex -0.9705714191344579 -3.6222218485840076 -1.5
  endloop
endfacet
facet normal 0.13052619222004916 0.9914448613738107 -0.0
  outer loop
    vertex -1.7845100397373415e-15 -3.7499999999999996 -1.5
    vertex -0.9705714191344579 -3.6222218485840076 1.5
    vertex -1.7845100397373415e-15 -3.7499999999999996 1.5
  endloop
endfacet
facet normal -0.6087614290087192 0.7933533402912363 -0.0
  outer loop
    vertex 1.8749999999999967 -3.247595264191647 1.5
    vertex 2.6516504294495538 -2.651650429449554 -1.5
    vertex 1.8749999999999967 -3.247595264191647 -1.5
  endloop
endfacet
facet normal -0.6087614290087192 0.7933533402912363 -0.0
  outer loop
    vertex 2.6516504294495538 -2.651650429449554 -1.5
    vertex 1.8749999999999967 -3.247595264191647 1.5
    vertex 2.6516504294495538 -2.651650429449554 1.5
  endloop
endfacet
facet normal -0.9238795325112867 0.3826834323650903 0.0
  outer loop
    vertex 3.6222218485840076 -0.9705714191344549 1.5
    vertex 3.2475952641916463 -1.875000000000001 -1.5
    vertex 3.2475952641916463 -1.875000000000001 1.5
  endloop
endfacet
facet normal -0.9238795325112867 0.3826834323650903 0.0
  outer loop
    vertex 3.2475952641916463 -1.875000000000001 -1.5
    vertex 3.6222218485840076 -0.9705714191344549 1.5
    vertex 3.6222218485840076 -0.9705714191344549 -1.5
  endloop
endfacet
facet normal -0.9914448613738105 0.13052619222005174 0.0
  outer loop
    vertex 3.7500000000000018 -1.6523241108679088e-15 1.5
    vertex 3.6222218485840076 -0.9705714191344549 -1.5
    vertex 3.6222218485840076 -0.9705714191344549 1.5
  endloop
endfacet
facet normal -0.9914448613738105 0.13052619222005174 0.0
  outer loop
    vertex 3.6222218485840076 -0.9705714191344549 -1.5
    vertex 3.7500000000000018 -1.6523241108679088e-15 1.5
    vertex 3.7500000000000018 -1.6523241108679088e-15 -1.5
  endloop
endfacet
facet normal 0.13052619222005044 -0.9914448613738107 2.5025504611970815e-32
  outer loop
    vertex 1.7537285724547582 -6.545004135086412 1.5
    vertex 1.4099832412739487e-15 -6.775886881740457 -1.5
    vertex 1.7537285724547582 -6.545004135086412 -1.5
  endloop
endfacet
facet normal 0.13052619222005044 -0.9914448613738107 2.5025504611970815e-32
  outer loop
    vertex 1.4099832412739487e-15 -6.775886881740457 -1.5
    vertex 1.7537285724547582 -6.545004135086412 1.5
    vertex 1.4099832412739487e-15 -6.775886881740457 1.5
  endloop
endfacet
facet normal -0.9238795325112867 -0.38268343236509 0.0
  outer loop
    vertex 3.2475952641916455 1.8749999999999991 1.5
    vertex 3.6222218485840068 0.9705714191344519 -1.5
    vertex 3.6222218485840068 0.9705714191344519 1.5
  endloop
endfacet
facet normal -0.9238795325112867 -0.38268343236509 0.0
  outer loop
    vertex 3.6222218485840068 0.9705714191344519 -1.5
    vertex 3.2475952641916455 1.8749999999999991 1.5
    vertex 3.2475952641916455 1.8749999999999991 -1.5
  endloop
endfacet
facet normal -0.1305261922200497 0.9914448613738107 -0.0
  outer loop
    vertex -1.7845100397373415e-15 -3.7499999999999996 1.5
    vertex 0.9705714191344503 -3.6222218485840076 -1.5
    vertex -1.7845100397373415e-15 -3.7499999999999996 -1.5
  endloop
endfacet
facet normal -0.1305261922200497 0.9914448613738107 -0.0
  outer loop
    vertex 0.9705714191344503 -3.6222218485840076 -1.5
    vertex -1.7845100397373415e-15 -3.7499999999999996 1.5
    vertex 0.9705714191344503 -3.6222218485840076 1.5
  endloop
endfacet
facet normal -0.3826834323650896 0.9238795325112868 -0.0
  outer loop
    vertex 0.9705714191344503 -3.6222218485840076 1.5
    vertex 1.8749999999999967 -3.247595264191647 -1.5
    vertex 0.9705714191344503 -3.6222218485840076 -1.5
  endloop
endfacet
facet normal -0.3826834323650896 0.9238795325112868 -0.0
  outer loop
    vertex 1.8749999999999967 -3.247595264191647 -1.5
    vertex 0.9705714191344503 -3.6222218485840076 1.5
    vertex 1.8749999999999967 -3.247595264191647 1.5
  endloop
endfacet
facet normal -0.7933533402912354 -0.6087614290087203 0.0
  outer loop
    vertex 2.651650429449554 2.6516504294495524 1.5
    vertex 3.2475952641916455 1.8749999999999991 -1.5
    vertex 3.2475952641916455 1.8749999999999991 1.5
  endloop
endfacet
facet normal -0.7933533402912354 -0.6087614290087203 0.0
  outer loop
    vertex 3.2475952641916455 1.8749999999999991 -1.5
    vertex 2.651650429449554 2.6516504294495524 1.5
    vertex 2.651650429449554 2.6516504294495524 -1.5
  endloop
endfacet
facet normal -0.7933533402912347 0.6087614290087212 0.0
  outer loop
    vertex 3.2475952641916463 -1.875000000000001 1.5
    vertex 2.6516504294495538 -2.651650429449554 -1.5
    vertex 2.6516504294495538 -2.651650429449554 1.5
  endloop
endfacet
facet normal -0.7933533402912347 0.6087614290087212 0.0
  outer loop
    vertex 2.6516504294495538 -2.651650429449554 -1.5
    vertex 3.2475952641916463 -1.875000000000001 1.5
    vertex 3.2475952641916463 -1.875000000000001 -1.5
  endloop
endfacet
facet normal -0.9914448613738105 -0.13052619222005235 0.0
  outer loop
    vertex 3.6222218485840068 0.9705714191344519 1.5
    vertex 3.7500000000000018 -1.6523241108679088e-15 -1.5
    vertex 3.7500000000000018 -1.6523241108679088e-15 1.5
  endloop
endfacet
facet normal -0.9914448613738105 -0.13052619222005235 0.0
  outer loop
    vertex 3.7500000000000018 -1.6523241108679088e-15 -1.5
    vertex 3.6222218485840068 0.9705714191344519 1.5
    vertex 3.6222218485840068 0.9705714191344519 -1.5
  endloop
endfacet
facet normal 0.38268343236508934 -0.9238795325112871 2.1363394792110588e-32
  outer loop
    vertex 3.387943440870223 -5.868090172756965 1.5
    vertex 1.7537285724547582 -6.545004135086412 -1.5
    vertex 3.387943440870223 -5.868090172756965 -1.5
  endloop
endfacet
facet normal 0.38268343236508934 -0.9238795325112871 2.1363394792110588e-32
  outer loop
    vertex 1.7537285724547582 -6.545004135086412 -1.5
    vertex 3.387943440870223 -5.868090172756965 1.5
    vertex 1.7537285724547582 -6.545004135086412 1.5
  endloop
endfacet
facet normal 9.409614934322738e-33 -2.4562719403729539e-32 -1.0
  outer loop
    vertex -3.7413730785790182 5.596894073391382 -1.5
    vertex -3.750000000000001 3.635113043909399e-15 -1.5000000000000016
    vertex -14.929183611072563 4.9893489452164115 -1.5
  endloop
endfacet
facet normal 9.409614934322738e-33 -2.4562719403729539e-32 -1.0
  outer loop
    vertex -3.750000000000001 3.635113043909399e-15 -1.5000000000000016
    vertex -3.7413730785790182 5.596894073391382 -1.5
    vertex -3.6222218485840068 0.9705714191344552 -1.5000000000000016
  endloop
endfacet
facet normal 9.409614934322738e-33 -2.4562719403729539e-32 -1.0
  outer loop
    vertex -3.6222218485840068 0.9705714191344552 -1.5000000000000016
    vertex -3.7413730785790182 5.596894073391382 -1.5
    vertex -3.38794344087023 5.868090172756959 -1.5
  endloop
endfacet
facet normal 9.409614934322738e-33 -2.4562719403729539e-32 -1.0
  outer loop
    vertex -3.6222218485840068 0.9705714191344552 -1.5000000000000016
    vertex -3.38794344087023 5.868090172756959 -1.5
    vertex -3.247595264191642 1.8750000000000022 -1.5000000000000016
  endloop
endfacet
facet normal 9.409614934322738e-33 -2.4562719403729539e-32 -1.0
  outer loop
    vertex -3.247595264191642 1.8750000000000022 -1.5000000000000016
    vertex -3.38794344087023 5.868090172756959 -1.5
    vertex -2.772979971526348 6.122816382123209 -1.5
  endloop
endfacet
facet normal 9.409614934322738e-33 -2.4562719403729539e-32 -1.0
  outer loop
    vertex -3.247595264191642 1.8750000000000022 -1.5000000000000016
    vertex -2.772979971526348 6.122816382123209 -1.5
    vertex -2.6516504294495524 2.6516504294495546 -1.5
  endloop
endfacet
facet normal 9.409614934322738e-33 -2.4562719403729539e-32 -1.0
  outer loop
    vertex -2.6516504294495524 2.6516504294495546 -1.5
    vertex -2.772979971526348 6.122816382123209 -1.5
    vertex -1.7537285724547595 6.545004135086412 -1.5
  endloop
endfacet
facet normal 9.409614934322738e-33 -2.4562719403729539e-32 -1.0
  outer loop
    vertex -2.6516504294495524 2.6516504294495546 -1.5
    vertex -1.7537285724547595 6.545004135086412 -1.5
    vertex -1.8749999999999991 3.2475952641916455 -1.5
  endloop
endfacet
facet normal 9.409614934322738e-33 -2.4562719403729539e-32 -1.0
  outer loop
    vertex -1.8749999999999991 3.2475952641916455 -1.5
    vertex -1.7537285724547595 6.545004135086412 -1.5
    vertex -1.6249296744310735 3.3511777845893502 -1.5
  endloop
endfacet
facet normal 9.409614934322738e-33 -2.4562719403729539e-32 -1.0
  outer loop
    vertex -1.6249296744310735 3.3511777845893502 -1.5
    vertex -1.7537285724547595 6.545004135086412 -1.5
    vertex -0.18487640417422394 6.751547441385946 -1.5
  endloop
endfacet
facet normal 9.409614934322738e-33 -2.4562719403729539e-32 -1.0
  outer loop
    vertex -1.6249296744310735 3.3511777845893502 -1.5
    vertex -0.18487640417422394 6.751547441385946 -1.5
    vertex -1.435662970871805 3.429574620109247 -1.5
  endloop
endfacet
facet normal 9.409614934322738e-33 -2.4562719403729539e-32 -1.0
  outer loop
    vertex -1.435662970871805 3.429574620109247 -1.5
    vertex -0.18487640417422394 6.751547441385946 -1.5
    vertex -0.9705714191344519 3.6222218485840068 -1.5
  endloop
endfacet
facet normal 9.409614934322738e-33 -2.4562719403729539e-32 -1.0
  outer loop
    vertex -0.9705714191344519 3.6222218485840068 -1.5
    vertex -0.18487640417422394 6.751547441385946 -1.5
    vertex 1.4981071938535704e-15 3.75 -1.5
  endloop
endfacet
facet normal 9.409614934322738e-33 -2.4562719403729539e-32 -1.0
  outer loop
    vertex 1.4981071938535704e-15 3.75 -1.5
    vertex -0.18487640417422394 6.751547441385946 -1.5
    vertex 1.4099832412739487e-15 6.775886881740458 -1.5
  endloop
endfacet
facet normal 9.409614934322738e-33 -2.4562719403729539e-32 -1.0
  outer loop
    vertex 1.4981071938535704e-15 3.75 -1.5
    vertex 1.4099832412739487e-15 6.775886881740458 -1.5
    vertex 1.4604700142180762 6.5836123567171505 -1.5
  endloop
endfacet
facet normal 9.409614934322738e-33 -2.4562719403729539e-32 -1.0
  outer loop
    vertex 1.4981071938535704e-15 3.75 -1.5
    vertex 1.4604700142180762 6.5836123567171505 -1.5
    vertex 0.48528570956722844 3.686110924292004 -1.5
  endloop
endfacet
facet normal 9.409614934322738e-33 -2.4562719403729539e-32 -1.0
  outer loop
    vertex 0.48528570956722844 3.686110924292004 -1.5
    vertex 1.4604700142180762 6.5836123567171505 -1.5
    vertex 0.9705714191344552 3.6222218485840076 -1.5
  endloop
endfacet
facet normal 9.409614934322738e-33 -2.4562719403729539e-32 -1.0
  outer loop
    vertex 0.9705714191344552 3.6222218485840076 -1.5
    vertex 1.4604700142180762 6.5836123567171505 -1.5
    vertex 1.624929674431078 3.35117778458935 -1.5
  endloop
endfacet
facet normal 9.409614934322738e-33 -2.4562719403729539e-32 -1.0
  outer loop
    vertex 1.624929674431078 3.35117778458935 -1.5
    vertex 1.4604700142180762 6.5836123567171505 -1.5
    vertex 1.7537285724547638 6.545004135086412 -1.5
  endloop
endfacet
facet normal 9.409614934322738e-33 -2.4562719403729539e-32 -1.0
  outer loop
    vertex 1.624929674431078 3.35117778458935 -1.5
    vertex 1.7537285724547638 6.545004135086412 -1.5
    vertex 1.8750000000000016 3.2475952641916455 -1.5
  endloop
endfacet
facet normal 9.409614934322738e-33 -2.4562719403729539e-32 -1.0
  outer loop
    vertex 1.8750000000000016 3.2475952641916455 -1.5
    vertex 1.7537285724547638 6.545004135086412 -1.5
    vertex 2.772979971526349 6.122816382123209 -1.5
  endloop
endfacet
facet normal 9.409614934322738e-33 -2.4562719403729539e-32 -1.0
  outer loop
    vertex 1.8750000000000016 3.2475952641916455 -1.5
    vertex 2.772979971526349 6.122816382123209 -1.5
    vertex 2.651650429449554 2.6516504294495524 -1.5
  endloop
endfacet
facet normal 9.409614934322738e-33 -2.4562719403729539e-32 -1.0
  outer loop
    vertex 2.651650429449554 2.6516504294495524 -1.5
    vertex 2.772979971526349 6.122816382123209 -1.5
    vertex 3.2475952641916455 1.8749999999999991 -1.5
  endloop
endfacet
facet normal 9.409614934322738e-33 -2.4562719403729539e-32 -1.0
  outer loop
    vertex 3.2475952641916455 1.8749999999999991 -1.5
    vertex 2.772979971526349 6.122816382123209 -1.5
    vertex 3.387943440870236 5.868090172756959 -1.5
  endloop
endfacet
facet normal 9.409614934322738e-33 -2.4562719403729539e-32 -1.0
  outer loop
    vertex 3.2475952641916455 1.8749999999999991 -1.5
    vertex 3.387943440870236 5.868090172756959 -1.5
    vertex 3.6222218485840068 0.9705714191344519 -1.5
  endloop
endfacet
facet normal 9.409614934322738e-33 -2.4562719403729539e-32 -1.0
  outer loop
    vertex 3.6222218485840068 0.9705714191344519 -1.5
    vertex 3.387943440870236 5.868090172756959 -1.5
    vertex 4.791275562631649 4.791275562631646 -1.5
  endloop
endfacet
facet normal 9.409614934322738e-33 -2.4562719403729539e-32 -1.0
  outer loop
    vertex 3.6222218485840068 0.9705714191344519 -1.5
    vertex 4.791275562631649 4.791275562631646 -1.5
    vertex 3.7500000000000018 -1.6523241108679088e-15 -1.5
  endloop
endfacet
facet normal 9.409614934322738e-33 -2.4562719403729539e-32 -1.0
  outer loop
    vertex 3.7500000000000018 -1.6523241108679088e-15 -1.5
    vertex 4.791275562631649 4.791275562631646 -1.5
    vertex 4.791275562631646 -4.791275562631653 -1.5
  endloop
endfacet
facet normal 9.409614934322738e-33 -2.4562719403729539e-32 -1.0
  outer loop
    vertex 4.791275562631646 -4.791275562631653 -1.5
    vertex 4.791275562631649 4.791275562631646 -1.5
    vertex 5.868090172756961 -3.3879434408702327 -1.5
  endloop
endfacet
facet normal 9.409614934322738e-33 -2.4562719403729539e-32 -1.0
  outer loop
    vertex 5.868090172756961 -3.3879434408702327 -1.5
    vertex 4.791275562631649 4.791275562631646 -1.5
    vertex 5.86809017275696 3.38794344087023 -1.5
  endloop
endfacet
facet normal 9.409614934322738e-33 -2.4562719403729539e-32 -1.0
  outer loop
    vertex 5.868090172756961 -3.3879434408702327 -1.5
    vertex 5.86809017275696 3.38794344087023 -1.5
    vertex 6.545004135086411 1.7537285724547624 -1.5
  endloop
endfacet
facet normal 9.409614934322738e-33 -2.4562719403729539e-32 -1.0
  outer loop
    vertex 5.868090172756961 -3.3879434408702327 -1.5
    vertex 6.545004135086411 1.7537285724547624 -1.5
    vertex 6.545004135086412 -1.7537285724547653 -1.5
  endloop
endfacet
facet normal 9.409614934322738e-33 -2.4562719403729539e-32 -1.0
  outer loop
    vertex 6.545004135086412 -1.7537285724547653 -1.5
    vertex 6.545004135086411 1.7537285724547624 -1.5
    vertex 6.77588688174046 0.0 -1.5
  endloop
endfacet
facet normal 9.409614934322738e-33 -2.4562719403729539e-32 -1.0
  outer loop
    vertex -19.506284368530075 1.3007952435253505 -1.5
    vertex -19.50628436853008 -1.3007952435253674 -1.5
    vertex -19.677537311190022 1.5509815654013436e-14 -1.5
  endloop
endfacet
facet normal 9.409614934322738e-33 -2.4562719403729539e-32 -1.0
  outer loop
    vertex -19.50628436853008 -1.3007952435253674 -1.5
    vertex -19.506284368530075 1.3007952435253505 -1.5
    vertex -19.004196145583766 -2.512943440870188 -1.5
  endloop
endfacet
facet normal 9.409614934322738e-33 -2.4562719403729539e-32 -1.0
  outer loop
    vertex -19.004196145583766 -2.512943440870188 -1.5
    vertex -19.506284368530075 1.3007952435253505 -1.5
    vertex -19.00419614558376 2.512943440870247 -1.5
  endloop
endfacet
facet normal 9.409614934322738e-33 -2.4562719403729539e-32 -1.0
  outer loop
    vertex -19.004196145583766 -2.512943440870188 -1.5
    vertex -19.00419614558376 2.512943440870247 -1.5
    vertex -18.20548912500477 -3.5538386955551746 -1.5
  endloop
endfacet
facet normal 9.409614934322738e-33 -2.4562719403729539e-32 -1.0
  outer loop
    vertex -18.20548912500477 -3.5538386955551746 -1.5
    vertex -19.00419614558376 2.512943440870247 -1.5
    vertex -18.205489125004725 3.5538386955551844 -1.5
  endloop
endfacet
facet normal 9.409614934322738e-33 -2.4562719403729539e-32 -1.0
  outer loop
    vertex -18.20548912500477 -3.5538386955551746 -1.5
    vertex -18.205489125004725 3.5538386955551844 -1.5
    vertex -17.164593870319766 -4.352545716134199 -1.5
  endloop
endfacet
facet normal 9.409614934322738e-33 -2.4562719403729539e-32 -1.0
  outer loop
    vertex -17.164593870319766 -4.352545716134199 -1.5
    vertex -18.205489125004725 3.5538386955551844 -1.5
    vertex -17.164593870319823 4.352545716134197 -1.5
  endloop
endfacet
facet normal 9.409614934322738e-33 -2.4562719403729539e-32 -1.0
  outer loop
    vertex -17.164593870319766 -4.352545716134199 -1.5
    vertex -17.164593870319823 4.352545716134197 -1.5
    vertex -15.952445672974868 4.854633939080567 -1.5
  endloop
endfacet
facet normal 9.409614934322738e-33 -2.4562719403729539e-32 -1.0
  outer loop
    vertex -17.164593870319766 -4.352545716134199 -1.5
    vertex -15.952445672974868 4.854633939080567 -1.5
    vertex -15.952445672974902 -4.854633939080537 -1.5
  endloop
endfacet
facet normal 9.409614934322738e-33 -2.4562719403729539e-32 -1.0
  outer loop
    vertex -15.952445672974902 -4.854633939080537 -1.5
    vertex -15.952445672974868 4.854633939080567 -1.5
    vertex -14.929183611072618 -4.989348945216403 -1.5
  endloop
endfacet
facet normal 9.409614934322738e-33 -2.4562719403729539e-32 -1.0
  outer loop
    vertex -14.929183611072618 -4.989348945216403 -1.5
    vertex -15.952445672974868 4.854633939080567 -1.5
    vertex -14.929183611072563 4.9893489452164115 -1.5
  endloop
endfacet
facet normal 9.409614934322738e-33 -2.4562719403729539e-32 -1.0
  outer loop
    vertex -14.929183611072618 -4.989348945216403 -1.5
    vertex -14.929183611072563 4.9893489452164115 -1.5
    vertex -3.7413730785790187 -5.59689407339138 -1.5
  endloop
endfacet
facet normal 9.409614934322738e-33 -2.4562719403729539e-32 -1.0
  outer loop
    vertex -3.7413730785790187 -5.59689407339138 -1.5
    vertex -14.929183611072563 4.9893489452164115 -1.5
    vertex -3.750000000000001 3.635113043909399e-15 -1.5000000000000016
  endloop
endfacet
facet normal 9.409614934322738e-33 -2.4562719403729539e-32 -1.0
  outer loop
    vertex -3.7413730785790187 -5.59689407339138 -1.5
    vertex -3.750000000000001 3.635113043909399e-15 -1.5000000000000016
    vertex -3.6222218485840068 -0.9705714191344512 -1.5000000000000016
  endloop
endfacet
facet normal 9.409614934322738e-33 -2.4562719403729539e-32 -1.0
  outer loop
    vertex -3.7413730785790187 -5.59689407339138 -1.5
    vertex -3.6222218485840068 -0.9705714191344512 -1.5000000000000016
    vertex -3.387943440870237 -5.868090172756954 -1.5
  endloop
endfacet
facet normal 9.409614934322738e-33 -2.4562719403729539e-32 -1.0
  outer loop
    vertex -3.387943440870237 -5.868090172756954 -1.5
    vertex -3.6222218485840068 -0.9705714191344512 -1.5000000000000016
    vertex -3.247595264191647 -1.8749999999999967 -1.5000000000000016
  endloop
endfacet
facet normal 9.409614934322738e-33 -2.4562719403729539e-32 -1.0
  outer loop
    vertex -3.387943440870237 -5.868090172756954 -1.5
    vertex -3.247595264191647 -1.8749999999999967 -1.5000000000000016
    vertex -1.7537285724547722 -6.545004135086412 -1.5
  endloop
endfacet
facet normal 9.409614934322738e-33 -2.4562719403729539e-32 -1.0
  outer loop
    vertex -1.7537285724547722 -6.545004135086412 -1.5
    vertex -3.247595264191647 -1.8749999999999967 -1.5000000000000016
    vertex -2.6516504294495546 -2.6516504294495524 -1.5
  endloop
endfacet
facet normal 9.409614934322738e-33 -2.4562719403729539e-32 -1.0
  outer loop
    vertex -1.7537285724547722 -6.545004135086412 -1.5
    vertex -2.6516504294495546 -2.6516504294495524 -1.5
    vertex -1.8750000000000022 -3.247595264191642 -1.5
  endloop
endfacet
facet normal 9.409614934322738e-33 -2.4562719403729539e-32 -1.0
  outer loop
    vertex -1.7537285724547722 -6.545004135086412 -1.5
    vertex -1.8750000000000022 -3.247595264191642 -1.5
    vertex -0.9705714191344579 -3.6222218485840076 -1.5
  endloop
endfacet
facet normal 9.409614934322738e-33 -2.4562719403729539e-32 -1.0
  outer loop
    vertex -1.7537285724547722 -6.545004135086412 -1.5
    vertex -0.9705714191344579 -3.6222218485840076 -1.5
    vertex 1.4099832412739487e-15 -6.775886881740457 -1.5
  endloop
endfacet
facet normal 9.409614934322738e-33 -2.4562719403729539e-32 -1.0
  outer loop
    vertex 1.4099832412739487e-15 -6.775886881740457 -1.5
    vertex -0.9705714191344579 -3.6222218485840076 -1.5
    vertex -1.7845100397373415e-15 -3.7499999999999996 -1.5
  endloop
endfacet
facet normal 9.409614934322738e-33 -2.4562719403729539e-32 -1.0
  outer loop
    vertex 1.4099832412739487e-15 -6.775886881740457 -1.5
    vertex -1.7845100397373415e-15 -3.7499999999999996 -1.5
    vertex 0.9705714191344503 -3.6222218485840076 -1.5
  endloop
endfacet
facet normal 9.409614934322738e-33 -2.4562719403729539e-32 -1.0
  outer loop
    vertex 1.4099832412739487e-15 -6.775886881740457 -1.5
    vertex 0.9705714191344503 -3.6222218485840076 -1.5
    vertex 1.7537285724547582 -6.545004135086412 -1.5
  endloop
endfacet
facet normal 9.409614934322738e-33 -2.4562719403729539e-32 -1.0
  outer loop
    vertex 1.7537285724547582 -6.545004135086412 -1.5
    vertex 0.9705714191344503 -3.6222218485840076 -1.5
    vertex 1.8749999999999967 -3.247595264191647 -1.5
  endloop
endfacet
facet normal 9.409614934322738e-33 -2.4562719403729539e-32 -1.0
  outer loop
    vertex 1.7537285724547582 -6.545004135086412 -1.5
    vertex 1.8749999999999967 -3.247595264191647 -1.5
    vertex 3.387943440870223 -5.868090172756965 -1.5
  endloop
endfacet
facet normal 9.409614934322738e-33 -2.4562719403729539e-32 -1.0
  outer loop
    vertex 3.387943440870223 -5.868090172756965 -1.5
    vertex 1.8749999999999967 -3.247595264191647 -1.5
    vertex 2.6516504294495538 -2.651650429449554 -1.5
  endloop
endfacet
facet normal 9.409614934322738e-33 -2.4562719403729539e-32 -1.0
  outer loop
    vertex 3.387943440870223 -5.868090172756965 -1.5
    vertex 2.6516504294495538 -2.651650429449554 -1.5
    vertex 3.2475952641916463 -1.875000000000001 -1.5
  endloop
endfacet
facet normal 9.409614934322738e-33 -2.4562719403729539e-32 -1.0
  outer loop
    vertex 3.387943440870223 -5.868090172756965 -1.5
    vertex 3.2475952641916463 -1.875000000000001 -1.5
    vertex 3.6222218485840076 -0.9705714191344549 -1.5
  endloop
endfacet
facet normal 9.409614934322738e-33 -2.4562719403729539e-32 -1.0
  outer loop
    vertex 3.387943440870223 -5.868090172756965 -1.5
    vertex 3.6222218485840076 -0.9705714191344549 -1.5
    vertex 4.791275562631646 -4.791275562631653 -1.5
  endloop
endfacet
facet normal 9.409614934322738e-33 -2.4562719403729539e-32 -1.0
  outer loop
    vertex 4.791275562631646 -4.791275562631653 -1.5
    vertex 3.6222218485840076 -0.9705714191344549 -1.5
    vertex 3.7500000000000018 -1.6523241108679088e-15 -1.5
  endloop
endfacet
facet normal -0.3826834323650922 -0.923879532511286 -6.324403668144515e-19
  outer loop
    vertex 1.8750000000000016 3.2475952641916455 1.5
    vertex 1.624929674431078 3.35117778458935 -1.5
    vertex 1.8750000000000016 3.2475952641916455 -1.5
  endloop
endfacet
facet normal -0.3826834323650922 -0.923879532511286 -6.324403668144515e-19
  outer loop
    vertex 1.624929674431078 3.35117778458935 -1.5
    vertex 1.8750000000000016 3.2475952641916455 1.5
    vertex 1.624929674431078 3.35117778458935 1.5
  endloop
endfacet
endsolid Untitled-5a1a0b6b
